<svg width="130" height="204" viewBox="0 0 130 204" fill="none" xmlns="http://www.w3.org/2000/svg">
<path fill-rule="evenodd" clip-rule="evenodd" d="M0.267578 201.303V0.0673828H128.633L129.147 203.115L0.267578 201.303Z" fill="#D9DADA"/>
<path d="M56.6289 100.768H83.1283V44.4751H56.6289V100.768Z" stroke="#FEFEFE" stroke-width="0.35" stroke-miterlimit="10"/>
<path d="M69.0502 76.504H64.9657V75.5506L66.8394 73.1656C67.0798 72.8368 67.2538 72.5466 67.3672 72.2979C67.4805 72.0491 67.5358 71.8115 67.5358 71.5821C67.5358 71.2753 67.4832 71.0321 67.3755 70.858C67.2677 70.6839 67.1156 70.5955 66.9167 70.5955C66.6983 70.5955 66.5243 70.6978 66.3972 70.8995C66.2673 71.104 66.2038 71.3914 66.2038 71.759H64.8496C64.8496 71.3334 64.938 70.9437 65.1148 70.59C65.2917 70.239 65.5405 69.9654 65.8583 69.7692C66.1761 69.5757 66.5381 69.479 66.9388 69.479C67.5578 69.479 68.0387 69.6503 68.3814 69.9903C68.7213 70.3302 68.8926 70.8166 68.8926 71.4439C68.8926 71.8336 68.7987 72.2315 68.6108 72.6323C68.4201 73.033 68.0774 73.5276 67.5827 74.1135L66.6929 75.3848H69.0502V76.504V76.504Z" fill="#006672"/>
<path d="M73.9239 73.8965H74.5125V75.013H73.9239V76.5136H72.5752V75.013H70.2815L70.2207 74.1424L72.5697 69.5825H73.9239V73.8965ZM72.8246 73.8912L72.797 71.6251L71.7771 73.8912H72.8246Z" fill="#006672"/>
<path d="M97.6875 29.9663H124.642V56.4193H97.6875V29.9663Z" fill="#FBCB8E" stroke="#2B2A29" stroke-width="0.4999" stroke-miterlimit="10" stroke-linecap="round" stroke-linejoin="round"/>
<path d="M115.655 29.9663H124.64V56.419H115.655C115.655 56.419 113.498 50.6757 113.498 43.1922C113.498 35.7096 115.655 29.9663 115.655 29.9663Z" stroke="#2B2A29" stroke-width="0.4999" stroke-miterlimit="10" stroke-linecap="round" stroke-linejoin="round"/>
<path d="M97.6875 56.418H124.642V82.8706H97.6875V56.418Z" fill="#FBCB8E" stroke="#2B2A29" stroke-width="0.4999" stroke-miterlimit="10" stroke-linecap="round" stroke-linejoin="round"/>
<path d="M115.655 56.4185H124.64V82.8712H115.655C115.655 82.8712 113.498 77.1279 113.498 69.6444C113.498 62.1617 115.655 56.4185 115.655 56.4185Z" stroke="#2B2A29" stroke-width="0.4999" stroke-miterlimit="10" stroke-linecap="round" stroke-linejoin="round"/>
<path d="M97.6875 82.8711H124.642V109.323H97.6875V82.8711Z" fill="#FBCB8E" stroke="#2B2A29" stroke-width="0.4999" stroke-miterlimit="10" stroke-linecap="round" stroke-linejoin="round"/>
<path d="M115.655 82.8711H124.64V109.323H115.655C115.655 109.323 113.498 103.58 113.498 96.097C113.498 88.6143 115.655 82.8711 115.655 82.8711Z" stroke="#2B2A29" stroke-width="0.4999" stroke-miterlimit="10" stroke-linecap="round" stroke-linejoin="round"/>
<path d="M97.6777 161.263V138.081H124.633V164.533H100.948C99.1421 164.533 97.6777 163.07 97.6777 161.263Z" fill="#FBCB8E"/>
<path d="M97.6777 161.263V138.081H124.633V164.533H100.948C99.1421 164.533 97.6777 163.07 97.6777 161.263Z" stroke="#2B2A29" stroke-width="0.4999" stroke-miterlimit="10" stroke-linecap="round" stroke-linejoin="round"/>
<path d="M115.649 138.081H124.634V164.534H115.649C115.649 164.534 113.492 158.79 113.492 151.307C113.492 143.824 115.649 138.081 115.649 138.081Z" stroke="#2B2A29" stroke-width="0.4999" stroke-miterlimit="10" stroke-linecap="round" stroke-linejoin="round"/>
<path d="M97.6875 3.51465H124.642V29.9662H97.6875V3.51465Z" fill="#FBCB8E" stroke="#2B2A29" stroke-width="0.4999" stroke-miterlimit="10" stroke-linecap="round" stroke-linejoin="round"/>
<path fill-rule="evenodd" clip-rule="evenodd" d="M98.5957 8.04395H119.683V29.5321H116.23C111.594 29.5321 108.749 24.5629 108.749 21.5214C108.749 20.6926 108.779 19.8911 108.824 19.1093C108.056 19.1552 107.271 19.1853 106.458 19.1853C103.472 19.1853 98.5957 18.3692 98.5957 11.5622V8.04395V8.04395Z" fill="url(#paint0_linear_63_5659)" fill-opacity="0.501961"/>
<path d="M115.655 3.51465H124.638H124.639V29.9665H115.655C115.655 29.9665 113.498 24.2232 113.498 16.7406C113.498 15.9275 113.527 15.1416 113.572 14.3752C112.791 14.4203 111.99 14.4485 111.162 14.4485C103.536 14.4485 97.6836 12.3318 97.6836 12.3318V3.51465H115.655Z" stroke="#2B2A29" stroke-width="0.4999" stroke-miterlimit="10" stroke-linecap="round" stroke-linejoin="round"/>
<path d="M71.1855 29.9662H97.6852V3.51465H71.1855V29.9662Z" fill="#FBCB8E" stroke="#2B2A29" stroke-width="0.4999" stroke-miterlimit="10" stroke-linecap="round" stroke-linejoin="round"/>
<path fill-rule="evenodd" clip-rule="evenodd" d="M97.1318 4.09082H71.8613V12.6032C71.8566 20.0745 96.6562 18.7204 97.1318 27.0747V4.09082Z" fill="#9D9E9E"/>
<path d="M97.6852 12.3318V3.51465H71.1855V12.3318C71.1855 12.3318 76.9396 14.4485 84.4358 14.4485C91.9331 14.4485 97.6852 12.3318 97.6852 12.3318Z" stroke="#2B2A29" stroke-width="0.4999" stroke-miterlimit="10" stroke-linecap="round" stroke-linejoin="round"/>
<path d="M19.228 30.0305H42.4841V3.57861H15.9844V26.788C15.9844 28.5788 17.4361 30.0305 19.228 30.0305Z" fill="#FBCB8E"/>
<path d="M19.228 30.0305H42.4841V3.57861H15.9844V26.788C15.9844 28.5788 17.4361 30.0305 19.228 30.0305Z" stroke="#2B2A29" stroke-width="0.4999" stroke-miterlimit="10" stroke-linecap="round" stroke-linejoin="round"/>
<path fill-rule="evenodd" clip-rule="evenodd" d="M41.8701 4.44775H16.5996V12.9601C16.5949 20.4315 41.3944 19.0773 41.8701 27.4316V4.44775Z" fill="#9D9E9E"/>
<path d="M42.4849 12.3963V3.5791H15.9844V12.3963C15.9844 12.3963 21.7384 14.5129 29.2346 14.5129C36.732 14.5129 42.4849 12.3963 42.4849 12.3963Z" stroke="#2B2A29" stroke-width="0.4999" stroke-miterlimit="10" stroke-linecap="round" stroke-linejoin="round"/>
<path d="M43.6582 30.0219H70.1579V3.57031H43.6582V30.0219Z" fill="#FBCB8E" stroke="#2B2A29" stroke-width="0.4999" stroke-miterlimit="10" stroke-linecap="round" stroke-linejoin="round"/>
<path fill-rule="evenodd" clip-rule="evenodd" d="M69.5654 4.51367H44.2949V13.026C44.2902 20.4974 69.0898 19.1432 69.5654 27.4975V4.51367Z" fill="#9D9E9E"/>
<path d="M70.1579 12.387V3.56982H43.6582V12.387C43.6582 12.387 49.4123 14.5036 56.9085 14.5036C64.4058 14.5036 70.1579 12.387 70.1579 12.387Z" stroke="#2B2A29" stroke-width="0.4999" stroke-miterlimit="10" stroke-linecap="round" stroke-linejoin="round"/>
<path d="M97.6719 110.574H124.627V137.026H97.6719V110.574Z" fill="#FBCB8E" stroke="#2B2A29" stroke-width="0.4999" stroke-miterlimit="10" stroke-linecap="round" stroke-linejoin="round"/>
<path d="M115.643 110.574H124.628V137.026H115.643C115.643 137.026 113.486 131.283 113.486 123.8C113.486 116.317 115.643 110.574 115.643 110.574Z" stroke="#2B2A29" stroke-width="0.4999" stroke-miterlimit="10" stroke-linecap="round" stroke-linejoin="round"/>
<defs>
<linearGradient id="paint0_linear_63_5659" x1="117.169" y1="25.7543" x2="101.11" y2="11.8218" gradientUnits="userSpaceOnUse">
<stop stop-color="#9D9E9E"/>
<stop offset="1" stop-color="#B2B3B3"/>
</linearGradient>
</defs>
</svg>
