<?xml version="1.0" encoding="UTF-8"?>
<!DOCTYPE svg PUBLIC "-//W3C//DTD SVG 1.1//EN" "http://www.w3.org/Graphics/SVG/1.1/DTD/svg11.dtd">
<!-- Creator: CorelDRAW 2019 -->
<svg xmlns="http://www.w3.org/2000/svg" xml:space="preserve" width="13.277mm" height="13.2593mm" version="1.1" style="shape-rendering:geometricPrecision; text-rendering:geometricPrecision; image-rendering:optimizeQuality; fill-rule:evenodd; clip-rule:evenodd"
viewBox="0 0 47.62 47.55"
 xmlns:xlink="http://www.w3.org/1999/xlink"
 xmlns:xodm="http://www.corel.com/coreldraw/odm/2003">
 <defs>
  <style type="text/css">
   <![CDATA[
    .str0 {stroke:#2B2A29;stroke-width:1.79;stroke-linecap:round;stroke-linejoin:round;stroke-miterlimit:22.9256}
    .fil3 {fill:none}
    .fil1 {fill:none;fill-rule:nonzero}
    .fil0 {fill:#FBCB8E;fill-rule:nonzero}
    .fil2 {fill:url(#id0)}
   ]]>
  </style>
  <linearGradient id="id0" gradientUnits="userSpaceOnUse" x1="46.72" y1="36.44" x2="0.96" y2="36.44">
   <stop offset="0" style="stop-opacity:1; stop-color:#FEF0DE"/>
   <stop offset="1" style="stop-opacity:1; stop-color:#FBCB8E"/>
  </linearGradient>
 </defs>
 <g id="Слой_x0020_1_0">
  <metadata id="CorelCorpID_0Corel-Layer"/>
  <path class="fil0" d="M6.44 1.62l34.55 0c3.1,0 5.6,2.51 5.6,5.6l0 40.15 -45.76 0 0 -40.15c0,-3.1 2.51,-5.6 5.61,-5.6z"/>
  <path class="fil1 str0" d="M6.5 0.9l34.55 0c3.1,0 5.6,2.51 5.6,5.6l0 40.15 -45.76 0 0 -40.15c0,-3.1 2.51,-5.6 5.61,-5.6z"/>
  <path class="fil2" d="M0.96 45.9l0 -15.25c0,0 9.93,-3.66 22.88,-3.66l0 0c12.94,0 22.88,3.66 22.88,3.66l0 0 0 15.25 -45.76 0z"/>
  <path class="fil3 str0" d="M46.72 31.4l0 15.25 -45.76 0 0 -15.25c0,0 9.94,-3.66 22.88,-3.66 12.94,0 22.88,3.66 22.88,3.66z"/>
 </g>
</svg>
