<?xml version="1.0" encoding="UTF-8"?>
<!DOCTYPE svg PUBLIC "-//W3C//DTD SVG 1.1//EN" "http://www.w3.org/Graphics/SVG/1.1/DTD/svg11.dtd">
<!-- Creator: CorelDRAW 2019 -->
<svg xmlns="http://www.w3.org/2000/svg" xml:space="preserve" width="13.2593mm" height="13.277mm" version="1.1" style="shape-rendering:geometricPrecision; text-rendering:geometricPrecision; image-rendering:optimizeQuality; fill-rule:evenodd; clip-rule:evenodd"
viewBox="0 0 47.46 47.53"
 xmlns:xlink="http://www.w3.org/1999/xlink"
 xmlns:xodm="http://www.corel.com/coreldraw/odm/2003">
 <defs>
  <style type="text/css">
   <![CDATA[
    .str0 {stroke:#2B2A29;stroke-width:1.79;stroke-linecap:round;stroke-linejoin:round;stroke-miterlimit:22.9256}
    .fil3 {fill:none}
    .fil1 {fill:none;fill-rule:nonzero}
    .fil0 {fill:#FBCB8E;fill-rule:nonzero}
    .fil2 {fill:url(#id0)}
   ]]>
  </style>
  <linearGradient id="id0" gradientUnits="userSpaceOnUse" x1="36.37" y1="0.89" x2="36.37" y2="46.57">
   <stop offset="0" style="stop-opacity:1; stop-color:#FEF0DE"/>
   <stop offset="1" style="stop-opacity:1; stop-color:#FBCB8E"/>
  </linearGradient>
 </defs>
 <g id="Слой_x0020_1_0">
  <metadata id="CorelCorpID_0Corel-Layer"/>
  <path class="fil0" d="M1.62 41.1l0 -34.48c0,-3.09 2.5,-5.59 5.59,-5.59l40.08 0 0 45.67 -40.08 0c-3.09,0 -5.59,-2.51 -5.59,-5.6z"/>
  <path class="fil1 str0" d="M0.89 41.04l0 -34.48c0,-3.09 2.5,-5.59 5.59,-5.59l40.08 0 0 45.67 -40.08 0c-3.09,0 -5.59,-2.51 -5.59,-5.6z"/>
  <path class="fil2" d="M45.81 46.57l-15.22 0c0,0 -3.65,-9.92 -3.65,-22.83l0 0c0,-12.92 3.65,-22.84 3.65,-22.84l0 0 15.22 0 0 45.67z"/>
  <path class="fil3 str0" d="M31.34 0.89l15.22 0 0 45.67 -15.22 0c0,0 -3.65,-9.92 -3.65,-22.84 0,-12.92 3.65,-22.84 3.65,-22.84z"/>
 </g>
</svg>
