<svg width="252" height="64" viewBox="0 0 252 64" fill="none" xmlns="http://www.w3.org/2000/svg">
<g clip-path="url(#clip0_4003_119)">
<path fill-rule="evenodd" clip-rule="evenodd" d="M51.1684 57.3092C52.111 58.9553 52.328 61.1619 50.1194 62.429C49.0466 63.0448 47.9187 63.0251 47.0234 62.4843C47.0747 62.4448 47.1299 62.4053 47.1772 62.354C47.824 61.6908 47.6781 60.7829 46.9918 60.1119C46.1124 59.2553 45.0041 59.0855 44.31 59.3342C44.1917 59.3776 44.1917 59.5395 44.306 59.5908C45.3551 60.0763 44.4677 60.9921 44.9844 61.904C46.1676 63.9685 48.5576 64.5922 50.6676 63.3804C53.5861 61.7066 53.2784 58.7658 52.1268 56.7565C52.0243 56.5789 51.9178 56.4131 51.7995 56.2513C49.3818 52.7025 44.9134 52.7064 40.579 52.7222C36.2684 52.738 32.1943 52.7499 30.2815 49.4064C29.3902 47.8471 29.686 46.1142 30.9717 45.376C31.4528 45.0997 32.6636 44.6221 33.5313 46.1379C33.76 46.5366 33.8113 46.9313 33.7482 47.2748C33.4248 47.1129 33.0186 47.1287 32.6163 47.3142C31.7841 47.7011 31.37 48.4274 31.3582 48.9801C31.3582 49.0748 31.4686 49.1182 31.5357 49.0551C32.2337 48.3761 32.6557 49.5643 33.6496 49.1064C33.6851 49.0906 33.7166 49.0669 33.7521 49.0472C33.7561 49.0472 33.76 49.0472 33.7679 49.0432C33.7758 49.0393 33.7797 49.0353 33.7837 49.0314C33.8744 48.9761 33.9612 48.9169 34.0282 48.8498C34.9274 48.1274 35.1483 46.7458 34.4896 45.5931C33.5747 43.9944 31.9813 43.5326 30.4274 44.4208C28.5975 45.4708 28.1242 47.8511 29.3271 49.9551C31.5593 53.8552 36.1461 53.8433 40.583 53.8275C42.4327 53.8196 44.235 53.8512 45.8639 54.0723C48.0054 54.3604 50.0641 55.371 51.1724 57.3092" fill="#C7A568"/>
<path fill-rule="evenodd" clip-rule="evenodd" d="M30.2812 41.4483C30.4074 43.3391 29.6384 45.4194 27.0985 45.5931C25.868 45.676 24.8584 45.1668 24.2904 44.2865C24.3575 44.2747 24.4206 44.2589 24.4876 44.2352C25.3592 43.9194 25.6274 43.0391 25.3001 42.1391C24.882 40.9825 23.9631 40.3469 23.2295 40.268C23.1033 40.2522 23.0323 40.3983 23.1112 40.4969C23.8408 41.393 22.6458 41.8312 22.7089 42.8733C22.8706 45.2497 24.7479 46.8523 27.1734 46.6905C30.5258 46.4655 31.5354 43.6825 31.3816 41.3733C31.3658 41.172 31.3421 40.9706 31.3066 40.7733C30.6835 36.5219 26.6607 34.5718 22.7602 32.6889C22.279 32.456 21.8018 32.227 21.3364 31.9941H18.9819C20.035 32.5981 21.1629 33.1428 22.283 33.6797C23.9513 34.485 25.5564 35.3021 26.925 36.21C28.7273 37.4061 30.1353 39.214 30.2852 41.4443" fill="#C7A568"/>
<path fill-rule="evenodd" clip-rule="evenodd" d="M30.2812 22.5484C30.4074 20.6575 29.6384 18.5772 27.0985 18.4035C25.868 18.3206 24.8584 18.8299 24.2904 19.7101C24.3575 19.722 24.4206 19.7378 24.4876 19.7615C25.3592 20.0773 25.6274 20.9536 25.3001 21.8576C24.882 23.0102 23.9631 23.6497 23.2295 23.7287C23.1033 23.7444 23.0323 23.5984 23.1112 23.4997C23.8408 22.6036 22.6458 22.1655 22.7089 21.1233C22.8706 18.747 24.7479 17.1443 27.1734 17.3062C30.5258 17.5312 31.5354 20.3141 31.3816 22.6234C31.3658 22.8247 31.3421 23.026 31.3066 23.2234C30.6835 27.4748 26.6607 29.4248 22.7602 31.3078C22.279 31.5407 21.8018 31.7696 21.3364 32.0025H18.9819C20.035 31.3985 21.1629 30.8538 22.283 30.3169C23.9513 29.5117 25.5564 28.6945 26.925 27.7866C28.7273 26.5906 30.1353 24.7826 30.2852 22.5523" fill="#C7A568"/>
<path fill-rule="evenodd" clip-rule="evenodd" d="M51.1684 6.69108C52.111 5.045 52.328 2.83837 50.1194 1.57124C49.0466 0.955439 47.9187 0.975176 47.0234 1.51598C47.0747 1.55545 47.1299 1.59887 47.1772 1.64624C47.824 2.30941 47.6781 3.21733 46.9918 3.88839C46.1124 4.74499 45.0041 4.91473 44.31 4.66604C44.1917 4.62262 44.1917 4.46077 44.306 4.40946C45.3551 3.92392 44.4677 3.00811 44.9844 2.09625C46.1676 0.027788 48.5576 -0.591962 50.6676 0.619905C53.5861 2.29362 53.2784 5.23447 52.1268 7.24373C52.0243 7.42136 51.9178 7.58715 51.7995 7.749C49.3818 11.2978 44.9134 11.2938 40.579 11.278C36.2684 11.2622 32.1943 11.2504 30.2815 14.5939C29.3902 16.1531 29.686 17.886 30.9717 18.6242C31.4528 18.9005 32.6636 19.3782 33.5313 17.8624C33.76 17.4637 33.8113 17.0689 33.7482 16.7255C33.4248 16.8873 33.0186 16.8716 32.6163 16.686C31.7841 16.2992 31.37 15.5728 31.3582 15.0202C31.3582 14.9255 31.4686 14.882 31.5357 14.9491C32.2337 15.6281 32.6557 14.4399 33.6496 14.8978C33.6851 14.9136 33.7166 14.9373 33.7521 14.9531C33.7561 14.9531 33.76 14.9531 33.7679 14.957C33.7758 14.961 33.7797 14.9649 33.7837 14.9689C33.8744 15.0241 33.9612 15.0834 34.0282 15.1505C34.9274 15.8728 35.1483 17.2545 34.4896 18.4071C33.5747 20.0058 31.9813 20.4677 30.4274 19.5795C28.5975 18.5295 28.1242 16.1531 29.3271 14.0452C31.5593 10.1451 36.1461 10.1609 40.583 10.1727C42.4327 10.1806 44.235 10.149 45.8639 9.92799C48.0054 9.63983 50.0641 8.62928 51.1724 6.69108" fill="#C7A568"/>
<path fill-rule="evenodd" clip-rule="evenodd" d="M30.2812 22.5484C30.4074 20.6575 29.6384 18.5772 27.0985 18.4035C25.868 18.3206 24.8584 18.8299 24.2904 19.7101C24.3575 19.722 24.4206 19.7378 24.4876 19.7615C25.3592 20.0773 25.6274 20.9536 25.3001 21.8576C24.882 23.0102 23.9631 23.6497 23.2295 23.7287C23.1033 23.7444 23.0323 23.5984 23.1112 23.4997C23.8408 22.6036 22.6458 22.1655 22.7089 21.1233C22.8706 18.747 24.7479 17.1443 27.1734 17.3062C30.5258 17.5312 31.5354 20.3141 31.3816 22.6234C31.3658 22.8247 31.3421 23.026 31.3066 23.2234C30.6835 27.4748 26.6607 29.4248 22.7602 31.3078C22.279 31.5407 21.8018 31.7696 21.3364 32.0025H18.9819C20.035 31.3985 21.1629 30.8538 22.283 30.3169C23.9513 29.5117 25.5564 28.6945 26.925 27.7866C28.7273 26.5906 30.1353 24.7826 30.2852 22.5523" fill="#C7A568"/>
<path fill-rule="evenodd" clip-rule="evenodd" d="M30.2812 41.4483C30.4074 43.3391 29.6384 45.4194 27.0985 45.5931C25.868 45.676 24.8584 45.1668 24.2904 44.2865C24.3575 44.2747 24.4206 44.2589 24.4876 44.2352C25.3592 43.9194 25.6274 43.0391 25.3001 42.1391C24.882 40.9825 23.9631 40.3469 23.2295 40.268C23.1033 40.2522 23.0323 40.3983 23.1112 40.4969C23.8408 41.393 22.6458 41.8312 22.7089 42.8733C22.8706 45.2497 24.7479 46.8523 27.1734 46.6905C30.5258 46.4655 31.5354 43.6825 31.3816 41.3733C31.3658 41.172 31.3421 40.9706 31.3066 40.7733C30.6835 36.5219 26.6607 34.5718 22.7602 32.6889C22.279 32.456 21.8018 32.227 21.3364 31.9941H18.9819C20.035 32.5981 21.1629 33.1428 22.283 33.6797C23.9513 34.485 25.5564 35.3021 26.925 36.21C28.7273 37.4061 30.1353 39.214 30.2852 41.4443" fill="#C7A568"/>
<path d="M36.126 17.1521C32.332 20.9495 29.9814 26.1997 29.9814 31.9985C29.9814 37.7973 32.3281 43.0434 36.126 46.8448C39.9201 50.6423 45.1655 52.9949 50.9591 52.9949C56.7527 52.9949 61.9941 50.6462 65.7921 46.8448C69.5862 43.0474 71.9367 37.7973 71.9367 31.9985C71.9367 26.1997 69.5901 20.9535 65.7921 17.1521C61.9981 13.3547 56.7527 11.002 50.9591 11.002C45.1655 11.002 39.924 13.3507 36.126 17.1521ZM28.8574 31.9985C28.8574 25.8878 31.3303 20.3574 35.3294 16.3547C39.3285 12.352 44.8539 9.87695 50.9591 9.87695C57.0643 9.87695 62.5897 12.352 66.5888 16.3547C70.5879 20.3574 73.0608 25.8878 73.0608 31.9985C73.0608 38.1091 70.5879 43.6395 66.5888 47.6422C62.5897 51.6449 57.0643 54.12 50.9591 54.12C44.8539 54.12 39.3285 51.6449 35.3294 47.6422C31.3303 43.6395 28.8574 38.1091 28.8574 31.9985Z" fill="#C7A568"/>
<path fill-rule="evenodd" clip-rule="evenodd" d="M29.4415 32.3462L29.3192 32.358C28.9011 32.4093 28.4515 32.4448 28.0059 32.4883C27.5602 32.5238 27.1106 32.6264 26.6926 32.6383C26.2745 32.6383 25.8801 32.5712 25.5449 32.4922C25.2096 32.4054 24.9296 32.3146 24.7324 32.2238C24.5352 32.1369 24.4248 32.0659 24.4248 32.0659V31.9435C24.4248 31.9435 24.5352 31.8725 24.7324 31.7856C24.9296 31.6948 25.2096 31.6001 25.5449 31.5132C25.8801 31.4343 26.2706 31.3672 26.6926 31.3672C27.1146 31.3751 27.5602 31.4777 28.0059 31.5132C28.4515 31.5567 28.9011 31.5922 29.3192 31.6435L29.4415 31.6554" fill="#C7A568"/>
<path fill-rule="evenodd" clip-rule="evenodd" d="M50.7464 57.3092C49.8078 58.9553 49.5869 61.1619 51.7955 62.429C52.8682 63.0448 53.9962 63.0251 54.8915 62.4843C54.8402 62.4448 54.785 62.4053 54.7376 62.354C54.0908 61.6908 54.2368 60.7829 54.923 60.1119C55.8025 59.2553 56.9107 59.0855 57.6049 59.3342C57.7232 59.3776 57.7232 59.5395 57.6088 59.5908C56.5597 60.0763 57.4471 60.9921 56.9344 61.904C55.7512 63.9685 53.3612 64.5922 51.2512 63.3804C48.3327 61.7066 48.6404 58.7658 49.792 56.7565C49.8945 56.5789 50.001 56.4131 50.1193 56.2513C52.5369 52.7025 57.0054 52.7064 61.3358 52.7222C65.6465 52.738 69.7206 52.7499 71.6334 49.4064C72.5247 47.8471 72.2289 46.1142 70.9432 45.376C70.462 45.0997 69.2512 44.6221 68.3836 46.1379C68.1548 46.5366 68.1036 46.9313 68.1667 47.2748C68.4901 47.1129 68.9002 47.1287 69.3025 47.3142C70.1347 47.7011 70.5488 48.4274 70.5606 48.9801C70.5606 49.0748 70.4502 49.1182 70.3831 49.0551C69.6851 48.3761 69.2631 49.5643 68.2692 49.1064C68.2337 49.0906 68.2022 49.0669 68.1667 49.0472C68.1627 49.0472 68.1588 49.0472 68.1548 49.0432C68.1469 49.0393 68.143 49.0353 68.1351 49.0314C68.0444 48.9761 67.9576 48.9169 67.8906 48.8498C66.9914 48.1274 66.7705 46.7458 67.4291 45.5931C68.3441 43.9944 69.9375 43.5326 71.4914 44.4208C73.3213 45.4708 73.7946 47.8511 72.5917 49.9551C70.3595 53.8552 65.7727 53.8433 61.3358 53.8275C59.4861 53.8196 57.6837 53.8512 56.0549 54.0723C53.9134 54.3604 51.8546 55.371 50.7464 57.3092Z" fill="#C7A568"/>
<path fill-rule="evenodd" clip-rule="evenodd" d="M71.6333 41.4483C71.5071 43.3391 72.2762 45.4194 74.8161 45.5931C76.0505 45.676 77.0562 45.1668 77.6241 44.2865C77.5571 44.2747 77.494 44.2589 77.4269 44.2352C76.5553 43.9194 76.2911 43.0391 76.6145 42.1391C77.0326 40.9825 77.9515 40.3469 78.6851 40.268C78.8113 40.2522 78.8822 40.3983 78.8034 40.4969C78.0737 41.393 79.2688 41.8312 79.2057 42.8733C79.044 45.2497 77.1666 46.8523 74.7411 46.6905C71.3888 46.4655 70.3792 43.6825 70.533 41.3733C70.5488 41.172 70.5724 40.9706 70.6079 40.7733C71.2311 36.5219 75.2539 34.5718 79.1544 32.6889C79.6355 32.456 80.1088 32.227 80.5781 31.9941H82.9287C81.8757 32.5981 80.7477 33.1428 79.6316 33.6797C77.9633 34.485 76.3581 35.3021 74.9896 36.21C73.1872 37.4061 71.7832 39.214 71.6294 41.4443" fill="#C7A568"/>
<path fill-rule="evenodd" clip-rule="evenodd" d="M71.6333 22.5484C71.5071 20.6575 72.2762 18.5772 74.8161 18.4035C76.0505 18.3206 77.0562 18.8299 77.6241 19.7101C77.5571 19.722 77.494 19.7378 77.4269 19.7615C76.5553 20.0773 76.2911 20.9536 76.6145 21.8576C77.0326 23.0102 77.9515 23.6497 78.6851 23.7287C78.8113 23.7444 78.8822 23.5984 78.8034 23.4997C78.0737 22.6036 79.2688 22.1655 79.2057 21.1233C79.044 18.747 77.1666 17.1443 74.7411 17.3062C71.3888 17.5312 70.3792 20.3141 70.533 22.6234C70.5488 22.8247 70.5724 23.026 70.6079 23.2234C71.2311 27.4748 75.2539 29.4248 79.1544 31.3078C79.6355 31.5407 80.1088 31.7696 80.5781 32.0025H82.9287C81.8757 31.3985 80.7477 30.8538 79.6316 30.3169C77.9633 29.5117 76.3581 28.6945 74.9896 27.7866C73.1872 26.5906 71.7832 24.7826 71.6294 22.5523" fill="#C7A568"/>
<path fill-rule="evenodd" clip-rule="evenodd" d="M50.7464 6.69108C49.8078 5.045 49.5869 2.83837 51.7955 1.57124C52.8682 0.955439 53.9962 0.975176 54.8915 1.51598C54.8402 1.55545 54.785 1.59887 54.7376 1.64624C54.0908 2.30941 54.2368 3.21733 54.923 3.88839C55.8025 4.74499 56.9107 4.91473 57.6049 4.66604C57.7232 4.62262 57.7232 4.46077 57.6088 4.40946C56.5597 3.92392 57.4471 3.00811 56.9344 2.09625C55.7512 0.027788 53.3612 -0.591962 51.2512 0.619905C48.3327 2.29362 48.6404 5.23447 49.792 7.24373C49.8945 7.42136 50.001 7.58715 50.1193 7.749C52.5369 11.2978 57.0054 11.2938 61.3358 11.278C65.6465 11.2622 69.7206 11.2504 71.6334 14.5939C72.5247 16.1531 72.2289 17.886 70.9432 18.6242C70.462 18.9005 69.2512 19.3782 68.3836 17.8624C68.1548 17.4637 68.1036 17.0689 68.1667 16.7255C68.4901 16.8873 68.9002 16.8716 69.3025 16.686C70.1347 16.2992 70.5488 15.5728 70.5606 15.0202C70.5606 14.9255 70.4502 14.882 70.3831 14.9491C69.6851 15.6281 69.2631 14.4399 68.2692 14.8978C68.2337 14.9136 68.2022 14.9373 68.1667 14.9531C68.1627 14.9531 68.1588 14.9531 68.1548 14.957C68.1469 14.961 68.143 14.9649 68.1351 14.9689C68.0444 15.0241 67.9576 15.0834 67.8906 15.1505C66.9914 15.8728 66.7705 17.2545 67.4291 18.4071C68.3441 20.0058 69.9375 20.4677 71.4914 19.5795C73.3213 18.5295 73.7946 16.1531 72.5917 14.0452C70.3595 10.1451 65.7727 10.1609 61.3358 10.1727C59.4861 10.1806 57.6837 10.149 56.0549 9.92799C53.9134 9.63983 51.8546 8.62928 50.7464 6.69108Z" fill="#C7A568"/>
<path fill-rule="evenodd" clip-rule="evenodd" d="M71.6333 22.5484C71.5071 20.6575 72.2762 18.5772 74.8161 18.4035C76.0505 18.3206 77.0562 18.8299 77.6241 19.7101C77.5571 19.722 77.494 19.7378 77.4269 19.7615C76.5553 20.0773 76.2911 20.9536 76.6145 21.8576C77.0326 23.0102 77.9515 23.6497 78.6851 23.7287C78.8113 23.7444 78.8822 23.5984 78.8034 23.4997C78.0737 22.6036 79.2688 22.1655 79.2057 21.1233C79.044 18.747 77.1666 17.1443 74.7411 17.3062C71.3888 17.5312 70.3792 20.3141 70.533 22.6234C70.5488 22.8247 70.5724 23.026 70.6079 23.2234C71.2311 27.4748 75.2539 29.4248 79.1544 31.3078C79.6355 31.5407 80.1088 31.7696 80.5781 32.0025H82.9287C81.8757 31.3985 80.7477 30.8538 79.6316 30.3169C77.9633 29.5117 76.3581 28.6945 74.9896 27.7866C73.1872 26.5906 71.7832 24.7826 71.6294 22.5523" fill="#C7A568"/>
<path fill-rule="evenodd" clip-rule="evenodd" d="M71.6333 41.4483C71.5071 43.3391 72.2762 45.4194 74.8161 45.5931C76.0505 45.676 77.0562 45.1668 77.6241 44.2865C77.5571 44.2747 77.494 44.2589 77.4269 44.2352C76.5553 43.9194 76.2911 43.0391 76.6145 42.1391C77.0326 40.9825 77.9515 40.3469 78.6851 40.268C78.8113 40.2522 78.8822 40.3983 78.8034 40.4969C78.0737 41.393 79.2688 41.8312 79.2057 42.8733C79.044 45.2497 77.1666 46.8523 74.7411 46.6905C71.3888 46.4655 70.3792 43.6825 70.533 41.3733C70.5488 41.172 70.5724 40.9706 70.6079 40.7733C71.2311 36.5219 75.2539 34.5718 79.1544 32.6889C79.6355 32.456 80.1088 32.227 80.5781 31.9941H82.9287C81.8757 32.5981 80.7477 33.1428 79.6316 33.6797C77.9633 34.485 76.3581 35.3021 74.9896 36.21C73.1872 37.4061 71.7832 39.214 71.6294 41.4443" fill="#C7A568"/>
<path fill-rule="evenodd" clip-rule="evenodd" d="M72.4731 32.3462L72.5954 32.358C73.0135 32.4093 73.4631 32.4448 73.9087 32.4883C74.3544 32.5238 74.804 32.6264 75.222 32.6383C75.6401 32.6383 76.0345 32.5712 76.3697 32.4922C76.705 32.4054 76.985 32.3146 77.1822 32.2238C77.3794 32.1369 77.4898 32.0659 77.4898 32.0659V31.9435C77.4898 31.9435 77.3794 31.8725 77.1822 31.7856C76.985 31.6948 76.705 31.6001 76.3697 31.5132C76.0345 31.4343 75.6401 31.3672 75.222 31.3672C74.8001 31.3751 74.3544 31.4777 73.9087 31.5132C73.4631 31.5567 73.0135 31.5922 72.5954 31.6435L72.4731 31.6554" fill="#C7A568"/>
<path fill-rule="evenodd" clip-rule="evenodd" d="M63.6784 33.4194H62.2586V30.518C62.4163 30.6483 62.5781 30.7746 62.7516 30.897C63.0395 31.0944 63.3471 31.2759 63.6784 31.4378M65.3112 33.4194H63.8914V31.5404C64.3331 31.7417 64.8064 31.9115 65.3112 32.0457V33.4194ZM66.944 33.4194H65.5241V32.097C65.9777 32.2036 66.451 32.2825 66.944 32.326V33.4194ZM67.8668 33.4194H67.1569V32.3418C67.3896 32.3575 67.6263 32.3654 67.8668 32.3654V31.8681C65.9777 31.8681 64.27 31.3391 63.0395 30.4865C62.6609 30.2259 62.3296 29.9338 62.0496 29.6141V34.9786H67.8668V33.4155V33.4194ZM38.2402 33.4194H39.66V30.518C39.5062 30.6483 39.3405 30.7746 39.167 30.897C38.8791 31.0944 38.5715 31.2759 38.2402 31.4378V33.4194ZM36.6074 33.4194H38.0272V31.5404C37.5855 31.7417 37.1122 31.9115 36.6074 32.0417V33.4155V33.4194ZM34.9746 33.4194H36.3944V32.097C35.9409 32.2036 35.4676 32.2825 34.9746 32.326V33.4194ZM34.0518 33.4194H34.7617V32.3418C34.529 32.3575 34.2923 32.3654 34.0518 32.3654V31.8681C35.9409 31.8681 37.6486 31.3391 38.8791 30.4865C39.2577 30.2259 39.589 29.9338 39.869 29.6141V34.9786H34.0518V33.4155V33.4194ZM39.869 35.9852H34.0518V35.3576H39.869V35.9852ZM67.8629 35.9852H62.0456V35.3576H67.8629V35.9852ZM57.7349 34.9826H44.1797V35.3537H57.7349V34.9826ZM56.7726 33.4194H57.7349V29.1167C57.4944 29.5549 57.167 29.9614 56.7726 30.3286V33.4194ZM55.1398 33.4194H56.5596V30.518C56.4019 30.6483 56.2402 30.7746 56.0667 30.897C55.7788 31.0944 55.4711 31.2759 55.1398 31.4378V33.4194ZM53.5071 33.4194H54.9269V31.5404C54.4852 31.7417 54.0119 31.9115 53.5071 32.0457V33.4194ZM51.8743 33.4194H53.2941V32.097C52.8405 32.2036 52.3673 32.2825 51.8743 32.326V33.4194ZM50.2415 33.4194H51.6613V32.3418C51.4286 32.3575 51.192 32.3654 50.9514 32.3654C50.7108 32.3654 50.4742 32.3575 50.2415 32.3418V33.4194ZM48.6087 33.4194H50.0285V32.326C49.5395 32.2825 49.0662 32.2036 48.6087 32.097V33.4194ZM46.9759 33.4194H48.3958V32.0457C47.8949 31.9154 47.4177 31.7457 46.9759 31.5404V33.4194ZM45.3432 33.4194H46.759V31.4378C46.4317 31.2759 46.1201 31.0944 45.8362 30.897C45.6626 30.7786 45.497 30.6522 45.3432 30.518V33.4194ZM44.1679 33.4194H45.1302V30.3286C44.7358 29.9614 44.4124 29.5549 44.1679 29.1167V33.4194ZM44.6688 21.1192V21.2218H44.6333V22.4573H40.3541V21.2218H40.3186V21.1192H40.2713V20.9613H39.9203L40.8156 20.7007V19.9665H40.7643V19.8441H40.5868L40.7643 19.8165V19.8086H40.8156L42.0658 19.627V19.2599H42.0106V19.102H41.8765L42.3931 18.9125H42.4602L42.4681 17.8941C42.4405 17.8822 42.4247 17.8586 42.4247 17.827C42.4247 17.7954 42.4444 17.7717 42.4681 17.7599V17.4599C42.4681 17.4599 42.4405 17.4322 42.4405 17.4085C42.4405 17.3849 42.4523 17.3651 42.472 17.3572V16.7256C42.472 16.7256 42.4444 16.698 42.4444 16.6783C42.4444 16.6506 42.4681 16.627 42.4957 16.627C42.5233 16.627 42.5469 16.6506 42.5469 16.6783C42.5469 16.698 42.5351 16.7177 42.5154 16.7256V17.3572C42.5391 17.3651 42.5509 17.3849 42.5509 17.4085C42.5509 17.4322 42.539 17.452 42.5193 17.4599V17.7599C42.5469 17.7717 42.5667 17.7954 42.5667 17.827C42.5667 17.8586 42.5469 17.8822 42.5233 17.8941L42.5312 18.9125H42.5982L43.1149 19.102H42.9808V19.2599H42.9256V19.627L44.1758 19.8086H44.227V19.8165L44.4085 19.8441H44.227V19.9665H44.1758V20.7007L45.071 20.9613H44.72V21.1192H44.6727H44.6688ZM61.5763 21.1192V21.2218H61.5408V22.4573H57.2617V21.2218H57.2262V21.1192H57.1788V20.9613H56.8278L57.7231 20.7007V19.9665H57.6718V19.8441H57.4944L57.6718 19.8165V19.8086H57.7231L58.9694 19.627V19.2599H58.9142V19.102H58.7801L59.2967 18.9125H59.3598L59.3677 17.8941C59.344 17.8822 59.3243 17.8586 59.3243 17.827C59.3243 17.7954 59.344 17.7717 59.3677 17.7599V17.4599C59.3677 17.4599 59.3401 17.4322 59.3401 17.4085C59.3401 17.3849 59.3519 17.3651 59.3716 17.3572V16.7256C59.3716 16.7256 59.344 16.698 59.344 16.6783C59.344 16.6506 59.3677 16.627 59.3953 16.627C59.4229 16.627 59.4466 16.6506 59.4466 16.6783C59.4466 16.698 59.4348 16.7177 59.415 16.7256V17.3572C59.4387 17.3651 59.4505 17.3849 59.4505 17.4085C59.4505 17.4322 59.4387 17.452 59.419 17.4599V17.7599C59.4466 17.7717 59.4663 17.7954 59.4663 17.827C59.4663 17.8586 59.4466 17.8822 59.4229 17.8941L59.4308 18.9125H59.4979L60.0145 19.102H59.8804V19.2599H59.8252V19.627L61.0754 19.8086H61.1267V19.8165L61.3042 19.8441H61.1267V19.9665H61.0754V20.7007L61.9707 20.9613H61.6197V21.1192H61.5724H61.5763ZM44.1679 22.631H40.8195V43.0551C40.8195 44.3933 40.1254 44.721 39.0093 44.721C39.0093 45.0091 39.1118 45.2657 39.3208 45.5025C39.5298 45.7118 39.8927 45.8144 40.4133 45.8144C40.855 45.8144 41.2731 45.7354 41.6359 45.5815C41.9751 45.4275 42.259 45.242 42.4957 45.0091C42.7284 45.242 43.0163 45.4275 43.3791 45.5815C43.7183 45.7394 44.1324 45.8144 44.5741 45.8144C45.0947 45.8144 45.4575 45.7118 45.6666 45.5025C45.8756 45.2696 45.9781 45.0091 45.9781 44.721C44.8778 44.721 44.1679 44.3696 44.1679 43.0551V35.9852H57.727V43.0551C57.727 44.3933 57.0329 44.721 55.9168 44.721C55.9168 45.0091 56.0193 45.2657 56.2284 45.5025C56.4374 45.7118 56.8002 45.8144 57.3208 45.8144C57.7625 45.8144 58.1806 45.7354 58.5434 45.5815C58.8826 45.4275 59.1666 45.242 59.4032 45.0091C59.6359 45.242 59.9238 45.4275 60.2866 45.5815C60.6258 45.7394 61.0399 45.8144 61.4816 45.8144C62.0022 45.8144 62.3651 45.7118 62.5741 45.5025C62.7831 45.2696 62.8857 45.0091 62.8857 44.721C61.7853 44.721 61.0754 44.3696 61.0754 43.0551V22.631H57.727V27.2495C57.727 28.5088 56.9816 29.6535 55.7748 30.4865C54.5443 31.3391 52.8366 31.8681 50.9475 31.8681C49.0583 31.8681 47.3506 31.3391 46.1201 30.4865C44.9172 29.6496 44.1718 28.5048 44.1718 27.2495V22.631H44.1679Z" fill="#5281A1"/>
<path fill-rule="evenodd" clip-rule="evenodd" d="M230.159 24.2956V28.322C230.159 28.3417 230.159 28.4009 230.147 28.4088C230.312 28.4838 230.849 28.4799 231.058 28.4799C232.478 28.4799 233.724 28.018 233.724 26.3956C233.724 25.5351 233.436 24.9548 232.612 24.6311C231.89 24.3469 230.951 24.3035 230.159 24.2956ZM218.492 22.7284H219.585C220.737 22.5745 221.431 22.0258 221.431 20.806C221.431 20.3166 221.324 19.835 220.949 19.4915C220.421 19.006 219.502 18.9152 218.812 18.9152C218.705 18.9152 218.599 18.9152 218.492 18.927V22.7284ZM218.492 24.2956V28.322C218.492 28.3417 218.492 28.4009 218.481 28.4088C218.646 28.4838 219.183 28.4799 219.392 28.4799C220.811 28.4799 222.058 28.018 222.058 26.3956C222.058 25.5351 221.77 24.9548 220.946 24.6311C220.224 24.3469 219.285 24.3035 218.492 24.2956ZM202.926 23.5771C202.926 24.7693 203.233 26.0482 203.935 27.0272C204.598 27.9509 205.529 28.4799 206.676 28.4799C207.824 28.4799 208.688 27.943 209.315 27.0193C209.981 26.0325 210.265 24.7416 210.265 23.5614C210.265 21.3666 209.197 18.9192 206.676 18.9192C204.156 18.9192 202.926 21.3034 202.926 23.5811V23.5771ZM162.54 23.5771C162.54 24.7693 162.848 26.0482 163.55 27.0272C164.212 27.9509 165.143 28.4799 166.291 28.4799C167.439 28.4799 168.306 27.943 168.929 27.0193C169.596 26.0325 169.88 24.7416 169.88 23.5614C169.88 21.3705 168.811 18.9192 166.291 18.9192C163.771 18.9192 162.54 21.3034 162.54 23.5811V23.5771ZM131.652 23.5771C131.652 24.7693 131.959 26.0482 132.661 27.0272C133.324 27.9509 134.254 28.4799 135.402 28.4799C136.55 28.4799 137.414 27.943 138.041 27.0193C138.707 26.0325 138.991 24.7416 138.991 23.5614C138.991 21.3705 137.922 18.9192 135.402 18.9192C132.882 18.9192 131.652 21.3034 131.652 23.5811V23.5771ZM120.747 22.7284H121.839C122.991 22.5745 123.685 22.0258 123.685 20.806C123.685 20.3166 123.578 19.835 123.204 19.4915C122.675 19.006 121.752 18.9152 121.066 18.9152C120.96 18.9152 120.853 18.9152 120.747 18.927V22.7284ZM120.747 24.2956V28.322C120.747 28.3417 120.747 28.4009 120.735 28.4088C120.9 28.4838 121.437 28.4799 121.646 28.4799C123.066 28.4799 124.312 28.018 124.312 26.3956C124.312 25.5351 124.024 24.9548 123.2 24.6311C122.478 24.3469 121.539 24.3035 120.743 24.2956H120.747ZM105.18 23.5771C105.18 24.7693 105.488 26.0482 106.19 27.0272C106.852 27.9509 107.783 28.4799 108.931 28.4799C110.078 28.4799 110.942 27.943 111.569 27.0193C112.236 26.0325 112.52 24.7416 112.52 23.5614C112.52 21.3705 111.451 18.9192 108.931 18.9192C106.41 18.9192 105.18 21.3034 105.18 23.5811V23.5771ZM249.121 18.9981H245.962V22.7324H246.605C247.042 22.7324 247.48 22.7245 247.918 22.7008C248.233 22.6811 248.549 22.6534 248.861 22.6219L249.424 22.5666L249.535 23.6127V24.2956H245.958V28.3259C245.958 28.3496 245.958 28.3733 245.958 28.4009C245.978 28.4009 246.001 28.4009 246.017 28.4009H249.697L250.588 25.9535H251.996V29.9602H242.44V28.397H243.185V19.0731C243.185 19.0494 243.185 19.0257 243.185 18.9981C243.166 18.9981 243.142 18.9981 243.126 18.9981H241.86V17.4507H251.416V21.4574H250.028L249.121 18.9942V18.9981ZM236.974 18.9981C236.954 18.9981 236.93 18.9981 236.914 18.9981H235.648V17.4507H240.495V18.9981H239.75V28.322C239.75 28.3457 239.75 28.3693 239.75 28.397C239.77 28.397 239.79 28.397 239.809 28.397H241.075V29.9602H236.228V28.397H236.974V19.0731C236.974 19.0494 236.974 19.0257 236.974 18.9981ZM230.155 18.9981V22.7324H231.606C232.572 22.7324 233.609 22.8587 234.501 23.2495C235.794 23.8179 236.512 24.8561 236.512 26.2811C236.512 27.4299 236.063 28.4325 235.132 29.1233C234.138 29.8654 232.817 30.0904 231.602 30.0904C231.176 30.0904 230.746 30.0825 230.32 30.0549C229.977 30.0312 229.634 29.9957 229.291 29.9602H226.633V28.397H227.378V19.0731C227.378 19.0494 227.378 19.0257 227.378 18.9981C227.358 18.9981 227.335 18.9981 227.319 18.9981H226.053V17.4507H230.9V18.9981H230.155ZM223.016 23.3166C224.183 23.9087 224.85 24.9114 224.85 26.2851C224.85 27.4338 224.4 28.4365 223.47 29.1273C222.476 29.8694 221.155 30.0944 219.94 30.0944C219.514 30.0944 219.084 30.0865 218.658 30.0589C218.315 30.0352 217.968 29.9996 217.629 29.9641H214.971V28.4009H215.716V19.0771C215.716 19.0534 215.716 19.0297 215.716 19.002C215.696 19.002 215.673 19.002 215.657 19.002H214.391V17.4547H217.617C217.921 17.4073 218.228 17.3639 218.536 17.3402C218.863 17.3125 219.194 17.3086 219.522 17.3086C220.551 17.3086 221.679 17.4862 222.586 17.9994C223.623 18.5876 224.187 19.531 224.187 20.7271C224.187 21.7771 223.813 22.6732 223.02 23.3166H223.016ZM200.165 23.66C200.165 21.9824 200.772 20.3679 201.96 19.1718C203.218 17.9047 204.91 17.3086 206.676 17.3086C208.443 17.3086 210.088 17.8889 211.315 19.1599C212.458 20.3442 213.022 21.9311 213.022 23.5653C213.022 25.1995 212.446 26.8812 211.315 28.1207C210.104 29.4391 208.455 30.0944 206.676 30.0944C204.898 30.0944 203.19 29.4786 201.936 28.1799C200.765 26.968 200.165 25.3377 200.165 23.66ZM195.921 18.9981H194.51V28.322C194.51 28.3457 194.51 28.3693 194.51 28.397C194.529 28.397 194.553 28.397 194.569 28.397H195.835V29.9602H191.003V28.397H191.749V18.9942H190.325L189.434 21.4574H188.042V17.4507H198.213V21.4574H196.825L195.917 18.9942L195.921 18.9981ZM183.545 17.731L184.216 17.4507H185.352V21.4574H183.948L183.25 19.5863C182.619 19.1205 181.869 18.9152 181.088 18.9152C178.513 18.9152 177.338 21.2797 177.338 23.5771C177.338 25.8746 178.679 28.2865 181.25 28.2865C182.398 28.2865 183.53 28.018 184.386 27.2127L184.8 26.8219L185.88 27.9628L185.486 28.3575C184.311 29.5338 182.733 30.0944 181.084 30.0944C179.294 30.0944 177.594 29.4825 176.34 28.1799C175.173 26.9641 174.577 25.3377 174.577 23.66C174.577 21.9824 175.176 20.3679 176.364 19.1718C177.622 17.9007 179.318 17.3086 181.084 17.3086C181.925 17.3086 182.749 17.4428 183.538 17.7349L183.545 17.731ZM159.779 23.66C159.779 21.9824 160.387 20.3679 161.574 19.1718C162.828 17.9047 164.524 17.3086 166.291 17.3086C168.058 17.3086 169.702 17.8889 170.929 19.1599C172.073 20.3442 172.637 21.9311 172.637 23.5653C172.637 25.1995 172.061 26.8812 170.925 28.1207C169.718 29.4391 168.066 30.0944 166.287 30.0944C164.508 30.0944 162.8 29.4786 161.546 28.1799C160.375 26.968 159.776 25.3377 159.776 23.66H159.779ZM146.134 28.4009C146.153 28.4009 146.173 28.4009 146.193 28.4009H147.459V29.9641H143.696V28.5825L144.442 28.2904V19.0771C144.442 19.0534 144.442 19.0297 144.442 19.002C144.422 19.002 144.398 19.002 144.382 19.002H143.116V17.4547H147.415L150.835 26.6206L154.211 17.4547H157.831V19.002H157.086V28.3259C157.086 28.3496 157.086 28.3733 157.086 28.4009C157.105 28.4009 157.129 28.4009 157.145 28.4009H158.411V29.9641H153.58V28.4009H154.29V22.0218L151.552 29.4588L149.285 30.3707L146.126 21.864V28.3259C146.126 28.3496 146.126 28.3733 146.126 28.4009H146.134ZM128.895 23.66C128.895 21.9824 129.502 20.3679 130.689 19.1718C131.943 17.9047 133.639 17.3086 135.406 17.3086C137.173 17.3086 138.818 17.8889 140.044 19.1599C141.188 20.3442 141.752 21.9311 141.752 23.5653C141.752 25.1995 141.176 26.8812 140.044 28.1207C138.833 29.4391 137.185 30.0944 135.406 30.0944C133.627 30.0944 131.92 29.4786 130.666 28.1799C129.494 26.9641 128.895 25.3377 128.895 23.66ZM125.274 23.3166C126.446 23.9087 127.108 24.9114 127.108 26.2851C127.108 27.4338 126.659 28.4365 125.728 29.1273C124.734 29.8694 123.413 30.0944 122.198 30.0944C121.772 30.0944 121.342 30.0865 120.916 30.0589C120.573 30.0352 120.23 29.9996 119.887 29.9641H117.225V28.4009H117.97V19.0771C117.97 19.0534 117.97 19.0297 117.97 19.002C117.95 19.002 117.927 19.002 117.911 19.002H116.645V17.4547H119.871C120.175 17.4073 120.482 17.3639 120.79 17.3402C121.117 17.3125 121.449 17.3086 121.776 17.3086C122.805 17.3086 123.937 17.4862 124.84 17.9994C125.878 18.5876 126.442 19.531 126.442 20.7271C126.442 21.7771 126.067 22.6732 125.27 23.3166H125.274ZM102.423 23.66C102.423 21.9824 103.031 20.3679 104.218 19.1718C105.476 17.9047 107.168 17.3086 108.935 17.3086C110.701 17.3086 112.346 17.8889 113.573 19.1599C114.716 20.3442 115.28 21.9311 115.28 23.5653C115.28 25.1995 114.705 26.8812 113.569 28.1207C112.362 29.4391 110.709 30.0944 108.931 30.0944C107.152 30.0944 105.444 29.4786 104.19 28.1799C103.019 26.968 102.419 25.3377 102.419 23.66H102.423ZM92.5279 18.9981V22.7324H96.953V19.0771C96.953 19.0534 96.953 19.0297 96.953 19.002C96.9333 19.002 96.9096 19.002 96.8938 19.002H95.6278V17.4547H100.475V19.002H99.7295V28.3259C99.7295 28.3496 99.7295 28.3733 99.7295 28.4009C99.7492 28.4009 99.7729 28.4009 99.7887 28.4009H101.055V29.9641H96.2076V28.4009H96.953V24.2956H92.5279V28.3259C92.5279 28.3496 92.5279 28.3733 92.5279 28.4009C92.5477 28.4009 92.5713 28.4009 92.5871 28.4009H93.8531V29.9641H89.006V28.4009H89.7514V19.0771C89.7514 19.0534 89.7514 19.0297 89.7514 19.002C89.7317 19.002 89.708 19.002 89.6923 19.002H88.4263V17.4547H93.2733V19.002H92.5279V18.9981Z" fill="#5281A1"/>
<path fill-rule="evenodd" clip-rule="evenodd" d="M103.756 41.8952H106.825L105.275 37.7148M92.5279 40.6438V44.6623C92.5279 44.686 92.5279 44.7413 92.516 44.7492C92.6817 44.8242 93.2141 44.8202 93.4271 44.8202C94.8429 44.8202 96.0892 44.3584 96.0892 42.7399C96.0892 41.8794 95.8013 41.3031 94.977 40.9794C94.2553 40.6952 93.3206 40.6517 92.5279 40.6438ZM137.65 44.7413C137.67 44.7413 137.69 44.7413 137.709 44.7413H138.975V46.3045H134.12V44.7413H134.862V38.8083L130.287 45.8387L128.149 46.6953L127.692 45.6216V35.4293C127.692 35.4056 127.692 35.3819 127.692 35.3543C127.672 35.3543 127.652 35.3543 127.633 35.3543H126.367V33.8108H131.206V35.3543H130.464V42.6176L134.866 35.8753V33.8108H138.396V35.3543H137.654V44.6623C137.654 44.686 137.654 44.7097 137.654 44.7373L137.65 44.7413ZM117.067 44.7413C117.087 44.7413 117.106 44.7413 117.126 44.7413H118.392V46.3045H113.553V44.7413H114.294V35.4332C114.294 35.4095 114.294 35.3858 114.294 35.3582C114.275 35.3582 114.255 35.3582 114.235 35.3582H112.969V33.8148H117.808V35.3582H117.067V39.0846H121.484V35.4332C121.484 35.4095 121.484 35.3858 121.484 35.3582C121.464 35.3582 121.445 35.3582 121.425 35.3582H120.159V33.8148H124.998V35.3582H124.253V44.6663C124.253 44.69 124.253 44.7137 124.253 44.7413C124.272 44.7413 124.296 44.7413 124.312 44.7413H125.578V46.3045H120.739V44.7413H121.48V40.6438H117.063V44.6663C117.063 44.69 117.063 44.7137 117.063 44.7413H117.067ZM101.074 44.536L104.419 35.4095L104.032 34.4187L106.572 33.4121L110.686 44.4729C110.705 44.5321 110.749 44.6623 110.784 44.7373C110.832 44.7413 110.891 44.7413 110.926 44.7413H112.192V46.3045H107.353V44.7413H107.878L107.396 43.4426H103.196L102.711 44.7413C102.711 44.7413 102.75 44.7413 102.766 44.7413H103.819V46.3045H100.077V44.9229L101.07 44.536H101.074ZM95.679 35.3582H92.5279V39.0846H93.9792C94.9455 39.0846 95.9827 39.2109 96.8701 39.6017C98.1598 40.1701 98.8776 41.2083 98.8776 42.6294C98.8776 43.7781 98.4279 44.7768 97.5011 45.4676C96.5073 46.2058 95.19 46.4347 93.9792 46.4347C93.5533 46.4347 93.1273 46.4269 92.7014 46.3992C92.3583 46.3755 92.0152 46.34 91.672 46.3045H89.0138V44.7413H89.7592V35.4332C89.7592 35.4095 89.7592 35.3858 89.7592 35.3582C89.7395 35.3582 89.7198 35.3582 89.7001 35.3582H88.4341V33.8148H97.9744V37.8175H96.5861L95.679 35.3582Z" fill="#5281A1"/>
<path fill-rule="evenodd" clip-rule="evenodd" d="M2.3547 27.9512C2.3547 28.9617 2.89502 30.1144 4.04269 30.1144C5.19037 30.1144 5.66364 28.9301 5.66364 27.9472C5.66364 26.9643 5.16276 25.8906 4.04269 25.8906C2.92262 25.8906 2.3547 26.9288 2.3547 27.9512ZM14.4152 30.0591C14.4152 29.8341 14.6005 29.6407 14.8293 29.6407C15.058 29.6407 15.2473 29.8341 15.2473 30.0591C15.2473 30.2841 15.0541 30.4736 14.8293 30.4736C14.6045 30.4736 14.4152 30.2881 14.4152 30.0591ZM11.3981 28.6222H12.6759V27.8722C12.6759 27.7025 12.6759 27.6946 12.5024 27.6946H12.1948V27.3354H12.2815C12.6404 27.3354 12.9993 27.3235 13.3582 27.288L13.445 27.2801L13.4726 27.5564V29.9012C13.4726 30.0709 13.4726 30.0788 13.6461 30.0788H13.9656V30.4262H12.3683V30.0788H12.6759V28.9735H11.3981V29.8973C11.3981 30.067 11.3981 30.0749 11.5716 30.0749H11.8911V30.4223H10.2938V30.0749H10.5975V27.8683C10.5975 27.6985 10.5975 27.6906 10.4239 27.6906H10.1163V27.3314H10.2031C10.562 27.3314 10.9209 27.3196 11.2758 27.284L11.3626 27.2761L11.3902 27.5525V28.6222H11.3981ZM9.28415 27.3748L9.38669 27.3314H9.67854V28.338H9.35908L9.17372 27.8327C9.01202 27.6748 8.81482 27.6117 8.59002 27.6117C7.95111 27.6117 7.78152 28.342 7.78152 28.8551C7.78152 29.3683 8.04576 30.0394 8.65707 30.0394C9.00413 30.0394 9.2802 29.9604 9.53656 29.7236L9.59966 29.6644L9.84024 29.9209L9.78108 29.9801C9.46162 30.3117 9.04751 30.4736 8.59002 30.4736C7.67109 30.4736 6.96907 29.7749 6.96907 28.8551C6.96907 27.9354 7.64348 27.2446 8.59002 27.2446C8.82666 27.2446 9.07118 27.284 9.28809 27.3748H9.28415ZM1.51465 27.9827C1.51465 26.5419 2.61106 25.5195 4.03875 25.5195C5.46644 25.5195 6.49975 26.5182 6.49975 27.9433C6.49975 29.3683 5.48222 30.4775 4.03875 30.4775C2.59528 30.4775 1.51465 29.4275 1.51465 27.9827Z" fill="#5281A1"/>
<path fill-rule="evenodd" clip-rule="evenodd" d="M12.8059 34.0312C12.9163 33.7628 12.9991 33.4746 12.9991 33.1825C12.9991 32.6772 12.6678 32.172 12.1236 32.172C11.5793 32.172 11.248 32.6812 11.248 33.1825C11.248 33.7786 11.6819 34.1654 12.2577 34.1654C12.4628 34.1654 12.6323 34.126 12.8059 34.0312ZM4.8234 34.0312C4.93383 33.7628 5.01665 33.4746 5.01665 33.1825C5.01665 32.6772 4.68536 32.172 4.1411 32.172C3.59684 32.172 3.26556 32.6812 3.26556 33.1825C3.26556 33.7786 3.69939 34.1654 4.2752 34.1654C4.48028 34.1654 4.64987 34.126 4.8234 34.0312ZM12.5968 34.4852C12.443 34.5286 12.2813 34.5444 12.1236 34.5444C11.3387 34.5444 10.4237 34.0588 10.4237 33.1786C10.4237 32.2983 11.3427 31.8127 12.1236 31.8127C12.9045 31.8127 13.8195 32.3022 13.8195 33.1786C13.8195 34.0549 13.1096 35.1404 12.6363 35.8668L12.2577 36.4471L11.4768 36.7786L11.3427 36.4707L11.9737 35.5076C12.1827 35.1878 12.4194 34.8365 12.6008 34.4852H12.5968ZM7.55653 32.2035V34.0312H8.07318C8.88563 34.0312 9.68624 34.497 9.68624 35.3891C9.68624 36.2813 8.71998 36.7589 7.9312 36.7589C7.46582 36.7589 7.17397 36.7076 6.7362 36.5418L6.66126 36.5142L6.75986 36.1747L6.84268 36.1984C7.20947 36.3089 7.47371 36.3681 7.86021 36.3681C8.40841 36.3681 8.85802 35.9378 8.85802 35.3891C8.85802 34.6589 8.25854 34.3786 7.60386 34.3786H6.73225V31.8641H8.38869C8.71209 31.8641 9.01183 31.8483 9.33129 31.8167L9.41805 31.8088L9.4496 32.0851V32.2035H7.55653ZM4.61437 34.4852C4.46056 34.5286 4.29886 34.5444 4.1411 34.5444C3.35627 34.5444 2.43734 34.0588 2.43734 33.1786C2.43734 32.2983 3.35627 31.8127 4.1411 31.8127C4.92594 31.8127 5.83698 32.3022 5.83698 33.1786C5.83698 34.0549 5.12708 35.1404 4.65381 35.8668L4.2752 36.4471L3.4943 36.7786L3.36415 36.4707L3.99518 35.5076C4.20421 35.1878 4.44084 34.8365 4.62226 34.4852H4.61437ZM0.512708 32.4799L0.149869 32.6299L0 32.2825L1.19106 31.7891L1.31332 32.0693V36.6957L0.544259 36.755L0.512708 36.4865V32.472V32.4799Z" fill="#5281A1"/>
</g>
<defs>
<clipPath id="clip0_4003_119">
<rect width="252" height="64" fill="white"/>
</clipPath>
</defs>
</svg>
