<svg width="146" height="248" viewBox="0 0 146 248" fill="none" xmlns="http://www.w3.org/2000/svg">
<path d="M145.702 0.628174H0.4375V247.117H145.702V0.628174Z" fill="#D9DADA"/>
<path d="M46.9121 144.413V174.207V200.706H73.4115H103.205V174.207H73.4115V144.413H46.9121Z" stroke="#FEFEFE" stroke-width="0.35" stroke-miterlimit="10"/>
<path d="M32.4236 214.987H5.46875V188.534H32.4236V214.987Z" fill="#FBCB8E" stroke="#2B2A29" stroke-width="0.4999" stroke-miterlimit="10" stroke-linecap="round" stroke-linejoin="round"/>
<path fill-rule="evenodd" clip-rule="evenodd" d="M6.0625 214.266V188.996H14.5749C22.0465 188.991 20.6923 213.791 29.0464 214.266H6.0625V214.266Z" fill="#9D9E9E"/>
<path d="M14.4537 214.987H5.46875V188.535H14.4537C14.4537 188.535 16.6104 194.278 16.6104 201.761C16.6104 209.244 14.4537 214.987 14.4537 214.987V214.987Z" stroke="#2B2A29" stroke-width="0.4999" stroke-miterlimit="10" stroke-linecap="round" stroke-linejoin="round"/>
<path d="M32.4236 188.535H5.46875V162.082H32.4236V188.535Z" fill="#FBCB8E" stroke="#2B2A29" stroke-width="0.4999" stroke-miterlimit="10" stroke-linecap="round" stroke-linejoin="round"/>
<path fill-rule="evenodd" clip-rule="evenodd" d="M5.78125 187.845V162.575H14.2936C21.7652 162.57 20.4111 187.37 28.7651 187.845H5.78125V187.845Z" fill="#9D9E9E"/>
<path d="M14.4537 188.534H5.46875V162.082H14.4537C14.4537 162.082 16.6104 167.825 16.6104 175.308C16.6104 182.791 14.4537 188.534 14.4537 188.534V188.534Z" stroke="#2B2A29" stroke-width="0.4999" stroke-miterlimit="10" stroke-linecap="round" stroke-linejoin="round"/>
<path d="M32.4236 162.082H5.46875V135.631H32.4236V162.082Z" fill="#FBCB8E" stroke="#2B2A29" stroke-width="0.4999" stroke-miterlimit="10" stroke-linecap="round" stroke-linejoin="round"/>
<path fill-rule="evenodd" clip-rule="evenodd" d="M5.98242 161.385V136.115H14.4948C21.9664 136.11 20.6122 160.909 28.9663 161.385H5.98242V161.385Z" fill="#9D9E9E"/>
<path d="M14.4537 162.082H5.46875V135.63H14.4537C14.4537 135.63 16.6104 141.373 16.6104 148.856C16.6104 156.338 14.4537 162.082 14.4537 162.082V162.082Z" stroke="#2B2A29" stroke-width="0.4999" stroke-miterlimit="10" stroke-linecap="round" stroke-linejoin="round"/>
<path d="M32.4236 112.448V135.63H5.46875V109.178H29.1529C30.9592 109.178 32.4236 110.642 32.4236 112.448V112.448Z" fill="#FBCB8E"/>
<path d="M32.4236 112.448V135.63H5.46875V109.178H29.1529C30.9592 109.178 32.4236 110.642 32.4236 112.448V112.448Z" stroke="#2B2A29" stroke-width="0.4999" stroke-miterlimit="10" stroke-linecap="round" stroke-linejoin="round"/>
<path fill-rule="evenodd" clip-rule="evenodd" d="M6.08398 134.944V109.674H14.5963C22.068 109.669 20.7138 134.468 29.0678 134.944H6.08398V134.944Z" fill="#9D9E9E"/>
<path d="M14.4537 135.63H5.46875V109.178H14.4537C14.4537 109.178 16.6104 114.921 16.6104 122.404C16.6104 129.887 14.4537 135.63 14.4537 135.63V135.63Z" stroke="#2B2A29" stroke-width="0.4999" stroke-miterlimit="10" stroke-linecap="round" stroke-linejoin="round"/>
<path d="M32.4236 241.439H5.46875V214.987H32.4236V241.439Z" fill="#FBCB8E" stroke="#2B2A29" stroke-width="0.4999" stroke-miterlimit="10" stroke-linecap="round" stroke-linejoin="round"/>
<path d="M14.4537 241.439H5.46988H5.46875V214.987H14.4537C14.4537 214.987 16.6104 220.73 16.6104 228.213C16.6104 229.026 16.5811 229.812 16.5361 230.578C17.3171 230.533 18.1185 230.505 18.9462 230.505C26.572 230.505 32.4247 232.622 32.4247 232.622V241.439H14.4537Z" stroke="#2B2A29" stroke-width="0.4999" stroke-miterlimit="10" stroke-linecap="round" stroke-linejoin="round"/>
<path d="M33.1582 214.457V241.412H59.6112V214.457H33.1582Z" fill="#FBCB8E" stroke="#2B2A29" stroke-width="0.4999" stroke-miterlimit="10" stroke-linecap="round" stroke-linejoin="round"/>
<path d="M33.1582 232.427V241.412H59.6109V232.427C59.6109 232.427 53.8676 230.271 46.3841 230.271C38.9015 230.271 33.1582 232.427 33.1582 232.427V232.427Z" stroke="#2B2A29" stroke-width="0.4999" stroke-miterlimit="10" stroke-linecap="round" stroke-linejoin="round"/>
<path d="M59.6133 214.457V241.412H86.066V214.457H59.6133Z" fill="#FBCB8E" stroke="#2B2A29" stroke-width="0.4999" stroke-miterlimit="10" stroke-linecap="round" stroke-linejoin="round"/>
<path d="M59.6133 232.427V241.412H86.066V232.427C86.066 232.427 80.3227 230.271 72.8392 230.271C65.3566 230.271 59.6133 232.427 59.6133 232.427V232.427Z" stroke="#2B2A29" stroke-width="0.4999" stroke-miterlimit="10" stroke-linecap="round" stroke-linejoin="round"/>
<path d="M86.0664 214.457V241.412H112.518V214.457H86.0664Z" fill="#FBCB8E" stroke="#2B2A29" stroke-width="0.4999" stroke-miterlimit="10" stroke-linecap="round" stroke-linejoin="round"/>
<path d="M86.0664 232.427V241.412H112.518V232.427C112.518 232.427 106.775 230.271 99.2923 230.271C91.8097 230.271 86.0664 232.427 86.0664 232.427V232.427Z" stroke="#2B2A29" stroke-width="0.4999" stroke-miterlimit="10" stroke-linecap="round" stroke-linejoin="round"/>
<path d="M135.696 214.457H112.514V241.412H138.966V217.727C138.966 215.921 137.502 214.457 135.696 214.457V214.457Z" fill="#FBCB8E"/>
<path d="M135.696 214.457H112.514V241.412H138.966V217.727C138.966 215.921 137.502 214.457 135.696 214.457V214.457Z" stroke="#2B2A29" stroke-width="0.4999" stroke-miterlimit="10" stroke-linecap="round" stroke-linejoin="round"/>
<path d="M112.514 232.427V241.412H138.966V232.427C138.966 232.427 133.223 230.271 125.74 230.271C118.257 230.271 112.514 232.427 112.514 232.427V232.427Z" stroke="#2B2A29" stroke-width="0.4999" stroke-miterlimit="10" stroke-linecap="round" stroke-linejoin="round"/>
<path d="M60.7192 188.572H59.3678V183.28L58.0469 183.788V182.663L60.5755 181.633H60.7192V188.572ZM66.5697 183.484C66.5697 183.819 66.4979 184.117 66.3569 184.377C66.2132 184.639 66.017 184.847 65.7655 185.001C66.0502 185.164 66.2768 185.385 66.4426 185.67C66.6056 185.955 66.6886 186.289 66.6886 186.673C66.6886 187.29 66.5117 187.773 66.1552 188.13C65.7987 188.486 65.315 188.666 64.7043 188.666C64.0935 188.666 63.6072 188.486 63.2452 188.13C62.8831 187.773 62.7007 187.29 62.7007 186.673C62.7007 186.289 62.7836 185.952 62.9494 185.667C63.1125 185.383 63.3391 185.159 63.6293 185.001C63.3751 184.847 63.1761 184.639 63.0351 184.377C62.8914 184.117 62.8196 183.819 62.8196 183.484C62.8196 182.879 62.9881 182.404 63.3281 182.061C63.668 181.718 64.124 181.547 64.696 181.547C65.2736 181.547 65.7296 181.718 66.0668 182.064C66.4011 182.409 66.5697 182.884 66.5697 183.484V183.484ZM64.7043 187.549C64.906 187.549 65.0636 187.464 65.1741 187.29C65.2819 187.115 65.3372 186.875 65.3372 186.568C65.3372 186.262 65.2791 186.018 65.1658 185.844C65.0525 185.67 64.895 185.582 64.696 185.582C64.4943 185.582 64.3367 185.67 64.2207 185.844C64.1046 186.018 64.0466 186.262 64.0466 186.568C64.0466 186.875 64.1046 187.115 64.2207 187.29C64.3367 187.464 64.497 187.549 64.7043 187.549ZM65.2266 183.553C65.2266 183.285 65.1824 183.07 65.0968 182.907C65.0111 182.743 64.8757 182.663 64.696 182.663C64.5247 182.663 64.3948 182.741 64.3064 182.898C64.2152 183.056 64.171 183.274 64.171 183.553C64.171 183.827 64.2152 184.048 64.3064 184.214C64.3948 184.38 64.5274 184.462 64.7043 184.462C64.8812 184.462 65.0138 184.38 65.0995 184.214C65.1852 184.048 65.2266 183.827 65.2266 183.553Z" fill="#006672"/>
</svg>
