<?xml version="1.0" encoding="UTF-8"?>
<!DOCTYPE svg PUBLIC "-//W3C//DTD SVG 1.1//EN" "http://www.w3.org/Graphics/SVG/1.1/DTD/svg11.dtd">
<!-- Creator: CorelDRAW 2019 -->
<svg xmlns="http://www.w3.org/2000/svg" xml:space="preserve" width="13.2593mm" height="13.277mm" version="1.1" style="shape-rendering:geometricPrecision; text-rendering:geometricPrecision; image-rendering:optimizeQuality; fill-rule:evenodd; clip-rule:evenodd"
viewBox="0 0 47.51 47.58"
 xmlns:xlink="http://www.w3.org/1999/xlink"
 xmlns:xodm="http://www.corel.com/coreldraw/odm/2003">
 <defs>
  <style type="text/css">
   <![CDATA[
    .str0 {stroke:#2B2A29;stroke-width:1.79;stroke-linecap:round;stroke-linejoin:round;stroke-miterlimit:22.9256}
    .fil3 {fill:none}
    .fil1 {fill:none;fill-rule:nonzero}
    .fil0 {fill:#FBCB8E;fill-rule:nonzero}
    .fil2 {fill:url(#id0)}
   ]]>
  </style>
  <linearGradient id="id0" gradientUnits="userSpaceOnUse" x1="11.1" y1="0.9" x2="11.1" y2="46.62">
   <stop offset="0" style="stop-opacity:1; stop-color:#FEF0DE"/>
   <stop offset="1" style="stop-opacity:1; stop-color:#FBCB8E"/>
  </linearGradient>
 </defs>
 <g id="Слой_x0020_1_0">
  <metadata id="CorelCorpID_0Corel-Layer"/>
  <path class="fil0" d="M45.89 41.14l0 -34.52c0,-3.09 -2.51,-5.6 -5.6,-5.6l-40.12 0 0 45.72 40.12 0c3.09,0 5.6,-2.51 5.6,-5.6z"/>
  <path class="fil1 str0" d="M46.62 41.08l0 -34.52c0,-3.09 -2.51,-5.6 -5.6,-5.6l-40.12 0 0 45.72 40.12 0c3.09,0 5.6,-2.51 5.6,-5.6z"/>
  <path class="fil2" d="M1.65 46.62l15.24 0c0,0 3.66,-9.93 3.66,-22.86l0 0c0,-12.93 -3.66,-22.86 -3.66,-22.86l0 0 -15.24 0 0 45.72z"/>
  <path class="fil3 str0" d="M16.14 0.9l-15.24 0 0 45.72 15.24 0c0,0 3.66,-9.93 3.66,-22.86 0,-12.93 -3.66,-22.86 -3.66,-22.86z"/>
 </g>
</svg>
