<svg width="133" height="166" viewBox="0 0 133 166" fill="none" xmlns="http://www.w3.org/2000/svg">
<path fill-rule="evenodd" clip-rule="evenodd" d="M0.600586 138.376L0.806235 0.580566L132.958 1.93472V165.8H42.3735L0.600586 138.376Z" fill="#D9DADA"/>
<path d="M101.601 32.2227H128.554V58.6756H101.601V32.2227Z" stroke="#FEFEFE" stroke-width="0.35" stroke-miterlimit="10"/>
<path d="M119.572 32.2219H128.557V58.6746H119.572C119.572 58.6746 117.416 52.9314 117.416 45.4479C117.416 37.9652 119.572 32.2219 119.572 32.2219Z" stroke="#FEFEFE" stroke-width="0.35" stroke-miterlimit="10"/>
<path d="M101.601 58.6743H128.554V85.127H101.601V58.6743Z" stroke="#FEFEFE" stroke-width="0.35" stroke-miterlimit="10"/>
<path d="M119.572 58.675H128.557V85.1278H119.572C119.572 85.1278 117.416 79.3845 117.416 71.901C117.416 64.4183 119.572 58.675 119.572 58.675Z" stroke="#FEFEFE" stroke-width="0.35" stroke-miterlimit="10"/>
<path d="M101.601 85.1267H128.554V111.579H101.601V85.1267Z" stroke="#FEFEFE" stroke-width="0.35" stroke-miterlimit="10"/>
<path d="M119.572 85.1274H128.557V111.579H119.572C119.572 111.579 117.416 105.836 117.416 98.3534C117.416 90.8707 119.572 85.1274 119.572 85.1274Z" stroke="#FEFEFE" stroke-width="0.35" stroke-miterlimit="10"/>
<path d="M101.601 134.761V111.579H128.555V138.031H104.871C103.065 138.031 101.601 136.568 101.601 134.761Z" stroke="#FEFEFE" stroke-width="0.35" stroke-miterlimit="10"/>
<path d="M119.572 111.579H128.557V138.032H119.572C119.572 138.032 117.416 132.289 117.416 124.805C117.416 117.322 119.572 111.579 119.572 111.579Z" stroke="#FEFEFE" stroke-width="0.35" stroke-miterlimit="10"/>
<path d="M61.8633 101.753H88.3626V45.4609H61.8633V101.753Z" stroke="#FEFEFE" stroke-width="0.35" stroke-miterlimit="10"/>
<path d="M74.877 32.3725H101.377V5.9209H74.877V32.3725Z" stroke="#FEFEFE" stroke-width="0.35" stroke-miterlimit="10"/>
<path fill-rule="evenodd" clip-rule="evenodd" d="M100.882 6.74658H75.2715V15.5074C75.2668 23.197 100.4 21.8031 100.882 30.4011V6.74658Z" fill="#9D9E9E"/>
<path d="M101.377 14.7374V5.92017H74.877V14.7374C74.877 14.7374 80.6309 16.854 88.1271 16.854C95.6245 16.854 101.377 14.7374 101.377 14.7374Z" stroke="#FEFEFE" stroke-width="0.35" stroke-miterlimit="10"/>
<path d="M51.6235 32.372H74.8796V5.92017H48.3799V29.1295C48.3799 30.9203 49.8316 32.372 51.6235 32.372Z" stroke="#FEFEFE" stroke-width="0.35" stroke-miterlimit="10"/>
<path fill-rule="evenodd" clip-rule="evenodd" d="M74.4597 6.38159H48.8496V15.1424C48.8449 22.8321 73.9777 21.4381 74.4597 30.0361V6.38159Z" fill="#9D9E9E"/>
<path fill-rule="evenodd" clip-rule="evenodd" d="M123.494 31.6846V10.5972H102.006V14.0503C102.006 18.6862 106.975 21.531 110.017 21.531C110.845 21.531 111.647 21.5017 112.429 21.4567C112.383 22.2241 112.353 23.0098 112.353 23.8228C112.353 26.808 113.169 31.6846 119.976 31.6846H123.494V31.6846Z" fill="url(#paint0_linear_44_2188)" fill-opacity="0.501961"/>
<path d="M119.295 5.77026H128.28V32.2221H119.295C119.295 32.2221 117.139 26.4789 117.139 18.9962C117.139 18.1832 117.168 17.3972 117.213 16.6309C116.432 16.6759 115.63 16.7041 114.803 16.7041C107.177 16.7041 101.325 14.5875 101.325 14.5875V5.77026H119.295Z" stroke="#FEFEFE" stroke-width="0.35" stroke-miterlimit="10"/>
<path d="M74.9177 14.7374V5.92017H48.418V14.7374C48.418 14.7374 54.172 16.854 61.6682 16.854C69.1656 16.854 74.9177 14.7374 74.9177 14.7374Z" stroke="#FEFEFE" stroke-width="0.35" stroke-miterlimit="10"/>
<path d="M74.1928 79.6515H70.1082V78.698L71.982 76.3131C72.2224 75.9842 72.3964 75.694 72.5098 75.4453C72.6231 75.1966 72.6784 74.9589 72.6784 74.7295C72.6784 74.4228 72.6258 74.1796 72.5181 74.0055C72.4103 73.8314 72.2584 73.7429 72.0594 73.7429C71.841 73.7429 71.6669 73.8452 71.5398 74.0469C71.4099 74.2514 71.3463 74.5389 71.3463 74.9064H69.9922C69.9922 74.4808 70.0806 74.0912 70.2574 73.7374C70.4343 73.3865 70.6831 73.1129 71.0009 72.9166C71.3187 72.7232 71.6807 72.6265 72.0814 72.6265C72.7004 72.6265 73.1814 72.7978 73.5241 73.1377C73.864 73.4776 74.0353 73.964 74.0353 74.5914C74.0353 74.981 73.9413 75.379 73.7534 75.7797C73.5627 76.1804 73.22 76.6751 72.7253 77.261L71.8355 78.5322H74.1928V79.6515V79.6515Z" fill="#006672"/>
<path d="M79.2905 79.6515H75.2059V78.698L77.0796 76.3131C77.3201 75.9842 77.4941 75.694 77.6074 75.4453C77.7207 75.1966 77.776 74.9589 77.776 74.7295C77.776 74.4228 77.7235 74.1796 77.6157 74.0055C77.5079 73.8314 77.3559 73.7429 77.1569 73.7429C76.9386 73.7429 76.7646 73.8452 76.6375 74.0469C76.5076 74.2514 76.444 74.5389 76.444 74.9064H75.0898C75.0898 74.4808 75.1782 74.0912 75.3551 73.7374C75.532 73.3865 75.7807 73.1129 76.0986 72.9166C76.4164 72.7232 76.7783 72.6265 77.1791 72.6265C77.7981 72.6265 78.2789 72.7978 78.6216 73.1377C78.9615 73.4776 79.1329 73.964 79.1329 74.5914C79.1329 74.981 79.0389 75.379 78.851 75.7797C78.6603 76.1804 78.3177 76.6751 77.823 77.261L76.9331 78.5322H79.2905V79.6515V79.6515Z" fill="#006672"/>
<defs>
<linearGradient id="paint0_linear_44_2188" x1="105.784" y1="13.1113" x2="119.413" y2="29.4238" gradientUnits="userSpaceOnUse">
<stop stop-color="#9D9E9E"/>
<stop offset="1" stop-color="#B2B3B3"/>
</linearGradient>
</defs>
</svg>
