<svg width="147" height="247" viewBox="0 0 147 247" fill="none" xmlns="http://www.w3.org/2000/svg">
<path d="M146.222 0.493408H0.958008V246.982H146.222V0.493408Z" fill="#D9DADA"/>
<path d="M47.4336 144.278V174.072V200.571H73.933H103.726V174.072H73.933V144.278H47.4336Z" stroke="#FEFEFE" stroke-width="0.35" stroke-miterlimit="10"/>
<path d="M34.1958 111.053V134.309H7.74316V107.81H30.9522C32.7441 107.81 34.1958 109.262 34.1958 111.053Z" stroke="#FEFEFE" stroke-width="0.35" stroke-miterlimit="10"/>
<path d="M16.5606 134.309H7.74316V107.81H16.5606C16.5606 107.81 18.6769 113.564 18.6769 121.06C18.6769 128.557 16.5606 134.309 16.5606 134.309V134.309Z" stroke="#FEFEFE" stroke-width="0.35" stroke-miterlimit="10"/>
<path d="M34.1961 160.81H7.74316V134.309H34.1961V160.81Z" stroke="#FEFEFE" stroke-width="0.35" stroke-miterlimit="10"/>
<path d="M16.5606 160.81H7.74316V134.309H16.5606C16.5606 134.309 18.6769 140.063 18.6769 147.559C18.6769 155.056 16.5606 160.81 16.5606 160.81Z" stroke="#FEFEFE" stroke-width="0.35" stroke-miterlimit="10"/>
<path d="M34.1961 187.308H7.74316V160.809H34.1961V187.308Z" stroke="#FEFEFE" stroke-width="0.35" stroke-miterlimit="10"/>
<path fill-rule="evenodd" clip-rule="evenodd" d="M7.78809 186.793V161.183H17.638C26.2836 161.178 24.7166 186.311 34.3836 186.793H7.78809V186.793Z" fill="#9D9E9E"/>
<path d="M16.5606 187.309H7.74316V160.809H16.5606C16.5606 160.809 18.6769 166.563 18.6769 174.06C18.6769 181.557 16.5606 187.309 16.5606 187.309V187.309Z" stroke="#FEFEFE" stroke-width="0.35" stroke-miterlimit="10"/>
<path d="M34.1961 213.809H7.74316V187.308H34.1961V213.809Z" stroke="#FEFEFE" stroke-width="0.35" stroke-miterlimit="10"/>
<path fill-rule="evenodd" clip-rule="evenodd" d="M8.10156 213.308V187.698H17.3375C25.4439 187.694 23.9747 212.826 33.0387 213.308H8.10156V213.308Z" fill="#9D9E9E"/>
<path d="M16.5606 213.809H7.74316V187.309H16.5606C16.5606 187.309 18.6769 193.063 18.6769 200.559C18.6769 208.056 16.5606 213.809 16.5606 213.809Z" stroke="#FEFEFE" stroke-width="0.35" stroke-miterlimit="10"/>
<path d="M7.74316 231.778V240.763V240.764H34.1958V231.778C34.1958 231.778 28.4526 229.623 20.9691 229.623C20.1569 229.623 19.3701 229.651 18.6038 229.697C18.6485 228.916 18.6769 228.113 18.6769 227.286C18.6769 219.661 16.5603 213.808 16.5603 213.808H7.74316V231.778Z" stroke="#FEFEFE" stroke-width="0.35" stroke-miterlimit="10"/>
<path d="M60.6479 213.808H34.1963V240.763H60.6479V213.808Z" stroke="#FEFEFE" stroke-width="0.35" stroke-miterlimit="10"/>
<path d="M34.1963 231.778V240.764H60.6482V231.778C60.6482 231.778 54.9049 229.623 47.4214 229.623C39.9395 229.623 34.1963 231.778 34.1963 231.778Z" stroke="#FEFEFE" stroke-width="0.35" stroke-miterlimit="10"/>
<path d="M87.1001 213.808H60.6475V240.763H87.1001V213.808Z" stroke="#FEFEFE" stroke-width="0.35" stroke-miterlimit="10"/>
<path d="M60.6475 231.778V240.764H87.1001V231.778C87.1001 231.778 81.3569 229.623 73.8734 229.623C66.3907 229.623 60.6475 231.778 60.6475 231.778V231.778Z" stroke="#FEFEFE" stroke-width="0.35" stroke-miterlimit="10"/>
<path d="M113.551 213.808H87.0986V240.763H113.551V213.808Z" stroke="#FEFEFE" stroke-width="0.35" stroke-miterlimit="10"/>
<path d="M87.1016 231.778V240.764H113.554V231.778C113.554 231.778 107.811 229.623 100.327 229.623C92.8448 229.623 87.1016 231.778 87.1016 231.778V231.778Z" stroke="#FEFEFE" stroke-width="0.35" stroke-miterlimit="10"/>
<path d="M136.733 213.809H113.552V240.764H140.003V217.079C140.003 215.274 138.539 213.809 136.733 213.809Z" stroke="#FEFEFE" stroke-width="0.35" stroke-miterlimit="10"/>
<path d="M113.552 231.778V240.764H140.003V231.778C140.003 231.778 134.26 229.623 126.777 229.623C119.295 229.623 113.552 231.778 113.552 231.778Z" stroke="#FEFEFE" stroke-width="0.35" stroke-miterlimit="10"/>
<path d="M61.7222 189.572H60.3708V184.28L59.0498 184.788V183.663L61.5785 182.633H61.7222V189.572ZM67.5726 184.484C67.5726 184.819 67.5008 185.117 67.3599 185.377C67.2162 185.639 67.0199 185.847 66.7684 186.001C67.0531 186.164 67.2797 186.385 67.4455 186.67C67.6086 186.955 67.6915 187.289 67.6915 187.673C67.6915 188.29 67.5146 188.773 67.1581 189.13C66.8016 189.486 66.318 189.666 65.7072 189.666C65.0965 189.666 64.6101 189.486 64.2481 189.13C63.8861 188.773 63.7036 188.29 63.7036 187.673C63.7036 187.289 63.7865 186.952 63.9523 186.667C64.1154 186.383 64.3421 186.159 64.6322 186.001C64.378 185.847 64.179 185.639 64.0381 185.377C63.8944 185.117 63.8225 184.819 63.8225 184.484C63.8225 183.879 63.9911 183.404 64.331 183.061C64.6709 182.718 65.1269 182.547 65.699 182.547C66.2765 182.547 66.7325 182.718 67.0697 183.064C67.4041 183.409 67.5726 183.884 67.5726 184.484V184.484ZM65.7072 188.549C65.909 188.549 66.0665 188.464 66.177 188.29C66.2848 188.115 66.3401 187.875 66.3401 187.568C66.3401 187.262 66.2821 187.018 66.1688 186.844C66.0555 186.67 65.8979 186.582 65.699 186.582C65.4972 186.582 65.3397 186.67 65.2236 186.844C65.1075 187.018 65.0495 187.262 65.0495 187.568C65.0495 187.875 65.1075 188.115 65.2236 188.29C65.3397 188.464 65.5 188.549 65.7072 188.549ZM66.2295 184.553C66.2295 184.285 66.1854 184.07 66.0997 183.907C66.014 183.743 65.8786 183.663 65.699 183.663C65.5276 183.663 65.3977 183.741 65.3093 183.898C65.2181 184.056 65.1739 184.274 65.1739 184.553C65.1739 184.827 65.2181 185.048 65.3093 185.214C65.3977 185.38 65.5304 185.462 65.7072 185.462C65.8841 185.462 66.0168 185.38 66.1024 185.214C66.1881 185.048 66.2295 184.827 66.2295 184.553Z" fill="#006672"/>
</svg>
