<svg width="113" height="165" viewBox="0 0 113 165" fill="none" xmlns="http://www.w3.org/2000/svg">
<path fill-rule="evenodd" clip-rule="evenodd" d="M0.273438 164.715V0.849609H112.88L112.456 137.291L70.9605 164.715H0.273438Z" fill="#D9DADA"/>
<path d="M70.4614 99.8881H43.9609V43.5957H70.4614V99.8881Z" stroke="#FEFEFE" stroke-width="0.35" stroke-miterlimit="10"/>
<path d="M30.7243 56.8096V33.6014C30.7243 31.8095 29.2715 30.3569 27.4796 30.3569H3.76953V56.8096H30.7243Z" fill="#FBCB8E"/>
<path d="M30.7243 56.8096V33.6014C30.7243 31.8095 29.2715 30.3569 27.4796 30.3569H3.76953V56.8096H30.7243Z" stroke="#2B2A29" stroke-width="0.4999" stroke-miterlimit="10" stroke-linecap="round" stroke-linejoin="round"/>
<path fill-rule="evenodd" clip-rule="evenodd" d="M4.39062 56.2055V30.9351H12.903C20.3743 30.9304 19.0202 55.7299 27.3745 56.2055H4.39062V56.2055Z" fill="#9D9E9E"/>
<path d="M12.7553 30.3569H3.76953V56.8096H12.7553C12.7553 56.8096 14.912 51.0664 14.912 43.5829C14.912 36.1002 12.7553 30.3569 12.7553 30.3569Z" stroke="#2B2A29" stroke-width="0.4999" stroke-miterlimit="10" stroke-linecap="round" stroke-linejoin="round"/>
<path d="M30.7243 56.8091H3.76953V83.2618H30.7243V56.8091Z" fill="#FBCB8E" stroke="#2B2A29" stroke-width="0.4999" stroke-miterlimit="10" stroke-linecap="round" stroke-linejoin="round"/>
<path fill-rule="evenodd" clip-rule="evenodd" d="M4.50977 82.8422V57.5718H13.0222C20.4935 57.5671 19.1393 82.3666 27.4936 82.8422H4.50977V82.8422Z" fill="#9D9E9E"/>
<path d="M12.7553 56.8101H3.76953V83.2628H12.7553C12.7553 83.2628 14.912 77.5195 14.912 70.036C14.912 62.5533 12.7553 56.8101 12.7553 56.8101Z" stroke="#2B2A29" stroke-width="0.4999" stroke-miterlimit="10" stroke-linecap="round" stroke-linejoin="round"/>
<path d="M30.7243 83.2622H3.76953V109.714H30.7243V83.2622Z" fill="#FBCB8E" stroke="#2B2A29" stroke-width="0.4999" stroke-miterlimit="10" stroke-linecap="round" stroke-linejoin="round"/>
<path fill-rule="evenodd" clip-rule="evenodd" d="M4.12109 109.077V83.8066H12.6335C20.1048 83.8019 18.7506 108.601 27.1049 109.077H4.12109V109.077Z" fill="#9D9E9E"/>
<path d="M12.7553 83.2622H3.76953V109.714H12.7553C12.7553 109.714 14.912 103.971 14.912 96.4881C14.912 89.0055 12.7553 83.2622 12.7553 83.2622Z" stroke="#2B2A29" stroke-width="0.4999" stroke-miterlimit="10" stroke-linecap="round" stroke-linejoin="round"/>
<path d="M30.7243 132.896V109.714H3.76953V136.166H27.4545C29.26 136.166 30.7243 134.702 30.7243 132.896Z" fill="#FBCB8E"/>
<path d="M30.7243 132.896V109.714H3.76953V136.166H27.4545C29.26 136.166 30.7243 134.702 30.7243 132.896Z" stroke="#2B2A29" stroke-width="0.4999" stroke-miterlimit="10" stroke-linecap="round" stroke-linejoin="round"/>
<path fill-rule="evenodd" clip-rule="evenodd" d="M4.50391 135.61V110.34H13.0163C20.4876 110.335 19.1335 135.135 27.4878 135.61H4.50391V135.61Z" fill="#9D9E9E"/>
<path d="M12.7553 109.714H3.76953V136.167H12.7553C12.7553 136.167 14.912 130.423 14.912 122.94C14.912 115.457 12.7553 109.714 12.7553 109.714Z" stroke="#2B2A29" stroke-width="0.4999" stroke-miterlimit="10" stroke-linecap="round" stroke-linejoin="round"/>
<path d="M57.2271 30.3571H33.9713C32.1802 30.3571 30.7266 28.9054 30.7266 27.1135V3.90527H57.2271V30.3571Z" fill="#FBCB8E"/>
<path d="M57.2271 30.3571H33.9713C32.1802 30.3571 30.7266 28.9054 30.7266 27.1135V3.90527H57.2271V30.3571Z" stroke="#2B2A29" stroke-width="0.4999" stroke-miterlimit="10" stroke-linecap="round" stroke-linejoin="round"/>
<path fill-rule="evenodd" clip-rule="evenodd" d="M56.4989 4.77295H31.2285V13.2853C31.2238 20.7567 56.0233 19.4025 56.4989 27.7568V4.77295Z" fill="#9D9E9E"/>
<path d="M30.7266 12.723V3.90576H57.2271V12.723C57.2271 12.723 51.473 14.8396 43.9768 14.8396C36.4795 14.8396 30.7266 12.723 30.7266 12.723Z" stroke="#2B2A29" stroke-width="0.4999" stroke-miterlimit="10" stroke-linecap="round" stroke-linejoin="round"/>
<path d="M80.4788 30.3571H57.2227V3.90527H83.7213V27.1146C83.7213 28.9054 82.2696 30.3571 80.4788 30.3571V30.3571Z" fill="#FBCB8E"/>
<path d="M80.4788 30.3571H57.2227V3.90527H83.7213V27.1146C83.7213 28.9054 82.2696 30.3571 80.4788 30.3571V30.3571Z" stroke="#2B2A29" stroke-width="0.4999" stroke-miterlimit="10" stroke-linecap="round" stroke-linejoin="round"/>
<path fill-rule="evenodd" clip-rule="evenodd" d="M83.1357 4.40088H57.8652V12.9132C57.8605 20.3846 82.6601 19.0304 83.1357 27.3847V4.40088Z" fill="#9D9E9E"/>
<path d="M57.2227 12.723V3.90576H83.7224V12.723C83.7224 12.723 77.9683 14.8396 70.4721 14.8396C62.9759 14.8396 57.2227 12.723 57.2227 12.723Z" stroke="#2B2A29" stroke-width="0.4999" stroke-miterlimit="10" stroke-linecap="round" stroke-linejoin="round"/>
<path d="M55.7115 75.8707H54.3601V70.5785L53.0391 71.087V69.9622L55.5677 68.9314H55.7115V75.8707ZM60.2907 73.19C60.0061 73.483 59.6938 73.6294 59.3538 73.6294C58.826 73.6294 58.4115 73.4166 58.1102 72.9938C57.8062 72.571 57.6542 72.0045 57.6542 71.297C57.6542 70.841 57.7399 70.4209 57.9113 70.0423C58.0826 69.6637 58.323 69.368 58.6298 69.158C58.9366 68.9507 59.2765 68.8457 59.6523 68.8457C60.042 68.8457 60.3902 68.9618 60.6969 69.1911C61.0009 69.4233 61.2386 69.7549 61.4072 70.1888C61.5758 70.6227 61.6587 71.1146 61.6587 71.6673V72.1565C61.6587 73.3365 61.3989 74.2595 60.8794 74.9256C60.3598 75.5916 59.6247 75.9287 58.674 75.9426H58.5358V74.7819H58.6242C59.1521 74.7791 59.5473 74.6409 59.8126 74.3701C60.0779 74.102 60.2382 73.7068 60.2907 73.19V73.19ZM59.6965 72.571C59.9563 72.571 60.1608 72.3941 60.31 72.0376V71.4186C60.31 70.9654 60.2493 70.6088 60.1249 70.3491C60.0005 70.0921 59.8402 69.9622 59.644 69.9622C59.4506 69.9622 59.2958 70.0893 59.177 70.3463C59.0581 70.6033 58.9973 70.9128 58.9973 71.2804C58.9973 71.6811 59.0582 71.9962 59.1825 72.2255C59.3069 72.4549 59.4782 72.571 59.6965 72.571V72.571Z" fill="#006672"/>
</svg>
