<svg width="130" height="176" viewBox="0 0 130 176" fill="none" xmlns="http://www.w3.org/2000/svg">
<path fill-rule="evenodd" clip-rule="evenodd" d="M0.894531 173.831V0.294922H129.26L129.774 175.394L0.894531 173.831Z" fill="#D9DADA"/>
<path d="M58.2012 99.7905H84.7006V43.498H58.2012V99.7905Z" stroke="#FEFEFE" stroke-width="0.35" stroke-miterlimit="10"/>
<path d="M70.7026 75.4161H66.618V74.4627L68.4917 72.0777C68.7322 71.7488 68.9063 71.4587 69.0196 71.21C69.1329 70.9612 69.1881 70.7236 69.1881 70.4942C69.1881 70.1874 69.1357 69.9442 69.0279 69.7701C68.9201 69.596 68.7681 69.5076 68.5691 69.5076C68.3508 69.5076 68.1767 69.6098 68.0496 69.8116C67.9197 70.0161 67.8561 70.3035 67.8561 70.6711H66.502C66.502 70.2455 66.5904 69.8558 66.7673 69.5021C66.9442 69.1511 67.1928 68.8775 67.5107 68.6813C67.8285 68.4878 68.1905 68.3911 68.5913 68.3911C69.2103 68.3911 69.6911 68.5625 70.0338 68.9024C70.3737 69.2423 70.5451 69.7287 70.5451 70.356C70.5451 70.7457 70.4511 71.1436 70.2632 71.5443C70.0725 71.9451 69.7299 72.4398 69.2352 73.0256L68.3452 74.2969H70.7026V75.4161V75.4161Z" fill="#006672"/>
<path d="M73.2645 71.3757H73.9168C74.1627 71.3757 74.3451 71.29 74.4612 71.1159C74.5772 70.9418 74.6353 70.7124 74.6353 70.4222C74.6353 70.1459 74.5772 69.9303 74.4584 69.7756C74.3395 69.6236 74.1793 69.5462 73.9775 69.5462C73.7896 69.5462 73.6376 69.618 73.5187 69.7645C73.3999 69.911 73.3391 70.0961 73.3391 70.3172H71.9933C71.9933 69.9552 72.0762 69.6319 72.2448 69.3444C72.4106 69.057 72.6427 68.8332 72.9439 68.6701C73.2424 68.5098 73.574 68.4297 73.9388 68.4297C74.5772 68.4297 75.0774 68.6066 75.4394 68.9575C75.8014 69.3085 75.9811 69.7921 75.9811 70.4029C75.9811 70.7179 75.901 71.0081 75.7379 71.2762C75.5749 71.5442 75.3593 71.7515 75.0913 71.8952C75.4201 72.0334 75.6633 72.2407 75.8236 72.5198C75.9839 72.7989 76.064 73.1305 76.064 73.5119C76.064 74.1282 75.8678 74.6201 75.4754 74.9904C75.0829 75.3635 74.569 75.5487 73.9306 75.5487C73.3364 75.5487 72.8555 75.3663 72.4852 74.9987C72.1149 74.6339 71.9297 74.1531 71.9297 73.5561H73.2783C73.2783 73.8021 73.3447 74.0093 73.4746 74.1779C73.6045 74.3465 73.7675 74.4322 73.9692 74.4322C74.1986 74.4322 74.3837 74.3465 74.5191 74.1752C74.6545 74.0038 74.7209 73.7745 74.7209 73.4898C74.7209 72.8072 74.4556 72.4645 73.925 72.4618H73.2645V71.3757V71.3757Z" fill="#006672"/>
<path d="M99.3145 30.1328H126.269V56.5858H99.3145V30.1328Z" fill="#FBCB8E" stroke="#2B2A29" stroke-width="0.4999" stroke-miterlimit="10" stroke-linecap="round" stroke-linejoin="round"/>
<path d="M117.286 30.1323H126.271V56.585H117.286C117.286 56.585 115.129 50.8417 115.129 43.3583C115.129 35.8756 117.286 30.1323 117.286 30.1323Z" stroke="#2B2A29" stroke-width="0.4999" stroke-miterlimit="10" stroke-linecap="round" stroke-linejoin="round"/>
<path d="M99.3145 56.5845H126.269V83.0372H99.3145V56.5845Z" fill="#FBCB8E" stroke="#2B2A29" stroke-width="0.4999" stroke-miterlimit="10" stroke-linecap="round" stroke-linejoin="round"/>
<path d="M117.286 56.5854H126.271V83.0381H117.286C117.286 83.0381 115.129 77.2949 115.129 69.8114C115.129 62.3287 117.286 56.5854 117.286 56.5854Z" stroke="#2B2A29" stroke-width="0.4999" stroke-miterlimit="10" stroke-linecap="round" stroke-linejoin="round"/>
<path d="M99.3145 83.0376H126.269V109.489H99.3145V83.0376Z" fill="#FBCB8E" stroke="#2B2A29" stroke-width="0.4999" stroke-miterlimit="10" stroke-linecap="round" stroke-linejoin="round"/>
<path d="M117.286 83.0376H126.271V109.489H117.286C117.286 109.489 115.129 103.746 115.129 96.2635C115.129 88.7809 117.286 83.0376 117.286 83.0376Z" stroke="#2B2A29" stroke-width="0.4999" stroke-miterlimit="10" stroke-linecap="round" stroke-linejoin="round"/>
<path d="M99.3086 161.43V138.248H126.263V164.699H102.579C100.773 164.699 99.3086 163.236 99.3086 161.43Z" fill="#FBCB8E"/>
<path d="M99.3086 161.43V138.248H126.263V164.699H102.579C100.773 164.699 99.3086 163.236 99.3086 161.43Z" stroke="#2B2A29" stroke-width="0.4999" stroke-miterlimit="10" stroke-linecap="round" stroke-linejoin="round"/>
<path d="M117.276 138.248H126.261V164.7H117.276C117.276 164.7 115.119 158.957 115.119 151.473C115.119 143.991 117.276 138.248 117.276 138.248Z" stroke="#2B2A29" stroke-width="0.4999" stroke-miterlimit="10" stroke-linecap="round" stroke-linejoin="round"/>
<path d="M99.3145 3.68115H126.269V30.1328H99.3145V3.68115Z" fill="#FBCB8E" stroke="#2B2A29" stroke-width="0.4999" stroke-miterlimit="10" stroke-linecap="round" stroke-linejoin="round"/>
<path d="M117.285 3.68115H126.269H126.27V30.133H117.285C117.285 30.133 115.129 24.3898 115.129 16.9071C115.129 16.094 115.158 15.3081 115.203 14.5417C114.422 14.5868 113.621 14.615 112.793 14.615C105.167 14.615 99.3145 12.4983 99.3145 12.4983V3.68115H117.285Z" stroke="#2B2A29" stroke-width="0.4999" stroke-miterlimit="10" stroke-linecap="round" stroke-linejoin="round"/>
<path d="M72.8164 30.1328H99.3161V3.68115H72.8164V30.1328Z" fill="#FBCB8E" stroke="#2B2A29" stroke-width="0.4999" stroke-miterlimit="10" stroke-linecap="round" stroke-linejoin="round"/>
<path fill-rule="evenodd" clip-rule="evenodd" d="M98.6767 4.40869H73.4063V12.9211C73.4016 20.3924 98.2011 19.0383 98.6767 27.3926V4.40869Z" fill="#9D9E9E"/>
<path d="M99.3161 12.4983V3.68115H72.8164V12.4983C72.8164 12.4983 78.5705 14.615 86.0667 14.615C93.564 14.615 99.3161 12.4983 99.3161 12.4983Z" stroke="#2B2A29" stroke-width="0.4999" stroke-miterlimit="10" stroke-linecap="round" stroke-linejoin="round"/>
<path d="M20.8589 30.197H44.1149V3.74512H17.6152V26.9545C17.6152 28.7453 19.067 30.197 20.8589 30.197Z" fill="#FBCB8E"/>
<path d="M20.8589 30.197H44.1149V3.74512H17.6152V26.9545C17.6152 28.7453 19.067 30.197 20.8589 30.197Z" stroke="#2B2A29" stroke-width="0.4999" stroke-miterlimit="10" stroke-linecap="round" stroke-linejoin="round"/>
<path fill-rule="evenodd" clip-rule="evenodd" d="M43.4091 4.48877H18.1387V13.0012C18.134 20.4725 42.9335 19.1183 43.4091 27.4726V4.48877Z" fill="#9D9E9E"/>
<path d="M44.1157 12.5633V3.74609H17.6152V12.5633C17.6152 12.5633 23.3692 14.6799 30.8654 14.6799C38.3627 14.6799 44.1157 12.5633 44.1157 12.5633Z" stroke="#2B2A29" stroke-width="0.4999" stroke-miterlimit="10" stroke-linecap="round" stroke-linejoin="round"/>
<path d="M45.2891 30.1889H71.7888V3.7373H45.2891V30.1889Z" fill="#FBCB8E" stroke="#2B2A29" stroke-width="0.4999" stroke-miterlimit="10" stroke-linecap="round" stroke-linejoin="round"/>
<path fill-rule="evenodd" clip-rule="evenodd" d="M71.3857 4.27832H46.1152V12.7907C46.1105 20.262 70.9101 18.9079 71.3857 27.2622V4.27832Z" fill="#9D9E9E"/>
<path d="M71.7888 12.5535V3.73633H45.2891V12.5535C45.2891 12.5535 51.0431 14.6702 58.5393 14.6702C66.0367 14.6702 71.7888 12.5535 71.7888 12.5535Z" stroke="#2B2A29" stroke-width="0.4999" stroke-miterlimit="10" stroke-linecap="round" stroke-linejoin="round"/>
<path d="M99.3027 110.741H126.258V137.193H99.3027V110.741Z" fill="#FBCB8E" stroke="#2B2A29" stroke-width="0.4999" stroke-miterlimit="10" stroke-linecap="round" stroke-linejoin="round"/>
<path d="M117.276 110.741H126.261V137.193H117.276C117.276 137.193 115.119 131.449 115.119 123.967C115.119 116.484 117.276 110.741 117.276 110.741Z" stroke="#2B2A29" stroke-width="0.4999" stroke-miterlimit="10" stroke-linecap="round" stroke-linejoin="round"/>
</svg>
