<svg width="130" height="204" viewBox="0 0 130 204" fill="none" xmlns="http://www.w3.org/2000/svg">
<path fill-rule="evenodd" clip-rule="evenodd" d="M0.791016 202.168V0.931885H129.157L129.671 203.98L0.791016 202.168Z" fill="#D9DADA"/>
<path d="M96.8848 32.1011H123.838V58.5541H96.8848V32.1011Z" stroke="#FEFEFE" stroke-width="0.35" stroke-miterlimit="10"/>
<path d="M114.858 32.1011H123.843V58.5538H114.858C114.858 58.5538 112.701 52.8105 112.701 45.327C112.701 37.8443 114.858 32.1011 114.858 32.1011Z" stroke="#FEFEFE" stroke-width="0.35" stroke-miterlimit="10"/>
<path d="M96.8848 86.4653H123.838V112.918H96.8848V86.4653Z" stroke="#FEFEFE" stroke-width="0.35" stroke-miterlimit="10"/>
<path d="M114.858 86.4658H123.843V112.919H114.858C114.858 112.919 112.701 107.175 112.701 99.6917C112.701 92.2091 114.858 86.4658 114.858 86.4658Z" stroke="#FEFEFE" stroke-width="0.35" stroke-miterlimit="10"/>
<path d="M96.8848 112.918H123.838V139.37H96.8848V112.918Z" stroke="#FEFEFE" stroke-width="0.35" stroke-miterlimit="10"/>
<path d="M114.858 112.918H123.843V139.37H114.858C114.858 139.37 112.701 133.627 112.701 126.144C112.701 118.661 114.858 112.918 114.858 112.918Z" stroke="#FEFEFE" stroke-width="0.35" stroke-miterlimit="10"/>
<path d="M96.8848 162.552V139.37H123.839V165.822H100.155C98.3491 165.822 96.8848 164.358 96.8848 162.552Z" stroke="#FEFEFE" stroke-width="0.35" stroke-miterlimit="10"/>
<path d="M114.858 139.37H123.843V165.823H114.858C114.858 165.823 112.701 160.079 112.701 152.596C112.701 145.113 114.858 139.37 114.858 139.37Z" stroke="#FEFEFE" stroke-width="0.35" stroke-miterlimit="10"/>
<path d="M57.1484 101.633H83.6478V45.3401H57.1484V101.633Z" stroke="#FEFEFE" stroke-width="0.35" stroke-miterlimit="10"/>
<path d="M96.9551 59.2539H123.909V85.7069H96.9551V59.2539Z" stroke="#FEFEFE" stroke-width="0.35" stroke-miterlimit="10"/>
<path d="M114.922 59.2539H123.907V85.7066H114.922C114.922 85.7066 112.766 79.9633 112.766 72.4798C112.766 64.9972 114.922 59.2539 114.922 59.2539Z" stroke="#FEFEFE" stroke-width="0.35" stroke-miterlimit="10"/>
<path d="M70.2207 32.2704H96.7204V5.81885H70.2207V32.2704Z" stroke="#FEFEFE" stroke-width="0.35" stroke-miterlimit="10"/>
<path fill-rule="evenodd" clip-rule="evenodd" d="M96.2254 6.64478H70.6152V15.4056C70.6105 23.0952 95.7434 21.7013 96.2254 30.2993V6.64478Z" fill="#9D9E9E"/>
<path d="M96.7106 14.4524V5.63525H70.2109V14.4524C70.2109 14.4524 75.965 16.5691 83.4612 16.5691C90.9585 16.5691 96.7106 14.4524 96.7106 14.4524Z" stroke="#FEFEFE" stroke-width="0.35" stroke-miterlimit="10"/>
<path d="M96.9453 5.66895H123.899V32.1205H96.9453V5.66895Z" stroke="#FEFEFE" stroke-width="0.35" stroke-miterlimit="10"/>
<path d="M114.634 5.66846H123.619V32.1203H114.634C114.634 32.1203 112.478 26.3771 112.478 18.8944C112.478 18.0813 112.507 17.2954 112.552 16.529C111.771 16.5741 110.969 16.6023 110.141 16.6023C102.516 16.6023 96.6641 14.4856 96.6641 14.4856V5.66846H114.634Z" stroke="#FEFEFE" stroke-width="0.35" stroke-miterlimit="10"/>
<path d="M22.0151 32.3611H45.2712V5.90918H18.7715V29.1185C18.7715 30.9093 20.2232 32.3611 22.0151 32.3611Z" stroke="#FEFEFE" stroke-width="0.35" stroke-miterlimit="10"/>
<path fill-rule="evenodd" clip-rule="evenodd" d="M44.8503 6.37085H19.2402V15.1317C19.2355 22.8213 44.3683 21.4274 44.8503 30.0254V6.37085Z" fill="#9D9E9E"/>
<path d="M45.2438 14.5091V5.69189H18.7441V14.5091C18.7441 14.5091 24.4982 16.6257 31.9944 16.6257C39.4917 16.6257 45.2438 14.5091 45.2438 14.5091Z" stroke="#FEFEFE" stroke-width="0.35" stroke-miterlimit="10"/>
<path d="M44.7656 32.4047H71.2653V5.95312H44.7656V32.4047Z" stroke="#FEFEFE" stroke-width="0.35" stroke-miterlimit="10"/>
<path fill-rule="evenodd" clip-rule="evenodd" d="M70.7702 6.77954H45.1602V15.5404C45.1555 23.23 70.2882 21.8361 70.7702 30.4341V6.77954Z" fill="#9D9E9E"/>
<path d="M71.2985 14.4883V5.67114H44.7988V14.4883C44.7988 14.4883 50.5529 16.605 58.0491 16.605C65.5464 16.605 71.2985 14.4883 71.2985 14.4883Z" stroke="#FEFEFE" stroke-width="0.35" stroke-miterlimit="10"/>
<path d="M70.0502 78.5038H65.9657V77.5503L67.8394 75.1654C68.0798 74.8365 68.2538 74.5463 68.3672 74.2976C68.4805 74.0489 68.5358 73.8112 68.5358 73.5819C68.5358 73.2751 68.4832 73.0319 68.3755 72.8578C68.2677 72.6837 68.1156 72.5953 67.9167 72.5953C67.6983 72.5953 67.5243 72.6975 67.3972 72.8992C67.2673 73.1038 67.2038 73.3912 67.2038 73.7587H65.8496C65.8496 73.3331 65.938 72.9435 66.1148 72.5897C66.2917 72.2387 66.5405 71.9651 66.8583 71.7689C67.1761 71.5755 67.5381 71.4788 67.9388 71.4788C68.5578 71.4788 69.0387 71.6501 69.3814 71.99C69.7213 72.3299 69.8926 72.8163 69.8926 73.4437C69.8926 73.8333 69.7987 74.2313 69.6108 74.632C69.4201 75.0327 69.0774 75.5274 68.5827 76.1133L67.6929 77.3845H70.0502V78.5038V78.5038Z" fill="#006672"/>
<path d="M74.924 75.896H75.5126V77.0125H74.924V78.5131H73.5753V77.0125H71.2815L71.2207 76.1419L73.5698 71.582H74.924V75.896ZM73.8247 75.8907L73.797 73.6246L72.7772 75.8907H73.8247Z" fill="#006672"/>
</svg>
