<svg width="124" height="164" viewBox="0 0 124 164" fill="none" xmlns="http://www.w3.org/2000/svg">
<path fill-rule="evenodd" clip-rule="evenodd" d="M0.958984 136.543V0.102051H123.368V163.967H35.5466L0.958984 136.543Z" fill="#D9DADA"/>
<path d="M51.9883 99.8881H78.4887V43.5957H51.9883V99.8881Z" stroke="#FEFEFE" stroke-width="0.35" stroke-miterlimit="10"/>
<path d="M41.9713 30.3571H65.2271V3.90527H38.7266V27.1135C38.7266 28.9054 40.1794 30.3571 41.9713 30.3571V30.3571Z" fill="#FBCB8E"/>
<path d="M41.9713 30.3571H65.2271V3.90527H38.7266V27.1135C38.7266 28.9054 40.1794 30.3571 41.9713 30.3571V30.3571Z" stroke="#2B2A29" stroke-width="0.4999" stroke-miterlimit="10" stroke-linecap="round" stroke-linejoin="round"/>
<path fill-rule="evenodd" clip-rule="evenodd" d="M64.5692 4.78955H39.2988V13.3019C39.2941 20.7732 64.0936 19.4191 64.5692 27.7734V4.78955Z" fill="#9D9E9E"/>
<path d="M65.227 12.723V3.90576H38.7266V12.723C38.7266 12.723 44.4806 14.8396 51.9768 14.8396C59.4741 14.8396 65.227 12.723 65.227 12.723Z" stroke="#2B2A29" stroke-width="0.4999" stroke-miterlimit="10" stroke-linecap="round" stroke-linejoin="round"/>
<path d="M65.2285 30.3571H88.4838C90.2746 30.3571 91.7282 28.9054 91.7282 27.1135V3.90527H65.2285V30.3571Z" fill="#FBCB8E"/>
<path d="M65.2285 30.3571H88.4838C90.2746 30.3571 91.7282 28.9054 91.7282 27.1135V3.90527H65.2285V30.3571Z" stroke="#2B2A29" stroke-width="0.4999" stroke-miterlimit="10" stroke-linecap="round" stroke-linejoin="round"/>
<path fill-rule="evenodd" clip-rule="evenodd" d="M91.3525 4.42383H66.082V12.9362C66.0773 20.4075 90.8769 19.0534 91.3525 27.4077V4.42383Z" fill="#9D9E9E"/>
<path d="M91.7282 12.723V3.90576H65.2285V12.723C65.2285 12.723 70.9826 14.8396 78.4779 14.8396C85.9752 14.8396 91.7282 12.723 91.7282 12.723Z" stroke="#2B2A29" stroke-width="0.4999" stroke-miterlimit="10" stroke-linecap="round" stroke-linejoin="round"/>
<path d="M92.5566 56.8096V33.6014C92.5566 31.8095 94.0091 30.3569 95.801 30.3569H119.511V56.8096H92.5566Z" fill="#FBCB8E"/>
<path d="M92.5566 56.8096V33.6014C92.5566 31.8095 94.0091 30.3569 95.801 30.3569H119.511V56.8096H92.5566Z" stroke="#2B2A29" stroke-width="0.4999" stroke-miterlimit="10" stroke-linecap="round" stroke-linejoin="round"/>
<path d="M109.973 30.3569H118.958V56.8096H109.973C109.973 56.8096 107.816 51.0664 107.816 43.5829C107.816 36.1002 109.973 30.3569 109.973 30.3569Z" stroke="#2B2A29" stroke-width="0.4999" stroke-miterlimit="10" stroke-linecap="round" stroke-linejoin="round"/>
<path d="M92.5566 56.8091H119.511V83.2618H92.5566V56.8091Z" fill="#FBCB8E" stroke="#2B2A29" stroke-width="0.4999" stroke-miterlimit="10" stroke-linecap="round" stroke-linejoin="round"/>
<path d="M109.973 56.8101H118.958V83.2628H109.973C109.973 83.2628 107.816 77.5195 107.816 70.036C107.816 62.5533 109.973 56.8101 109.973 56.8101Z" stroke="#2B2A29" stroke-width="0.4999" stroke-miterlimit="10" stroke-linecap="round" stroke-linejoin="round"/>
<path d="M92.5566 83.2622H119.511V109.714H92.5566V83.2622Z" fill="#FBCB8E" stroke="#2B2A29" stroke-width="0.4999" stroke-miterlimit="10" stroke-linecap="round" stroke-linejoin="round"/>
<path d="M109.973 83.2622H118.958V109.714H109.973C109.973 109.714 107.816 103.971 107.816 96.4881C107.816 89.0055 109.973 83.2622 109.973 83.2622Z" stroke="#2B2A29" stroke-width="0.4999" stroke-miterlimit="10" stroke-linecap="round" stroke-linejoin="round"/>
<path d="M92.5566 132.896V109.714H119.511V136.166H95.8276C94.021 136.166 92.5566 134.702 92.5566 132.896Z" fill="#FBCB8E"/>
<path d="M92.5566 132.896V109.714H119.511V136.166H95.8276C94.021 136.166 92.5566 134.702 92.5566 132.896Z" stroke="#2B2A29" stroke-width="0.4999" stroke-miterlimit="10" stroke-linecap="round" stroke-linejoin="round"/>
<path d="M109.973 109.714H118.958V136.167H109.973C109.973 136.167 107.816 130.423 107.816 122.94C107.816 115.457 109.973 109.714 109.973 109.714Z" stroke="#2B2A29" stroke-width="0.4999" stroke-miterlimit="10" stroke-linecap="round" stroke-linejoin="round"/>
<path d="M65.1381 76.0817H61.0535V75.1282L62.9273 72.7433C63.1677 72.4144 63.3419 72.1242 63.4552 71.8755C63.5685 71.6268 63.6237 71.3891 63.6237 71.1597C63.6237 70.853 63.5713 70.6098 63.4635 70.4357C63.3557 70.2616 63.2037 70.1731 63.0047 70.1731C62.7864 70.1731 62.6122 70.2754 62.4851 70.4771C62.3552 70.6816 62.2917 70.969 62.2917 71.3366H60.9375C60.9375 70.911 61.026 70.5213 61.2028 70.1676C61.3797 69.8166 61.6284 69.543 61.9462 69.3468C62.264 69.1534 62.6261 69.0566 63.0268 69.0566C63.6458 69.0566 64.1267 69.228 64.4694 69.5679C64.8093 69.9078 64.9806 70.3942 64.9806 71.0216C64.9806 71.4112 64.8867 71.8092 64.6988 72.2099C64.5081 72.6106 64.1654 73.1053 63.6707 73.6912L62.7808 74.9624H65.1381V76.0817V76.0817ZM70.0132 73.2158C70.0132 74.1748 69.839 74.9071 69.4936 75.4129C69.1454 75.9214 68.6479 76.1756 68.0039 76.1756C67.3656 76.1756 66.8737 75.9296 66.5282 75.435C66.18 74.9431 66.0004 74.2356 65.9865 73.3153V72.0054C65.9865 71.0519 66.1607 70.3196 66.5061 69.8139C66.8516 69.3081 67.3463 69.0566 67.9957 69.0566C68.6424 69.0566 69.1398 69.3081 69.4853 69.8083C69.8307 70.3085 70.0049 71.0243 70.0132 71.9556V73.2158V73.2158ZM68.6617 71.8119C68.6617 71.2675 68.6092 70.8557 68.5014 70.5821C68.3936 70.3085 68.2251 70.1731 67.9957 70.1731C67.5674 70.1731 67.3435 70.6733 67.3269 71.6738V73.401C67.3269 73.9592 67.3821 74.3738 67.4927 74.6473C67.6005 74.9209 67.7718 75.0591 68.0039 75.0591C68.2223 75.0591 68.3854 74.932 68.4932 74.675C68.5982 74.418 68.6534 74.0283 68.6617 73.5005V71.8119V71.8119Z" fill="#006672"/>
</svg>
