<svg width="124" height="165" viewBox="0 0 124 165" fill="none" xmlns="http://www.w3.org/2000/svg">
<path fill-rule="evenodd" clip-rule="evenodd" d="M0.802734 163.934V0.0693359L123.863 0.84921L123.439 137.291L81.9439 164.714L0.802734 163.934Z" fill="#D9DADA"/>
<path d="M71.3649 99.8881H44.8652V43.5957H71.3649V99.8881Z" stroke="#FEFEFE" stroke-width="0.35" stroke-miterlimit="10"/>
<path d="M31.6286 30.3574H4.67383V56.8104H31.6286V30.3574Z" fill="#FBCB8E" stroke="#2B2A29" stroke-width="0.4999" stroke-miterlimit="10" stroke-linecap="round" stroke-linejoin="round"/>
<path fill-rule="evenodd" clip-rule="evenodd" d="M5.50977 56.1024V30.832H14.0221C21.4934 30.8273 20.1394 55.6268 28.4937 56.1024H5.50977Z" fill="#9D9E9E"/>
<path d="M13.653 30.3569H4.66797V56.8096H13.653C13.653 56.8096 15.8096 51.0664 15.8096 43.5829C15.8096 36.1002 13.653 30.3569 13.653 30.3569Z" stroke="#2B2A29" stroke-width="0.4999" stroke-miterlimit="10" stroke-linecap="round" stroke-linejoin="round"/>
<path d="M31.6286 56.8091H4.67383V83.2618H31.6286V56.8091Z" fill="#FBCB8E" stroke="#2B2A29" stroke-width="0.4999" stroke-miterlimit="10" stroke-linecap="round" stroke-linejoin="round"/>
<path fill-rule="evenodd" clip-rule="evenodd" d="M5.32617 82.519V57.2485H13.8386C21.31 57.2438 19.9558 82.0434 28.3101 82.519H5.32617Z" fill="#9D9E9E"/>
<path d="M13.653 56.8101H4.66797V83.2628H13.653C13.653 83.2628 15.8096 77.5195 15.8096 70.036C15.8096 62.5533 13.653 56.8101 13.653 56.8101Z" stroke="#2B2A29" stroke-width="0.4999" stroke-miterlimit="10" stroke-linecap="round" stroke-linejoin="round"/>
<path d="M31.6286 83.2622H4.67383V109.714H31.6286V83.2622Z" fill="#FBCB8E" stroke="#2B2A29" stroke-width="0.4999" stroke-miterlimit="10" stroke-linecap="round" stroke-linejoin="round"/>
<path fill-rule="evenodd" clip-rule="evenodd" d="M5.41797 109.119V83.8481H13.9303C21.4017 83.8434 20.0476 108.643 28.4019 109.119H5.41797Z" fill="#9D9E9E"/>
<path d="M13.653 83.2622H4.66797V109.714H13.653C13.653 109.714 15.8096 103.971 15.8096 96.4881C15.8096 89.0055 13.653 83.2622 13.653 83.2622Z" stroke="#2B2A29" stroke-width="0.4999" stroke-miterlimit="10" stroke-linecap="round" stroke-linejoin="round"/>
<path d="M31.6286 132.896V109.714H4.67383V136.166H28.358C30.1643 136.166 31.6286 134.702 31.6286 132.896Z" fill="#FBCB8E"/>
<path d="M31.6286 132.896V109.714H4.67383V136.166H28.358C30.1643 136.166 31.6286 134.702 31.6286 132.896Z" stroke="#2B2A29" stroke-width="0.4999" stroke-miterlimit="10" stroke-linecap="round" stroke-linejoin="round"/>
<path fill-rule="evenodd" clip-rule="evenodd" d="M5.34766 135.638V110.368H13.86C21.3314 110.363 19.9772 135.162 28.3315 135.638H5.34766Z" fill="#9D9E9E"/>
<path d="M13.653 109.714H4.66797V136.167H13.653C13.653 136.167 15.8096 130.423 15.8096 122.94C15.8096 115.457 13.653 109.714 13.653 109.714Z" stroke="#2B2A29" stroke-width="0.4999" stroke-miterlimit="10" stroke-linecap="round" stroke-linejoin="round"/>
<path d="M31.6286 3.90576H4.67383V30.3574H31.6286V3.90576Z" fill="#FBCB8E" stroke="#2B2A29" stroke-width="0.4999" stroke-miterlimit="10" stroke-linecap="round" stroke-linejoin="round"/>
<path d="M13.653 3.90576H4.66905H4.66797V30.3576H13.653C13.653 30.3576 15.8096 24.6144 15.8096 17.1317C15.8096 16.3187 15.7804 15.5327 15.7354 14.7664C16.5163 14.8114 17.3177 14.8396 18.1454 14.8396C25.7712 14.8396 31.624 12.723 31.624 12.723V3.90576H13.653Z" stroke="#2B2A29" stroke-width="0.4999" stroke-miterlimit="10" stroke-linecap="round" stroke-linejoin="round"/>
<path d="M58.1247 30.3574H31.625V3.90576H58.1247V30.3574Z" fill="#FBCB8E" stroke="#2B2A29" stroke-width="0.4999" stroke-miterlimit="10" stroke-linecap="round" stroke-linejoin="round"/>
<path fill-rule="evenodd" clip-rule="evenodd" d="M57.5322 4.55908H32.2617V13.0715C32.257 20.5428 57.0566 19.1887 57.5322 27.543V4.55908Z" fill="#9D9E9E"/>
<path d="M31.625 12.723V3.90576H58.1247V12.723C58.1247 12.723 52.3707 14.8396 44.8745 14.8396C37.3772 14.8396 31.625 12.723 31.625 12.723Z" stroke="#2B2A29" stroke-width="0.4999" stroke-miterlimit="10" stroke-linecap="round" stroke-linejoin="round"/>
<path d="M81.383 30.3571H58.127V3.90527H84.6266V27.1146C84.6266 28.9054 83.1749 30.3571 81.383 30.3571Z" fill="#FBCB8E"/>
<path d="M81.383 30.3571H58.127V3.90527H84.6266V27.1146C84.6266 28.9054 83.1749 30.3571 81.383 30.3571Z" stroke="#2B2A29" stroke-width="0.4999" stroke-miterlimit="10" stroke-linecap="round" stroke-linejoin="round"/>
<path fill-rule="evenodd" clip-rule="evenodd" d="M83.9911 4.41309H58.7207V12.9254C58.716 20.3968 83.5155 19.0426 83.9911 27.3969V4.41309Z" fill="#9D9E9E"/>
<path d="M58.127 12.723V3.90576H84.6274V12.723C84.6274 12.723 78.8734 14.8396 71.3772 14.8396C63.8799 14.8396 58.127 12.723 58.127 12.723Z" stroke="#2B2A29" stroke-width="0.4999" stroke-miterlimit="10" stroke-linecap="round" stroke-linejoin="round"/>
<path d="M58.2299 76.045H54.1455V75.0916L56.0191 72.7066C56.2595 72.3778 56.4336 72.0876 56.547 71.8389C56.6603 71.5901 56.7156 71.3525 56.7156 71.1231C56.7156 70.8163 56.663 70.5732 56.5553 70.3991C56.4475 70.2249 56.2954 70.1365 56.0965 70.1365C55.8781 70.1365 55.704 70.2388 55.5769 70.4405C55.447 70.645 55.3834 70.9324 55.3834 71.3H54.0293C54.0293 70.8744 54.1178 70.4847 54.2946 70.131C54.4715 69.78 54.7202 69.5064 55.038 69.3102C55.3558 69.1167 55.7179 69.02 56.1186 69.02C56.7376 69.02 57.2185 69.1914 57.5612 69.5313C57.9011 69.8712 58.0724 70.3576 58.0724 70.9849C58.0724 71.3746 57.9785 71.7725 57.7906 72.1732C57.5999 72.574 57.2572 73.0687 56.7625 73.6545L55.8727 74.9258H58.2299V76.045V76.045Z" fill="#006672"/>
<path d="M61.8872 76.0024H60.5358V70.7101L59.2148 71.2186V70.0938L61.7435 69.063H61.8872V76.0024Z" fill="#006672"/>
</svg>
