<svg width="133" height="166" viewBox="0 0 133 166" fill="none" xmlns="http://www.w3.org/2000/svg">
<path fill-rule="evenodd" clip-rule="evenodd" d="M0.0800781 138.511L0.285727 0.715332L132.438 2.06949V165.934H41.853L0.0800781 138.511Z" fill="#D9DADA"/>
<path d="M61.3438 101.888H87.8432V45.5957H61.3438V101.888Z" stroke="#FEFEFE" stroke-width="0.35" stroke-miterlimit="10"/>
<path d="M73.1928 78.3756H69.1082V77.4222L70.982 75.0372C71.2224 74.7083 71.3964 74.4182 71.5098 74.1694C71.6231 73.9207 71.6784 73.683 71.6784 73.4537C71.6784 73.1469 71.6258 72.9037 71.5181 72.7296C71.4103 72.5555 71.2584 72.4671 71.0594 72.4671C70.841 72.4671 70.6669 72.5693 70.5398 72.771C70.4099 72.9756 70.3463 73.263 70.3463 73.6305H68.9922C68.9922 73.2049 69.0806 72.8153 69.2574 72.4615C69.4343 72.1106 69.6831 71.837 70.0009 71.6408C70.3187 71.4473 70.6807 71.3506 71.0814 71.3506C71.7004 71.3506 72.1814 71.5219 72.5241 71.8618C72.864 72.2018 73.0353 72.6881 73.0353 73.3155C73.0353 73.7051 72.9413 74.1031 72.7534 74.5038C72.5627 74.9045 72.22 75.3992 71.7253 75.9851L70.8355 77.2564H73.1928V78.3756V78.3756Z" fill="#006672"/>
<path d="M78.2905 78.3756H74.2059V77.4222L76.0796 75.0372C76.32 74.7083 76.4941 74.4182 76.6074 74.1694C76.7207 73.9207 76.776 73.683 76.776 73.4537C76.776 73.1469 76.7235 72.9037 76.6157 72.7296C76.5079 72.5555 76.3559 72.4671 76.1569 72.4671C75.9386 72.4671 75.7646 72.5693 75.6374 72.771C75.5076 72.9756 75.444 73.263 75.444 73.6305H74.0898C74.0898 73.2049 74.1782 72.8153 74.3551 72.4615C74.5319 72.1106 74.7807 71.837 75.0985 71.6408C75.4164 71.4473 75.7783 71.3506 76.179 71.3506C76.7981 71.3506 77.2789 71.5219 77.6216 71.8618C77.9615 72.2018 78.1329 72.6881 78.1329 73.3155C78.1329 73.7051 78.0389 74.1031 77.851 74.5038C77.6603 74.9045 77.3176 75.3992 76.823 75.9851L75.9331 77.2564H78.2905V78.3756V78.3756Z" fill="#006672"/>
<path d="M102.242 31.502H129.197V57.9549H102.242V31.502Z" fill="#FBCB8E" stroke="#2B2A29" stroke-width="0.4999" stroke-miterlimit="10" stroke-linecap="round" stroke-linejoin="round"/>
<path d="M120.213 31.502H129.198V57.9546H120.213C120.213 57.9546 118.057 52.2114 118.057 44.7279C118.057 37.2452 120.213 31.502 120.213 31.502Z" stroke="#2B2A29" stroke-width="0.4999" stroke-miterlimit="10" stroke-linecap="round" stroke-linejoin="round"/>
<path d="M102.242 57.9536H129.197V84.4063H102.242V57.9536Z" fill="#FBCB8E" stroke="#2B2A29" stroke-width="0.4999" stroke-miterlimit="10" stroke-linecap="round" stroke-linejoin="round"/>
<path d="M120.213 57.9546H129.198V84.4073H120.213C120.213 84.4073 118.057 78.664 118.057 71.1805C118.057 63.6979 120.213 57.9546 120.213 57.9546Z" stroke="#2B2A29" stroke-width="0.4999" stroke-miterlimit="10" stroke-linecap="round" stroke-linejoin="round"/>
<path d="M102.242 84.4067H129.197V110.859H102.242V84.4067Z" fill="#FBCB8E" stroke="#2B2A29" stroke-width="0.4999" stroke-miterlimit="10" stroke-linecap="round" stroke-linejoin="round"/>
<path d="M120.213 84.4067H129.198V110.859H120.213C120.213 110.859 118.057 105.115 118.057 97.6326C118.057 90.15 120.213 84.4067 120.213 84.4067Z" stroke="#2B2A29" stroke-width="0.4999" stroke-miterlimit="10" stroke-linecap="round" stroke-linejoin="round"/>
<path d="M102.242 134.041V110.859H129.197V137.311H105.513C103.707 137.311 102.242 135.847 102.242 134.041Z" fill="#FBCB8E"/>
<path d="M102.242 134.041V110.859H129.197V137.311H105.513C103.707 137.311 102.242 135.847 102.242 134.041Z" stroke="#2B2A29" stroke-width="0.4999" stroke-miterlimit="10" stroke-linecap="round" stroke-linejoin="round"/>
<path d="M120.213 110.858H129.198V137.311H120.213C120.213 137.311 118.057 131.568 118.057 124.084C118.057 116.602 120.213 110.858 120.213 110.858Z" stroke="#2B2A29" stroke-width="0.4999" stroke-miterlimit="10" stroke-linecap="round" stroke-linejoin="round"/>
<path d="M102.242 5.05029H129.197V31.5019H102.242V5.05029Z" fill="#FBCB8E" stroke="#2B2A29" stroke-width="0.4999" stroke-miterlimit="10" stroke-linecap="round" stroke-linejoin="round"/>
<path d="M120.213 5.05029H129.197H129.198V31.5022H120.213C120.213 31.5022 118.057 25.7589 118.057 18.2762C118.057 17.4632 118.086 16.6772 118.131 15.9109C117.35 15.9559 116.548 15.9841 115.721 15.9841C108.095 15.9841 102.242 13.8675 102.242 13.8675V5.05029H120.213Z" stroke="#2B2A29" stroke-width="0.4999" stroke-miterlimit="10" stroke-linecap="round" stroke-linejoin="round"/>
<path d="M75.7383 31.5019H102.238V5.05029H75.7383V31.5019Z" fill="#FBCB8E" stroke="#2B2A29" stroke-width="0.4999" stroke-miterlimit="10" stroke-linecap="round" stroke-linejoin="round"/>
<path fill-rule="evenodd" clip-rule="evenodd" d="M101.63 5.71875H76.3594V14.2311C76.3547 21.7024 101.154 20.3483 101.63 28.7026V5.71875Z" fill="#9D9E9E"/>
<path d="M102.238 13.8675V5.05029H75.7383V13.8675C75.7383 13.8675 81.4924 15.9841 88.9886 15.9841C96.4859 15.9841 102.238 13.8675 102.238 13.8675Z" stroke="#2B2A29" stroke-width="0.4999" stroke-miterlimit="10" stroke-linecap="round" stroke-linejoin="round"/>
<path d="M52.4857 31.5022H75.7418V5.05029H49.2422V28.2597C49.2422 30.0505 50.6938 31.5022 52.4857 31.5022Z" fill="#FBCB8E"/>
<path d="M52.4857 31.5022H75.7418V5.05029H49.2422V28.2597C49.2422 30.0505 50.6938 31.5022 52.4857 31.5022Z" stroke="#2B2A29" stroke-width="0.4999" stroke-miterlimit="10" stroke-linecap="round" stroke-linejoin="round"/>
<path fill-rule="evenodd" clip-rule="evenodd" d="M75.1708 5.58887H49.9004V14.1012C49.8957 21.5726 74.6952 20.2184 75.1708 28.5727V5.58887Z" fill="#9D9E9E"/>
<path d="M75.7427 13.8675V5.05029H49.2422V13.8675C49.2422 13.8675 54.9963 15.9841 62.4925 15.9841C69.9898 15.9841 75.7427 13.8675 75.7427 13.8675Z" stroke="#2B2A29" stroke-width="0.4999" stroke-miterlimit="10" stroke-linecap="round" stroke-linejoin="round"/>
</svg>
