<svg width="114" height="165" viewBox="0 0 114 165" fill="none" xmlns="http://www.w3.org/2000/svg">
<path fill-rule="evenodd" clip-rule="evenodd" d="M0.794922 164.58V0.7146H113.402L112.977 137.156L71.482 164.58H0.794922Z" fill="#D9DADA"/>
<path d="M70.9839 99.7534H44.4834V43.4609H70.9839V99.7534Z" stroke="#FEFEFE" stroke-width="0.35" stroke-miterlimit="10"/>
<path d="M31.2449 56.6746V33.4663C31.2449 31.6744 29.7921 30.2219 28.0002 30.2219H4.29004V56.6746H31.2449Z" stroke="#FEFEFE" stroke-width="0.35" stroke-miterlimit="10"/>
<path fill-rule="evenodd" clip-rule="evenodd" d="M4.61621 56.1877V30.5776H13.377C21.0667 30.5729 19.6727 55.7058 28.2708 56.1877H4.61621Z" fill="#9D9E9E"/>
<path d="M13.2758 30.2219H4.29004V56.6746H13.2758C13.2758 56.6746 15.4325 50.9314 15.4325 43.4479C15.4325 35.9652 13.2758 30.2219 13.2758 30.2219Z" stroke="#FEFEFE" stroke-width="0.35" stroke-miterlimit="10"/>
<path d="M31.2449 56.6743H4.29004V83.127H31.2449V56.6743Z" stroke="#FEFEFE" stroke-width="0.35" stroke-miterlimit="10"/>
<path fill-rule="evenodd" clip-rule="evenodd" d="M4.81934 82.6482V57.0381H13.5801C21.2698 57.0334 19.8758 82.1662 28.4739 82.6482H4.81934Z" fill="#9D9E9E"/>
<path d="M13.2758 56.675H4.29004V83.1278H13.2758C13.2758 83.1278 15.4325 77.3845 15.4325 69.901C15.4325 62.4183 13.2758 56.675 13.2758 56.675Z" stroke="#FEFEFE" stroke-width="0.35" stroke-miterlimit="10"/>
<path d="M31.2449 83.1267H4.29004V109.579H31.2449V83.1267Z" stroke="#FEFEFE" stroke-width="0.35" stroke-miterlimit="10"/>
<path fill-rule="evenodd" clip-rule="evenodd" d="M4.69434 109.213V83.603H13.4551C21.1448 83.5983 19.7508 108.731 28.3489 109.213H4.69434Z" fill="#9D9E9E"/>
<path d="M13.2758 83.1274H4.29004V109.579H13.2758C13.2758 109.579 15.4325 103.836 15.4325 96.3534C15.4325 88.8707 13.2758 83.1274 13.2758 83.1274Z" stroke="#FEFEFE" stroke-width="0.35" stroke-miterlimit="10"/>
<path d="M31.2449 132.761V109.579H4.29004V136.031H27.975C29.7805 136.031 31.2449 134.568 31.2449 132.761Z" stroke="#FEFEFE" stroke-width="0.35" stroke-miterlimit="10"/>
<path fill-rule="evenodd" clip-rule="evenodd" d="M4.76465 135.628V110.018H13.5255C21.2151 110.013 19.8212 135.146 28.4192 135.628H4.76465Z" fill="#9D9E9E"/>
<path d="M13.2758 109.579H4.29004V136.032H13.2758C13.2758 136.032 15.4325 130.289 15.4325 122.805C15.4325 115.322 13.2758 109.579 13.2758 109.579Z" stroke="#FEFEFE" stroke-width="0.35" stroke-miterlimit="10"/>
<path d="M57.7466 30.2221H34.4908C32.6997 30.2221 31.2461 28.7704 31.2461 26.9785V3.77026H57.7466V30.2221Z" stroke="#FEFEFE" stroke-width="0.35" stroke-miterlimit="10"/>
<path fill-rule="evenodd" clip-rule="evenodd" d="M57.2819 4.31763H31.6719V13.0784C31.6672 20.7681 56.8 19.3741 57.2819 27.9722V4.31763Z" fill="#9D9E9E"/>
<path d="M31.2461 12.5875V3.77026H57.7466V12.5875C57.7466 12.5875 51.9925 14.7041 44.4963 14.7041C36.999 14.7041 31.2461 12.5875 31.2461 12.5875Z" stroke="#FEFEFE" stroke-width="0.35" stroke-miterlimit="10"/>
<path d="M81.0012 30.2221H57.7451V3.77026H84.2437V26.9796C84.2437 28.7704 82.792 30.2221 81.0012 30.2221V30.2221Z" stroke="#FEFEFE" stroke-width="0.35" stroke-miterlimit="10"/>
<path fill-rule="evenodd" clip-rule="evenodd" d="M83.8171 4.69141H58.207V13.4522C58.2023 21.1419 83.3351 19.7479 83.8171 28.346V4.69141Z" fill="#9D9E9E"/>
<path d="M57.7451 12.5875V3.77026H84.2448V12.5875C84.2448 12.5875 78.4908 14.7041 70.9946 14.7041C63.4984 14.7041 57.7451 12.5875 57.7451 12.5875Z" stroke="#FEFEFE" stroke-width="0.35" stroke-miterlimit="10"/>
<path d="M56.7144 76.871H55.363V71.5787L54.042 72.0872V70.9624L56.5707 69.9316H56.7144V76.871ZM61.2936 74.1903C61.009 74.4832 60.6967 74.6297 60.3568 74.6297C59.8289 74.6297 59.4144 74.4169 59.1132 73.9941C58.8092 73.5712 58.6572 73.0047 58.6572 72.2972C58.6572 71.8413 58.7429 71.4212 58.9142 71.0426C59.0855 70.664 59.326 70.3683 59.6327 70.1582C59.9395 69.951 60.2794 69.8459 60.6553 69.8459C61.0449 69.8459 61.3931 69.962 61.6999 70.1914C62.0039 70.4235 62.2416 70.7552 62.4101 71.189C62.5787 71.6229 62.6616 72.1148 62.6616 72.6675V73.1567C62.6616 74.3368 62.4019 75.2598 61.8823 75.9258C61.3627 76.5918 60.6276 76.929 59.6769 76.9428H59.5388V75.7821H59.6272C60.155 75.7793 60.5502 75.6412 60.8155 75.3703C61.0808 75.1023 61.2411 74.7071 61.2936 74.1903V74.1903ZM60.6995 73.5712C60.9592 73.5712 61.1637 73.3944 61.313 73.0379V72.4188C61.313 71.9656 61.2522 71.6091 61.1278 71.3493C61.0035 71.0923 60.8432 70.9624 60.6469 70.9624C60.4535 70.9624 60.2987 71.0896 60.1799 71.3466C60.0611 71.6036 60.0003 71.9131 60.0003 72.2806C60.0003 72.6814 60.0611 72.9964 60.1854 73.2258C60.3098 73.4552 60.4811 73.5712 60.6995 73.5712V73.5712Z" fill="#006672"/>
</svg>
