<svg width="124" height="166" viewBox="0 0 124 166" fill="none" xmlns="http://www.w3.org/2000/svg">
<path fill-rule="evenodd" clip-rule="evenodd" d="M0.323242 164.8V0.93457L123.384 1.71444L122.96 138.156L81.4644 165.579L0.323242 164.8Z" fill="#D9DADA"/>
<path d="M70.8834 100.753H44.3838V44.4609H70.8834V100.753Z" stroke="#FEFEFE" stroke-width="0.35" stroke-miterlimit="10"/>
<path d="M31.1483 31.2227H4.19336V57.6756H31.1483V31.2227Z" stroke="#FEFEFE" stroke-width="0.35" stroke-miterlimit="10"/>
<path d="M13.1783 31.2219H4.19336V57.6746H13.1783C13.1783 57.6746 15.335 51.9314 15.335 44.4479C15.335 36.9652 13.1783 31.2219 13.1783 31.2219Z" stroke="#FEFEFE" stroke-width="0.35" stroke-miterlimit="10"/>
<path d="M31.1483 57.6743H4.19336V84.127H31.1483V57.6743Z" stroke="#FEFEFE" stroke-width="0.35" stroke-miterlimit="10"/>
<path fill-rule="evenodd" clip-rule="evenodd" d="M4.5498 83.657V58.0469H14.3998C23.0454 58.0422 21.4785 83.175 31.1454 83.657H4.5498Z" fill="#9D9E9E"/>
<path d="M13.1783 57.675H4.19336V84.1278H13.1783C13.1783 84.1278 15.335 78.3845 15.335 70.901C15.335 63.4183 13.1783 57.675 13.1783 57.675Z" stroke="#FEFEFE" stroke-width="0.35" stroke-miterlimit="10"/>
<path d="M31.1483 84.1267H4.19336V110.579H31.1483V84.1267Z" stroke="#FEFEFE" stroke-width="0.35" stroke-miterlimit="10"/>
<path fill-rule="evenodd" clip-rule="evenodd" d="M4.91113 110.001V84.3911H14.0956C22.157 84.3864 20.6959 109.519 29.7096 110.001H4.91113V110.001Z" fill="#9D9E9E"/>
<path d="M13.1783 84.1274H4.19336V110.579H13.1783C13.1783 110.579 15.335 104.836 15.335 97.3534C15.335 89.8707 13.1783 84.1274 13.1783 84.1274Z" stroke="#FEFEFE" stroke-width="0.35" stroke-miterlimit="10"/>
<path d="M31.1483 133.761V110.579H4.19336V137.031H27.8775C29.6838 137.031 31.1483 135.568 31.1483 133.761Z" stroke="#FEFEFE" stroke-width="0.35" stroke-miterlimit="10"/>
<path fill-rule="evenodd" clip-rule="evenodd" d="M4.65723 136.692V111.082H13.7992C21.8232 111.077 20.3691 136.21 29.3411 136.692H4.65723Z" fill="#9D9E9E"/>
<path d="M13.1783 110.579H4.19336V137.032H13.1783C13.1783 137.032 15.335 131.289 15.335 123.805C15.335 116.322 13.1783 110.579 13.1783 110.579Z" stroke="#FEFEFE" stroke-width="0.35" stroke-miterlimit="10"/>
<path d="M57.649 31.2226H31.1494V4.771H57.649V31.2226Z" stroke="#FEFEFE" stroke-width="0.35" stroke-miterlimit="10"/>
<path fill-rule="evenodd" clip-rule="evenodd" d="M57.2556 5.59692H31.6455V14.3577C31.6408 22.0474 56.7736 20.6534 57.2556 29.2515V5.59692Z" fill="#9D9E9E"/>
<path d="M31.1494 13.5875V4.77026H57.649V13.5875C57.649 13.5875 51.895 15.7041 44.3988 15.7041C36.9015 15.7041 31.1494 13.5875 31.1494 13.5875Z" stroke="#FEFEFE" stroke-width="0.35" stroke-miterlimit="10"/>
<path d="M80.9017 31.2221H57.6455V4.77026H84.1452V27.9796C84.1452 29.7704 82.6936 31.2221 80.9017 31.2221Z" stroke="#FEFEFE" stroke-width="0.35" stroke-miterlimit="10"/>
<path fill-rule="evenodd" clip-rule="evenodd" d="M83.6775 5.23193H58.0674V13.9927C58.0627 21.6824 83.1955 20.2884 83.6775 28.8865V5.23193Z" fill="#9D9E9E"/>
<path d="M13.232 4.62061H4.24707V31.0725H13.232C13.232 31.0725 15.3885 25.3292 15.3885 17.8465C15.3885 17.0335 15.3595 16.2475 15.3136 15.4812C16.0954 15.5262 16.8968 15.5544 17.7245 15.5544C25.3503 15.5544 31.202 13.4378 31.202 13.4378V4.62061H13.232Z" stroke="#FEFEFE" stroke-width="0.35" stroke-miterlimit="10"/>
<path d="M57.6084 13.5875V4.77026H84.1081V13.5875C84.1081 13.5875 78.354 15.7041 70.8578 15.7041C63.3605 15.7041 57.6084 13.5875 57.6084 13.5875Z" stroke="#FEFEFE" stroke-width="0.35" stroke-miterlimit="10"/>
<path d="M58.2299 78.045H54.1455V77.0916L56.0191 74.7066C56.2595 74.3778 56.4336 74.0876 56.547 73.8389C56.6603 73.5901 56.7156 73.3525 56.7156 73.1231C56.7156 72.8163 56.663 72.5732 56.5553 72.3991C56.4475 72.2249 56.2954 72.1365 56.0965 72.1365C55.8781 72.1365 55.704 72.2388 55.5769 72.4405C55.447 72.645 55.3834 72.9324 55.3834 73.3H54.0293C54.0293 72.8744 54.1178 72.4847 54.2946 72.131C54.4715 71.78 54.7202 71.5064 55.038 71.3102C55.3558 71.1167 55.7179 71.02 56.1186 71.02C56.7376 71.02 57.2185 71.1914 57.5612 71.5313C57.9011 71.8712 58.0724 72.3576 58.0724 72.9849C58.0724 73.3746 57.9785 73.7725 57.7906 74.1732C57.5999 74.574 57.2572 75.0687 56.7625 75.6545L55.8727 76.9258H58.2299V78.045V78.045Z" fill="#006672"/>
<path d="M61.8882 78.0021H60.5368V72.7099L59.2158 73.2183V72.0936L61.7445 71.0627H61.8882V78.0021Z" fill="#006672"/>
</svg>
