<svg width="130" height="176" viewBox="0 0 130 176" fill="none" xmlns="http://www.w3.org/2000/svg">
<path fill-rule="evenodd" clip-rule="evenodd" d="M0.418945 173.696V0.159912H128.785L129.298 175.259L0.418945 173.696Z" fill="#D9DADA"/>
<path d="M97.457 30.1243H124.411V56.5772H97.457V30.1243Z" stroke="#FEFEFE" stroke-width="0.35" stroke-miterlimit="10"/>
<path d="M115.43 30.1235H124.415V56.5762H115.43C115.43 56.5762 113.273 50.833 113.273 43.3495C113.273 35.8668 115.43 30.1235 115.43 30.1235Z" stroke="#FEFEFE" stroke-width="0.35" stroke-miterlimit="10"/>
<path d="M97.457 84.4883H124.411V110.941H97.457V84.4883Z" stroke="#FEFEFE" stroke-width="0.35" stroke-miterlimit="10"/>
<path d="M115.43 84.489H124.415V110.942H115.43C115.43 110.942 113.273 105.198 113.273 97.7149C113.273 90.2323 115.43 84.489 115.43 84.489Z" stroke="#FEFEFE" stroke-width="0.35" stroke-miterlimit="10"/>
<path d="M97.457 110.941H124.411V137.393H97.457V110.941Z" stroke="#FEFEFE" stroke-width="0.35" stroke-miterlimit="10"/>
<path d="M115.43 110.941H124.415V137.393H115.43C115.43 137.393 113.273 131.65 113.273 124.167C113.273 116.685 115.43 110.941 115.43 110.941Z" stroke="#FEFEFE" stroke-width="0.35" stroke-miterlimit="10"/>
<path d="M97.457 160.575V137.393H124.411V163.845H100.727C98.9215 163.845 97.457 162.382 97.457 160.575Z" stroke="#FEFEFE" stroke-width="0.35" stroke-miterlimit="10"/>
<path d="M115.43 137.393H124.415V163.846H115.43C115.43 163.846 113.273 158.102 113.273 150.619C113.273 143.136 115.43 137.393 115.43 137.393Z" stroke="#FEFEFE" stroke-width="0.35" stroke-miterlimit="10"/>
<path d="M57.7207 99.655H84.2201V43.3625H57.7207V99.655Z" stroke="#FEFEFE" stroke-width="0.35" stroke-miterlimit="10"/>
<path d="M97.5215 57.2769H124.475V83.7298H97.5215V57.2769Z" stroke="#FEFEFE" stroke-width="0.35" stroke-miterlimit="10"/>
<path d="M115.494 57.2761H124.479V83.7288H115.494C115.494 83.7288 113.338 77.9856 113.338 70.5021C113.338 63.0194 115.494 57.2761 115.494 57.2761Z" stroke="#FEFEFE" stroke-width="0.35" stroke-miterlimit="10"/>
<path d="M70.75 30.4242H97.2497V3.97266H70.75V30.4242Z" stroke="#FEFEFE" stroke-width="0.35" stroke-miterlimit="10"/>
<path fill-rule="evenodd" clip-rule="evenodd" d="M96.7546 4.79932H71.1445V13.5601C71.1398 21.2498 96.2726 19.8559 96.7546 28.4539V4.79932Z" fill="#9D9E9E"/>
<path d="M97.238 12.6072V3.79004H70.7383V12.6072C70.7383 12.6072 76.4924 14.7238 83.9886 14.7238C91.4859 14.7238 97.238 12.6072 97.238 12.6072Z" stroke="#FEFEFE" stroke-width="0.35" stroke-miterlimit="10"/>
<path fill-rule="evenodd" clip-rule="evenodd" d="M119.367 29.7366V8.64917H97.8789V12.1023C97.8789 16.7382 102.848 19.583 105.89 19.583C106.719 19.583 107.52 19.5537 108.302 19.5087C108.256 20.2761 108.226 21.0618 108.226 21.8748C108.226 24.8601 109.042 29.7366 115.849 29.7366H119.367V29.7366Z" fill="url(#paint0_linear_44_2189)" fill-opacity="0.501961"/>
<path d="M115.169 3.823H124.154V30.2748H115.169C115.169 30.2748 113.013 24.5316 113.013 17.0489C113.013 16.2359 113.042 15.4499 113.088 14.6836C112.306 14.7286 111.504 14.7568 110.677 14.7568C103.051 14.7568 97.1992 12.6402 97.1992 12.6402V3.823H115.169Z" stroke="#FEFEFE" stroke-width="0.35" stroke-miterlimit="10"/>
<path d="M22.5493 30.5158H45.8054V4.06396H19.3057V27.2733C19.3057 29.0641 20.7574 30.5158 22.5493 30.5158Z" stroke="#FEFEFE" stroke-width="0.35" stroke-miterlimit="10"/>
<path fill-rule="evenodd" clip-rule="evenodd" d="M45.3856 4.52539H19.7754V13.2862C19.7707 20.9759 44.9036 19.5819 45.3856 28.1799V4.52539Z" fill="#9D9E9E"/>
<path d="M45.7731 12.6639V3.84668H19.2734V12.6639C19.2734 12.6639 25.0275 14.7805 32.5237 14.7805C40.021 14.7805 45.7731 12.6639 45.7731 12.6639Z" stroke="#FEFEFE" stroke-width="0.35" stroke-miterlimit="10"/>
<path d="M45.2949 30.5593H71.7946V4.10767H45.2949V30.5593Z" stroke="#FEFEFE" stroke-width="0.35" stroke-miterlimit="10"/>
<path fill-rule="evenodd" clip-rule="evenodd" d="M71.2995 4.93359H45.6895V13.6944C45.6848 21.3841 70.8175 19.9901 71.2995 28.5882V4.93359Z" fill="#9D9E9E"/>
<path d="M71.8317 12.6421V3.82495H45.332V12.6421C45.332 12.6421 51.0861 14.7588 58.5823 14.7588C66.0796 14.7588 71.8317 12.6421 71.8317 12.6421Z" stroke="#FEFEFE" stroke-width="0.35" stroke-miterlimit="10"/>
<path d="M70.7026 76.4161H66.618V75.4627L68.4917 73.0777C68.7322 72.7488 68.9063 72.4587 69.0196 72.21C69.1329 71.9612 69.1881 71.7236 69.1881 71.4942C69.1881 71.1874 69.1357 70.9442 69.0279 70.7701C68.9201 70.596 68.7681 70.5076 68.5691 70.5076C68.3508 70.5076 68.1767 70.6098 68.0496 70.8116C67.9197 71.0161 67.8561 71.3035 67.8561 71.6711H66.502C66.502 71.2455 66.5904 70.8558 66.7673 70.5021C66.9442 70.1511 67.1928 69.8775 67.5107 69.6813C67.8285 69.4878 68.1905 69.3911 68.5913 69.3911C69.2103 69.3911 69.6911 69.5625 70.0338 69.9024C70.3737 70.2423 70.5451 70.7287 70.5451 71.356C70.5451 71.7457 70.4511 72.1436 70.2632 72.5443C70.0725 72.9451 69.7299 73.4398 69.2352 74.0256L68.3452 75.2969H70.7026V76.4161V76.4161Z" fill="#006672"/>
<path d="M73.2645 72.3757H73.9168C74.1627 72.3757 74.3451 72.29 74.4612 72.1159C74.5773 71.9418 74.6353 71.7124 74.6353 71.4222C74.6353 71.1459 74.5772 70.9303 74.4584 70.7756C74.3396 70.6236 74.1793 70.5462 73.9776 70.5462C73.7896 70.5462 73.6376 70.618 73.5188 70.7645C73.3999 70.911 73.3391 71.0961 73.3391 71.3172H71.9933C71.9933 70.9552 72.0762 70.6319 72.2448 70.3444C72.4106 70.057 72.6427 69.8332 72.9439 69.6701C73.2424 69.5098 73.574 69.4297 73.9388 69.4297C74.5772 69.4297 75.0774 69.6066 75.4395 69.9575C75.8015 70.3085 75.9812 70.7921 75.9812 71.4029C75.9812 71.7179 75.901 72.0081 75.738 72.2762C75.5749 72.5442 75.3594 72.7515 75.0913 72.8952C75.4202 73.0334 75.6634 73.2407 75.8237 73.5198C75.984 73.7989 76.0641 74.1305 76.0641 74.5119C76.0641 75.1282 75.8678 75.6201 75.4754 75.9904C75.083 76.3635 74.569 76.5487 73.9306 76.5487C73.3364 76.5487 72.8555 76.3663 72.4852 75.9987C72.1149 75.6339 71.9297 75.1531 71.9297 74.5561H73.2783C73.2783 74.8021 73.3447 75.0094 73.4746 75.1779C73.6045 75.3465 73.7675 75.4322 73.9693 75.4322C74.1986 75.4322 74.3837 75.3465 74.5192 75.1752C74.6546 75.0038 74.7209 74.7745 74.7209 74.4898C74.7209 73.8072 74.4556 73.4645 73.925 73.4618H73.2645V72.3757V72.3757Z" fill="#006672"/>
<defs>
<linearGradient id="paint0_linear_44_2189" x1="101.657" y1="11.1633" x2="115.286" y2="27.4758" gradientUnits="userSpaceOnUse">
<stop stop-color="#9D9E9E"/>
<stop offset="1" stop-color="#B2B3B3"/>
</linearGradient>
</defs>
</svg>
