<svg width="123" height="165" viewBox="0 0 123 165" fill="none" xmlns="http://www.w3.org/2000/svg">
<path fill-rule="evenodd" clip-rule="evenodd" d="M0.482422 137.408V0.967041H122.891V164.832H35.07L0.482422 137.408Z" fill="#D9DADA"/>
<path d="M51.7861 100.753H78.2866V44.4609H51.7861V100.753Z" stroke="#FEFEFE" stroke-width="0.35" stroke-miterlimit="10"/>
<path d="M41.7701 31.2221H65.027V4.77026H38.5273V27.9796C38.5273 29.7704 39.979 31.2221 41.7701 31.2221V31.2221Z" stroke="#FEFEFE" stroke-width="0.35" stroke-miterlimit="10"/>
<path fill-rule="evenodd" clip-rule="evenodd" d="M64.5046 5.4248H38.8945V14.1856C38.8898 21.8753 64.0226 20.4813 64.5046 29.0794V5.4248Z" fill="#9D9E9E"/>
<path d="M65.025 13.5875V4.77026H38.5244V13.5875C38.5244 13.5875 44.2785 15.7041 51.7747 15.7041C59.272 15.7041 65.025 13.5875 65.025 13.5875Z" stroke="#FEFEFE" stroke-width="0.35" stroke-miterlimit="10"/>
<path fill-rule="evenodd" clip-rule="evenodd" d="M91.0095 4.94238H65.3994V13.7032C65.3947 21.3929 90.5275 19.9989 91.0095 28.597V4.94238Z" fill="#9D9E9E"/>
<path d="M65.0264 31.2221H88.2815C90.0723 31.2221 91.5259 29.7704 91.5259 27.9785V4.77026H65.0264V31.2221Z" stroke="#FEFEFE" stroke-width="0.35" stroke-miterlimit="10"/>
<path fill-rule="evenodd" clip-rule="evenodd" d="M91.5248 13.5882V4.771H65.0264V13.5882C65.0264 13.5882 70.7792 15.7048 78.2754 15.7048C85.7716 15.7048 91.5248 13.5882 91.5248 13.5882Z" fill="url(#paint0_linear_44_2185)"/>
<path d="M92.3545 57.6746V34.4663C92.3545 32.6744 93.807 31.2219 95.5989 31.2219H119.309V57.6746H92.3545Z" stroke="#FEFEFE" stroke-width="0.35" stroke-miterlimit="10"/>
<path d="M109.773 31.2219H118.757V57.6746H109.773C109.773 57.6746 107.616 51.9314 107.616 44.4479C107.616 36.9652 109.773 31.2219 109.773 31.2219Z" stroke="#FEFEFE" stroke-width="0.35" stroke-miterlimit="10"/>
<path d="M92.3545 57.6743H119.309V84.127H92.3545V57.6743Z" stroke="#FEFEFE" stroke-width="0.35" stroke-miterlimit="10"/>
<path d="M109.773 57.675H118.757V84.1278H109.773C109.773 84.1278 107.616 78.3845 107.616 70.901C107.616 63.4183 109.773 57.675 109.773 57.675Z" stroke="#FEFEFE" stroke-width="0.35" stroke-miterlimit="10"/>
<path d="M92.3545 84.1267H119.309V110.579H92.3545V84.1267Z" stroke="#FEFEFE" stroke-width="0.35" stroke-miterlimit="10"/>
<path d="M109.773 84.1274H118.757V110.579H109.773C109.773 110.579 107.616 104.836 107.616 97.3534C107.616 89.8707 109.773 84.1274 109.773 84.1274Z" stroke="#FEFEFE" stroke-width="0.35" stroke-miterlimit="10"/>
<path d="M92.3545 133.761V110.579H119.309V137.031H95.6254C93.8189 137.031 92.3545 135.568 92.3545 133.761Z" stroke="#FEFEFE" stroke-width="0.35" stroke-miterlimit="10"/>
<path d="M109.773 110.579H118.757V137.032H109.773C109.773 137.032 107.616 131.289 107.616 123.805C107.616 116.322 109.773 110.579 109.773 110.579Z" stroke="#FEFEFE" stroke-width="0.35" stroke-miterlimit="10"/>
<path d="M65.1391 78.0814H61.0545V77.128L62.9283 74.743C63.1687 74.4142 63.3428 74.124 63.4561 73.8752C63.5694 73.6265 63.6247 73.3889 63.6247 73.1595C63.6247 72.8527 63.5722 72.6095 63.4645 72.4354C63.3567 72.2613 63.2046 72.1729 63.0057 72.1729C62.7873 72.1729 62.6132 72.2751 62.4861 72.4769C62.3562 72.6814 62.2926 72.9688 62.2926 73.3363H60.9385C60.9385 72.9108 61.027 72.5211 61.2038 72.1674C61.3807 71.8164 61.6294 71.5428 61.9472 71.3466C62.265 71.1531 62.6271 71.0564 63.0278 71.0564C63.6468 71.0564 64.1277 71.2277 64.4704 71.5677C64.8103 71.9076 64.9816 72.394 64.9816 73.0213C64.9816 73.411 64.8877 73.8089 64.6997 74.2097C64.5091 74.6104 64.1664 75.105 63.6717 75.6909L62.7818 76.9622H65.1391V78.0814V78.0814ZM70.0141 75.2156C70.0141 76.1745 69.84 76.9069 69.4946 77.4126C69.1463 77.9211 68.6488 78.1754 68.0049 78.1754C67.3665 78.1754 66.8747 77.9294 66.5292 77.4347C66.181 76.9428 66.0013 76.2354 65.9875 75.3151V74.0051C65.9875 73.0517 66.1616 72.3194 66.5071 71.8136C66.8525 71.3079 67.3473 71.0564 67.9967 71.0564C68.6434 71.0564 69.1408 71.3079 69.4862 71.8081C69.8317 72.3083 70.0058 73.0241 70.0141 73.9554V75.2156V75.2156ZM68.6627 73.8117C68.6627 73.2673 68.6101 72.8555 68.5024 72.5819C68.3946 72.3083 68.2261 72.1729 67.9967 72.1729C67.5684 72.1729 67.3444 72.6731 67.3278 73.6735V75.4007C67.3278 75.959 67.3831 76.3735 67.4937 76.6471C67.6014 76.9207 67.7728 77.0589 68.0049 77.0589C68.2232 77.0589 68.3864 76.9318 68.4942 76.6747C68.5992 76.4177 68.6544 76.0281 68.6627 75.5002V73.8117V73.8117Z" fill="#006672"/>
<defs>
<linearGradient id="paint0_linear_44_2185" x1="91.5251" y1="10.2374" x2="65.0255" y2="10.2374" gradientUnits="userSpaceOnUse">
<stop stop-color="#D2D3D5"/>
<stop offset="1" stop-color="#E6E7E8"/>
</linearGradient>
</defs>
</svg>
