<svg width="45" height="45" viewBox="0 0 45 45" fill="none" xmlns="http://www.w3.org/2000/svg">
<path d="M44.0229 38.9581V6.15173C44.0229 3.21176 41.6407 0.82959 38.7008 0.82959H0.571289V44.2812H38.7008C41.6407 44.2812 44.0229 41.8977 44.0229 38.9581Z" fill="#FBCB8E"/>
<path d="M44.0229 38.9581V6.15173C44.0229 3.21176 41.6407 0.82959 38.7008 0.82959H0.571289V44.2812H38.7008C41.6407 44.2812 44.0229 41.8977 44.0229 38.9581Z" stroke="#2B2A29" stroke-width="0.4999" stroke-miterlimit="10" stroke-linecap="round" stroke-linejoin="round"/>
<path fill-rule="evenodd" clip-rule="evenodd" d="M1.11035 43.723V1.56177H15.5943C28.3075 1.55394 26.0033 42.9292 40.2182 43.723H1.11035Z" fill="#9D9E9E"/>
<path d="M15.0543 0.829102H0.570312V44.281H15.0543C15.0543 44.281 18.5313 34.8467 18.5313 22.5552C18.5313 10.2637 15.0543 0.829102 15.0543 0.829102Z" stroke="#2B2A29" stroke-width="0.4999" stroke-miterlimit="10" stroke-linecap="round" stroke-linejoin="round"/>
</svg>
