<svg width="45" height="45" viewBox="0 0 45 45" fill="none" xmlns="http://www.w3.org/2000/svg">
<path d="M38.7769 43.9514H5.97055C3.03057 43.9514 0.648438 41.5692 0.648438 38.6292V0.499756H44.1V38.6292C44.1 41.5692 41.7165 43.9514 38.7769 43.9514Z" fill="#FBCB8E"/>
<path d="M38.7769 43.9514H5.97055C3.03057 43.9514 0.648438 41.5692 0.648438 38.6292V0.499756H44.1V38.6292C44.1 41.5692 41.7165 43.9514 38.7769 43.9514Z" stroke="#2B2A29" stroke-width="0.4999" stroke-miterlimit="10" stroke-linecap="round" stroke-linejoin="round"/>
<path fill-rule="evenodd" clip-rule="evenodd" d="M43.2003 1.03955H1.03906V15.5235C1.03123 28.2366 42.4064 25.9324 43.2003 40.1474V1.03955V1.03955Z" fill="#9D9E9E"/>
<path d="M0.646484 14.9829V0.499023H44.0985V14.9829C44.0985 14.9829 34.6642 18.46 22.3727 18.46C10.0811 18.46 0.646484 14.9829 0.646484 14.9829Z" stroke="#2B2A29" stroke-width="0.4999" stroke-miterlimit="10" stroke-linecap="round" stroke-linejoin="round"/>
</svg>
