<svg xmlns="http://www.w3.org/2000/svg"><symbol fill="none" id="sprite-cabin-1-res" viewBox="0 0 146 248"><title>cabin-1-res</title><path d="M145.702.628H.438v246.489h145.264V.628Z" fill="#D9DADA"/><path d="M46.912 144.413v56.293h56.293v-26.499H73.412v-29.794h-26.5Z" stroke="#FEFEFE" stroke-width=".35" stroke-miterlimit="10"/><path d="M32.424 214.987H5.469v-26.453h26.955v26.453Z" fill="#FBCB8E" stroke="#2B2A29" stroke-width=".5" stroke-miterlimit="10" stroke-linecap="round" stroke-linejoin="round"/><path fill-rule="evenodd" clip-rule="evenodd" d="M6.063 214.266v-25.27h8.512c7.472-.005 6.117 24.795 14.471 25.27H6.063Z" fill="#9D9E9E"/><path d="M14.454 214.987H5.469v-26.452h8.985s2.156 5.743 2.156 13.226c0 7.483-2.156 13.226-2.156 13.226v0Z" stroke="#2B2A29" stroke-width=".5" stroke-miterlimit="10" stroke-linecap="round" stroke-linejoin="round"/><path d="M32.424 188.535H5.469v-26.453h26.955v26.453Z" fill="#FBCB8E" stroke="#2B2A29" stroke-width=".5" stroke-miterlimit="10" stroke-linecap="round" stroke-linejoin="round"/><path fill-rule="evenodd" clip-rule="evenodd" d="M5.781 187.845v-25.27h8.513c7.471-.005 6.117 24.795 14.471 25.27H5.781Z" fill="#9D9E9E"/><path d="M14.454 188.534H5.469v-26.452h8.985s2.156 5.743 2.156 13.226c0 7.483-2.156 13.226-2.156 13.226v0Z" stroke="#2B2A29" stroke-width=".5" stroke-miterlimit="10" stroke-linecap="round" stroke-linejoin="round"/><path d="M32.424 162.082H5.469v-26.451h26.955v26.451Z" fill="#FBCB8E" stroke="#2B2A29" stroke-width=".5" stroke-miterlimit="10" stroke-linecap="round" stroke-linejoin="round"/><path fill-rule="evenodd" clip-rule="evenodd" d="M5.982 161.385v-25.27h8.513c7.471-.005 6.117 24.794 14.471 25.27H5.982Z" fill="#9D9E9E"/><path d="M14.454 162.082H5.469V135.63h8.985s2.156 5.743 2.156 13.226c0 7.482-2.156 13.226-2.156 13.226v0Z" stroke="#2B2A29" stroke-width=".5" stroke-miterlimit="10" stroke-linecap="round" stroke-linejoin="round"/><path d="M32.424 112.448v23.182H5.469v-26.452h23.684a3.27 3.27 0 0 1 3.27 3.27Z" fill="#FBCB8E"/><path d="M32.424 112.448v23.182H5.469v-26.452h23.684a3.27 3.27 0 0 1 3.27 3.27v0Z" stroke="#2B2A29" stroke-width=".5" stroke-miterlimit="10" stroke-linecap="round" stroke-linejoin="round"/><path fill-rule="evenodd" clip-rule="evenodd" d="M6.084 134.944v-25.27h8.512c7.472-.005 6.118 24.794 14.472 25.27H6.084Z" fill="#9D9E9E"/><path d="M14.454 135.63H5.469v-26.452h8.985s2.156 5.743 2.156 13.226c0 7.483-2.156 13.226-2.156 13.226v0Z" stroke="#2B2A29" stroke-width=".5" stroke-miterlimit="10" stroke-linecap="round" stroke-linejoin="round"/><path d="M32.424 241.439H5.469v-26.452h26.955v26.452Z" fill="#FBCB8E" stroke="#2B2A29" stroke-width=".5" stroke-miterlimit="10" stroke-linecap="round" stroke-linejoin="round"/><path d="M14.454 241.439H5.469v-26.452h8.985s2.156 5.743 2.156 13.226c0 .813-.029 1.599-.074 2.365a41.773 41.773 0 0 1 2.41-.073c7.626 0 13.479 2.117 13.479 2.117v8.817H14.454Z" stroke="#2B2A29" stroke-width=".5" stroke-miterlimit="10" stroke-linecap="round" stroke-linejoin="round"/><path d="M33.158 214.457v26.955h26.453v-26.955H33.158Z" fill="#FBCB8E" stroke="#2B2A29" stroke-width=".5" stroke-miterlimit="10" stroke-linecap="round" stroke-linejoin="round"/><path d="M33.158 232.427v8.985h26.453v-8.985s-5.743-2.156-13.227-2.156c-7.483 0-13.226 2.156-13.226 2.156v0Z" stroke="#2B2A29" stroke-width=".5" stroke-miterlimit="10" stroke-linecap="round" stroke-linejoin="round"/><path d="M59.613 214.457v26.955h26.453v-26.955H59.613Z" fill="#FBCB8E" stroke="#2B2A29" stroke-width=".5" stroke-miterlimit="10" stroke-linecap="round" stroke-linejoin="round"/><path d="M59.613 232.427v8.985h26.453v-8.985s-5.743-2.156-13.227-2.156c-7.482 0-13.226 2.156-13.226 2.156v0Z" stroke="#2B2A29" stroke-width=".5" stroke-miterlimit="10" stroke-linecap="round" stroke-linejoin="round"/><path d="M86.066 214.457v26.955h26.452v-26.955H86.066Z" fill="#FBCB8E" stroke="#2B2A29" stroke-width=".5" stroke-miterlimit="10" stroke-linecap="round" stroke-linejoin="round"/><path d="M86.066 232.427v8.985h26.452v-8.985s-5.743-2.156-13.226-2.156c-7.482 0-13.226 2.156-13.226 2.156v0Z" stroke="#2B2A29" stroke-width=".5" stroke-miterlimit="10" stroke-linecap="round" stroke-linejoin="round"/><path d="M135.696 214.457h-23.182v26.955h26.452v-23.685a3.27 3.27 0 0 0-3.27-3.27Z" fill="#FBCB8E"/><path d="M135.696 214.457h-23.182v26.955h26.452v-23.685a3.27 3.27 0 0 0-3.27-3.27v0Z" stroke="#2B2A29" stroke-width=".5" stroke-miterlimit="10" stroke-linecap="round" stroke-linejoin="round"/><path d="M112.514 232.427v8.985h26.452v-8.985s-5.743-2.156-13.226-2.156c-7.483 0-13.226 2.156-13.226 2.156v0Z" stroke="#2B2A29" stroke-width=".5" stroke-miterlimit="10" stroke-linecap="round" stroke-linejoin="round"/><path d="M60.72 188.572h-1.352v-5.292l-1.321.508v-1.125l2.529-1.03h.143v6.939Zm5.85-5.088c0 .335-.072.633-.213.893-.144.262-.34.47-.591.624.284.163.51.384.677.669.163.285.246.619.246 1.003 0 .617-.177 1.1-.534 1.457-.356.356-.84.536-1.45.536-.611 0-1.098-.18-1.46-.536-.362-.357-.544-.84-.544-1.457 0-.384.083-.721.248-1.006a1.72 1.72 0 0 1 .68-.666 1.611 1.611 0 0 1-.594-.624 1.816 1.816 0 0 1-.215-.893c0-.605.168-1.08.508-1.423.34-.343.796-.514 1.368-.514.578 0 1.034.171 1.37.517.335.345.504.82.504 1.42Zm-1.866 4.065c.202 0 .36-.085.47-.259.108-.175.163-.415.163-.722 0-.306-.058-.55-.171-.724a.534.534 0 0 0-.47-.262.543.543 0 0 0-.475.262c-.116.174-.174.418-.174.724 0 .307.058.547.174.722a.547.547 0 0 0 .483.259Zm.523-3.996c0-.268-.045-.483-.13-.646a.424.424 0 0 0-.401-.244.422.422 0 0 0-.39.235c-.09.158-.135.376-.135.655 0 .274.044.495.135.661a.425.425 0 0 0 .398.248.42.42 0 0 0 .396-.248c.085-.166.127-.387.127-.661Z" fill="#006672"/></symbol><symbol fill="none" id="sprite-cabin-1" viewBox="0 0 147 247"><title>cabin-1</title><path d="M146.222.493H.958v246.489h145.264V.493Z" fill="#D9DADA"/><path d="M47.434 144.278v56.293h56.292v-26.499H73.933v-29.794h-26.5Zm-13.238-33.225v23.256H7.743V107.81h23.21a3.243 3.243 0 0 1 3.243 3.243Z" stroke="#FEFEFE" stroke-width=".35" stroke-miterlimit="10"/><path d="M16.56 134.309H7.744V107.81h8.818s2.116 5.754 2.116 13.25c0 7.497-2.116 13.249-2.116 13.249Zm17.636 26.501H7.743v-26.501h26.453v26.501Z" stroke="#FEFEFE" stroke-width=".35" stroke-miterlimit="10"/><path d="M16.56 160.81H7.744v-26.501h8.818s2.116 5.754 2.116 13.25c0 7.497-2.116 13.251-2.116 13.251Z" stroke="#FEFEFE" stroke-width=".35" stroke-miterlimit="10"/><path d="M34.196 187.308H7.743v-26.499h26.453v26.499Z" stroke="#FEFEFE" stroke-width=".35" stroke-miterlimit="10"/><path fill-rule="evenodd" clip-rule="evenodd" d="M7.788 186.793v-25.61h9.85c8.646-.005 7.079 25.128 16.746 25.61H7.788Z" fill="#9D9E9E"/><path d="M16.56 187.309H7.744v-26.5h8.818s2.116 5.754 2.116 13.251-2.116 13.249-2.116 13.249Z" stroke="#FEFEFE" stroke-width=".35" stroke-miterlimit="10"/><path d="M34.196 213.809H7.743v-26.501h26.453v26.501Z" stroke="#FEFEFE" stroke-width=".35" stroke-miterlimit="10"/><path fill-rule="evenodd" clip-rule="evenodd" d="M8.102 213.308v-25.61h9.235c8.107-.004 6.638 25.128 15.702 25.61H8.102Z" fill="#9D9E9E"/><path d="M16.56 213.809H7.744v-26.5h8.818s2.116 5.754 2.116 13.25c0 7.497-2.116 13.25-2.116 13.25Z" stroke="#FEFEFE" stroke-width=".35" stroke-miterlimit="10"/><path d="M7.743 231.778v8.986h26.453v-8.986s-5.743-2.155-13.227-2.155c-.812 0-1.599.028-2.365.074.044-.781.073-1.584.073-2.411 0-7.625-2.117-13.478-2.117-13.478H7.743v17.97Zm52.905-17.97H34.196v26.955h26.452v-26.955Z" stroke="#FEFEFE" stroke-width=".35" stroke-miterlimit="10"/><path d="M34.196 231.778v8.986h26.452v-8.986s-5.743-2.155-13.227-2.155c-7.481 0-13.225 2.155-13.225 2.155Zm52.904-17.97H60.648v26.955H87.1v-26.955Z" stroke="#FEFEFE" stroke-width=".35" stroke-miterlimit="10"/><path d="M60.648 231.778v8.986H87.1v-8.986s-5.743-2.155-13.227-2.155c-7.482 0-13.226 2.155-13.226 2.155Z" stroke="#FEFEFE" stroke-width=".35" stroke-miterlimit="10"/><path d="M113.551 213.808H87.099v26.955h26.452v-26.955Z" stroke="#FEFEFE" stroke-width=".35" stroke-miterlimit="10"/><path d="M87.102 231.778v8.986h26.452v-8.986s-5.743-2.155-13.227-2.155c-7.482 0-13.225 2.155-13.225 2.155Z" stroke="#FEFEFE" stroke-width=".35" stroke-miterlimit="10"/><path d="M136.733 213.809h-23.181v26.955h26.451v-23.685a3.27 3.27 0 0 0-3.27-3.27Z" stroke="#FEFEFE" stroke-width=".35" stroke-miterlimit="10"/><path d="M113.552 231.778v8.986h26.451v-8.986s-5.743-2.155-13.226-2.155c-7.482 0-13.225 2.155-13.225 2.155Z" stroke="#FEFEFE" stroke-width=".35" stroke-miterlimit="10"/><path d="M61.722 189.572h-1.351v-5.292l-1.321.508v-1.125l2.529-1.03h.143v6.939Zm5.85-5.088c0 .335-.071.633-.212.893-.144.262-.34.47-.592.624.285.163.512.384.677.669.164.285.247.619.247 1.003 0 .617-.177 1.1-.534 1.457-.356.356-.84.536-1.45.536-.611 0-1.098-.18-1.46-.536-.362-.357-.544-.84-.544-1.457 0-.384.082-.721.248-1.006.163-.284.39-.508.68-.666a1.61 1.61 0 0 1-.594-.624 1.816 1.816 0 0 1-.215-.893c0-.605.168-1.08.508-1.423.34-.343.796-.514 1.368-.514.578 0 1.034.171 1.37.517.335.345.504.82.504 1.42Zm-1.865 4.065c.202 0 .36-.085.47-.259.108-.175.163-.415.163-.722 0-.306-.058-.55-.171-.724a.534.534 0 0 0-.47-.262.543.543 0 0 0-.475.262c-.117.174-.175.418-.175.724 0 .307.058.547.175.722a.548.548 0 0 0 .483.259Zm.523-3.996c0-.268-.045-.483-.13-.646a.424.424 0 0 0-.401-.244.422.422 0 0 0-.39.235c-.09.158-.135.376-.135.655 0 .274.044.495.135.661a.426.426 0 0 0 .398.248c.177 0 .31-.082.395-.248.086-.166.127-.387.127-.661Z" fill="#006672"/></symbol><symbol fill="none" id="sprite-cabin-2-res" viewBox="0 0 113 165"><title>cabin-2-res</title><path fill-rule="evenodd" clip-rule="evenodd" d="M.273 164.715V.85H112.88l-.424 136.441-41.496 27.424H.273Z" fill="#D9DADA"/><path d="M70.461 99.888h-26.5V43.596h26.5v56.292Z" stroke="#FEFEFE" stroke-width=".35" stroke-miterlimit="10"/><path d="M30.724 56.81V33.6a3.245 3.245 0 0 0-3.244-3.244H3.77V56.81h26.954Z" fill="#FBCB8E"/><path d="M30.724 56.81V33.6a3.245 3.245 0 0 0-3.244-3.244H3.77V56.81h26.954Z" stroke="#2B2A29" stroke-width=".5" stroke-miterlimit="10" stroke-linecap="round" stroke-linejoin="round"/><path fill-rule="evenodd" clip-rule="evenodd" d="M4.39 56.206v-25.27h8.513c7.471-.006 6.117 24.794 14.472 25.27H4.39Z" fill="#9D9E9E"/><path d="M12.755 30.357H3.77V56.81h8.985s2.157-5.744 2.157-13.227c0-7.483-2.157-13.226-2.157-13.226Z" stroke="#2B2A29" stroke-width=".5" stroke-miterlimit="10" stroke-linecap="round" stroke-linejoin="round"/><path d="M30.724 56.81H3.77v26.452h26.954V56.809Z" fill="#FBCB8E" stroke="#2B2A29" stroke-width=".5" stroke-miterlimit="10" stroke-linecap="round" stroke-linejoin="round"/><path fill-rule="evenodd" clip-rule="evenodd" d="M4.51 82.842v-25.27h8.512c7.472-.005 6.117 24.795 14.472 25.27H4.51Z" fill="#9D9E9E"/><path d="M12.755 56.81H3.77v26.453h8.985s2.157-5.744 2.157-13.227c0-7.483-2.157-13.226-2.157-13.226Z" stroke="#2B2A29" stroke-width=".5" stroke-miterlimit="10" stroke-linecap="round" stroke-linejoin="round"/><path d="M30.724 83.262H3.77v26.452h26.954V83.262Z" fill="#FBCB8E" stroke="#2B2A29" stroke-width=".5" stroke-miterlimit="10" stroke-linecap="round" stroke-linejoin="round"/><path fill-rule="evenodd" clip-rule="evenodd" d="M4.121 109.077v-25.27h8.512c7.472-.005 6.118 24.794 14.472 25.27H4.12Z" fill="#9D9E9E"/><path d="M12.755 83.262H3.77v26.452h8.985s2.157-5.743 2.157-13.226c0-7.483-2.157-13.226-2.157-13.226Z" stroke="#2B2A29" stroke-width=".5" stroke-miterlimit="10" stroke-linecap="round" stroke-linejoin="round"/><path d="M30.724 132.896v-23.182H3.77v26.452h23.684a3.27 3.27 0 0 0 3.27-3.27Z" fill="#FBCB8E"/><path d="M30.724 132.896v-23.182H3.77v26.452h23.684a3.27 3.27 0 0 0 3.27-3.27Z" stroke="#2B2A29" stroke-width=".5" stroke-miterlimit="10" stroke-linecap="round" stroke-linejoin="round"/><path fill-rule="evenodd" clip-rule="evenodd" d="M4.504 135.61v-25.27h8.512c7.472-.005 6.118 24.795 14.472 25.27H4.504Z" fill="#9D9E9E"/><path d="M12.755 109.714H3.77v26.453h8.985s2.157-5.744 2.157-13.227c0-7.483-2.157-13.226-2.157-13.226Z" stroke="#2B2A29" stroke-width=".5" stroke-miterlimit="10" stroke-linecap="round" stroke-linejoin="round"/><path d="M57.227 30.357H33.971a3.244 3.244 0 0 1-3.244-3.244V3.905h26.5v26.452Z" fill="#FBCB8E"/><path d="M57.227 30.357H33.971a3.244 3.244 0 0 1-3.244-3.244V3.905h26.5v26.452Z" stroke="#2B2A29" stroke-width=".5" stroke-miterlimit="10" stroke-linecap="round" stroke-linejoin="round"/><path fill-rule="evenodd" clip-rule="evenodd" d="M56.499 4.773h-25.27v8.512c-.005 7.472 24.794 6.117 25.27 14.472V4.773Z" fill="#9D9E9E"/><path d="M30.727 12.723V3.906h26.5v8.817s-5.754 2.117-13.25 2.117c-7.497 0-13.25-2.117-13.25-2.117Z" stroke="#2B2A29" stroke-width=".5" stroke-miterlimit="10" stroke-linecap="round" stroke-linejoin="round"/><path d="M80.479 30.357H57.223V3.905H83.72v23.21a3.242 3.242 0 0 1-3.242 3.242Z" fill="#FBCB8E"/><path d="M80.479 30.357H57.223V3.905H83.72v23.21a3.242 3.242 0 0 1-3.242 3.242v0Z" stroke="#2B2A29" stroke-width=".5" stroke-miterlimit="10" stroke-linecap="round" stroke-linejoin="round"/><path fill-rule="evenodd" clip-rule="evenodd" d="M83.136 4.4h-25.27v8.513c-.005 7.472 24.794 6.117 25.27 14.472V4.4Z" fill="#9D9E9E"/><path d="M57.223 12.723V3.906h26.5v8.817s-5.755 2.117-13.25 2.117c-7.497 0-13.25-2.117-13.25-2.117Z" stroke="#2B2A29" stroke-width=".5" stroke-miterlimit="10" stroke-linecap="round" stroke-linejoin="round"/><path d="M55.712 75.87H54.36v-5.29l-1.32.508v-1.125l2.528-1.03h.144v6.939Zm4.579-2.68c-.285.293-.597.44-.937.44-.528 0-.943-.213-1.244-.636-.304-.423-.456-.99-.456-1.697 0-.456.086-.876.257-1.255.172-.378.412-.674.719-.884a1.785 1.785 0 0 1 1.022-.312 1.7 1.7 0 0 1 1.045.345c.304.232.542.564.71.998.169.434.252.926.252 1.478v.49c0 1.18-.26 2.103-.78 2.769-.52.666-1.254 1.003-2.205 1.017h-.138v-1.161h.088c.528-.003.923-.141 1.189-.412.265-.268.425-.663.478-1.18Zm-.594-.619c.26 0 .464-.177.613-.533v-.62c0-.453-.06-.81-.185-1.069-.124-.257-.285-.387-.481-.387-.193 0-.348.127-.467.384-.119.257-.18.567-.18.934 0 .401.061.716.185.945.125.23.296.346.514.346Z" fill="#006672"/></symbol><symbol fill="none" id="sprite-cabin-2" viewBox="0 0 114 165"><title>cabin-2</title><path fill-rule="evenodd" clip-rule="evenodd" d="M.795 164.58V.715h112.607l-.425 136.441-41.495 27.424H.795Z" fill="#D9DADA"/><path d="M70.984 99.753h-26.5V43.461h26.5v56.292ZM31.245 56.675V33.466A3.245 3.245 0 0 0 28 30.222H4.29v26.453h26.955Z" stroke="#FEFEFE" stroke-width=".35" stroke-miterlimit="10"/><path fill-rule="evenodd" clip-rule="evenodd" d="M4.616 56.188v-25.61h8.761c7.69-.005 6.296 25.128 14.894 25.61H4.616Z" fill="#9D9E9E"/><path d="M13.276 30.222H4.29v26.453h8.986s2.156-5.744 2.156-13.227c0-7.483-2.156-13.226-2.156-13.226Z" stroke="#FEFEFE" stroke-width=".35" stroke-miterlimit="10"/><path d="M31.245 56.674H4.29v26.453h26.955V56.674Z" stroke="#FEFEFE" stroke-width=".35" stroke-miterlimit="10"/><path fill-rule="evenodd" clip-rule="evenodd" d="M4.82 82.648v-25.61h8.76c7.69-.005 6.296 25.128 14.894 25.61H4.819Z" fill="#9D9E9E"/><path d="M13.276 56.675H4.29v26.453h8.986s2.156-5.743 2.156-13.227c0-7.483-2.156-13.226-2.156-13.226Z" stroke="#FEFEFE" stroke-width=".35" stroke-miterlimit="10"/><path d="M31.245 83.127H4.29v26.452h26.955V83.127Z" stroke="#FEFEFE" stroke-width=".35" stroke-miterlimit="10"/><path fill-rule="evenodd" clip-rule="evenodd" d="M4.694 109.213v-25.61h8.761c7.69-.005 6.296 25.128 14.894 25.61H4.694Z" fill="#9D9E9E"/><path d="M13.276 83.127H4.29v26.452h8.986s2.156-5.743 2.156-13.226c0-7.482-2.156-13.226-2.156-13.226Zm17.969 49.634v-23.182H4.29v26.452h23.685a3.27 3.27 0 0 0 3.27-3.27Z" stroke="#FEFEFE" stroke-width=".35" stroke-miterlimit="10"/><path fill-rule="evenodd" clip-rule="evenodd" d="M4.765 135.628v-25.61h8.76c7.69-.005 6.296 25.128 14.894 25.61H4.765Z" fill="#9D9E9E"/><path d="M13.276 109.579H4.29v26.453h8.986s2.156-5.743 2.156-13.227c0-7.483-2.156-13.226-2.156-13.226Zm44.471-79.357H34.49a3.244 3.244 0 0 1-3.245-3.244V3.77h26.5v26.452Z" stroke="#FEFEFE" stroke-width=".35" stroke-miterlimit="10"/><path fill-rule="evenodd" clip-rule="evenodd" d="M57.282 4.318h-25.61v8.76c-.005 7.69 25.128 6.296 25.61 14.894V4.318Z" fill="#9D9E9E"/><path d="M31.246 12.588V3.77h26.5v8.818s-5.754 2.116-13.25 2.116c-7.497 0-13.25-2.117-13.25-2.117Z" stroke="#FEFEFE" stroke-width=".35" stroke-miterlimit="10"/><path d="M81.001 30.222H57.745V3.77h26.499v23.21A3.242 3.242 0 0 1 81 30.222Z" stroke="#FEFEFE" stroke-width=".35" stroke-miterlimit="10"/><path fill-rule="evenodd" clip-rule="evenodd" d="M83.817 4.691h-25.61v8.761c-.005 7.69 25.128 6.296 25.61 14.894V4.691Z" fill="#9D9E9E"/><path d="M57.745 12.588V3.77h26.5v8.818s-5.754 2.116-13.25 2.116c-7.497 0-13.25-2.117-13.25-2.117Z" stroke="#FEFEFE" stroke-width=".35" stroke-miterlimit="10"/><path d="M56.714 76.871h-1.351v-5.292l-1.321.508v-1.125l2.529-1.03h.143v6.939Zm4.58-2.68c-.285.292-.597.439-.937.439-.528 0-.943-.213-1.244-.636-.304-.423-.456-.99-.456-1.697 0-.456.086-.876.257-1.254.172-.379.412-.675.719-.885a1.786 1.786 0 0 1 1.022-.312 1.7 1.7 0 0 1 1.045.345c.304.233.542.564.71.998.169.434.252.926.252 1.479v.489c0 1.18-.26 2.103-.78 2.769-.52.666-1.254 1.003-2.205 1.017h-.138v-1.16h.088c.528-.004.923-.142 1.188-.413.266-.268.426-.663.479-1.18Zm-.594-.62c.26 0 .464-.177.613-.533v-.62c0-.452-.06-.809-.185-1.069-.124-.257-.285-.387-.481-.387-.194 0-.348.128-.467.385-.119.257-.18.566-.18.934 0 .4.061.715.185.945.125.23.296.345.514.345Z" fill="#006672"/></symbol><symbol fill="none" id="sprite-cabin-3-res" viewBox="0 0 124 164"><title>cabin-3-res</title><path fill-rule="evenodd" clip-rule="evenodd" d="M.959 136.543V.103h122.409v163.864H35.547L.959 136.543Z" fill="#D9DADA"/><path d="M51.988 99.888h26.5V43.596h-26.5v56.292Z" stroke="#FEFEFE" stroke-width=".35" stroke-miterlimit="10"/><path d="M41.971 30.357h23.256V3.905h-26.5v23.208a3.244 3.244 0 0 0 3.244 3.244Z" fill="#FBCB8E"/><path d="M41.971 30.357h23.256V3.905h-26.5v23.208a3.244 3.244 0 0 0 3.244 3.244v0Z" stroke="#2B2A29" stroke-width=".5" stroke-miterlimit="10" stroke-linecap="round" stroke-linejoin="round"/><path fill-rule="evenodd" clip-rule="evenodd" d="M64.57 4.79H39.298v8.512c-.005 7.471 24.795 6.117 25.27 14.471V4.79Z" fill="#9D9E9E"/><path d="M65.227 12.723V3.906h-26.5v8.817s5.754 2.117 13.25 2.117c7.497 0 13.25-2.117 13.25-2.117Z" stroke="#2B2A29" stroke-width=".5" stroke-miterlimit="10" stroke-linecap="round" stroke-linejoin="round"/><path d="M65.228 30.357h23.256a3.244 3.244 0 0 0 3.244-3.244V3.905h-26.5v26.452Z" fill="#FBCB8E"/><path d="M65.228 30.357h23.256a3.244 3.244 0 0 0 3.244-3.244V3.905h-26.5v26.452Z" stroke="#2B2A29" stroke-width=".5" stroke-miterlimit="10" stroke-linecap="round" stroke-linejoin="round"/><path fill-rule="evenodd" clip-rule="evenodd" d="M91.353 4.424H66.082v8.512c-.005 7.471 24.795 6.117 25.27 14.472V4.424Z" fill="#9D9E9E"/><path d="M91.728 12.723V3.906h-26.5v8.817s5.755 2.117 13.25 2.117c7.497 0 13.25-2.117 13.25-2.117Z" stroke="#2B2A29" stroke-width=".5" stroke-miterlimit="10" stroke-linecap="round" stroke-linejoin="round"/><path d="M92.557 56.81V33.6a3.244 3.244 0 0 1 3.244-3.244h23.71V56.81H92.557Z" fill="#FBCB8E"/><path d="M92.557 56.81V33.6a3.244 3.244 0 0 1 3.244-3.244h23.71V56.81H92.557Z" stroke="#2B2A29" stroke-width=".5" stroke-miterlimit="10" stroke-linecap="round" stroke-linejoin="round"/><path d="M109.973 30.357h8.985V56.81h-8.985s-2.157-5.744-2.157-13.227c0-7.483 2.157-13.226 2.157-13.226Z" stroke="#2B2A29" stroke-width=".5" stroke-miterlimit="10" stroke-linecap="round" stroke-linejoin="round"/><path d="M92.557 56.81h26.954v26.452H92.557V56.809Z" fill="#FBCB8E" stroke="#2B2A29" stroke-width=".5" stroke-miterlimit="10" stroke-linecap="round" stroke-linejoin="round"/><path d="M109.973 56.81h8.985v26.453h-8.985s-2.157-5.744-2.157-13.227c0-7.483 2.157-13.226 2.157-13.226Z" stroke="#2B2A29" stroke-width=".5" stroke-miterlimit="10" stroke-linecap="round" stroke-linejoin="round"/><path d="M92.557 83.262h26.954v26.452H92.557V83.262Z" fill="#FBCB8E" stroke="#2B2A29" stroke-width=".5" stroke-miterlimit="10" stroke-linecap="round" stroke-linejoin="round"/><path d="M109.973 83.262h8.985v26.452h-8.985s-2.157-5.743-2.157-13.226c0-7.483 2.157-13.226 2.157-13.226Z" stroke="#2B2A29" stroke-width=".5" stroke-miterlimit="10" stroke-linecap="round" stroke-linejoin="round"/><path d="M92.557 132.896v-23.182h26.954v26.452H95.828a3.27 3.27 0 0 1-3.271-3.27Z" fill="#FBCB8E"/><path d="M92.557 132.896v-23.182h26.954v26.452H95.828a3.27 3.27 0 0 1-3.271-3.27Z" stroke="#2B2A29" stroke-width=".5" stroke-miterlimit="10" stroke-linecap="round" stroke-linejoin="round"/><path d="M109.973 109.714h8.985v26.453h-8.985s-2.157-5.744-2.157-13.227c0-7.483 2.157-13.226 2.157-13.226Z" stroke="#2B2A29" stroke-width=".5" stroke-miterlimit="10" stroke-linecap="round" stroke-linejoin="round"/><path d="M65.138 76.082h-4.085v-.954l1.874-2.385c.24-.329.415-.619.528-.867a1.72 1.72 0 0 0 .169-.716c0-.307-.053-.55-.16-.724a.511.511 0 0 0-.46-.263c-.218 0-.392.102-.519.304-.13.205-.193.492-.193.86h-1.355c0-.426.089-.816.266-1.17a2 2 0 0 1 .743-.82c.318-.194.68-.29 1.08-.29.62 0 1.1.171 1.443.51.34.34.512.827.512 1.455 0 .39-.094.787-.282 1.188-.19.4-.534.895-1.028 1.481l-.89 1.271h2.357v1.12Zm4.875-2.866c0 .959-.174 1.691-.52 2.197-.348.508-.845.763-1.49.763-.637 0-1.13-.246-1.475-.741-.348-.492-.528-1.2-.541-2.12v-1.31c0-.953.174-1.685.52-2.191.345-.506.84-.757 1.489-.757.646 0 1.144.251 1.49.751.345.5.519 1.216.527 2.148v1.26Zm-1.351-1.404c0-.544-.053-.956-.16-1.23-.108-.273-.277-.409-.506-.409-.429 0-.652.5-.67 1.5v1.728c0 .558.056.973.167 1.246.108.274.279.412.51.412.22 0 .382-.127.49-.384.105-.257.16-.647.169-1.174v-1.69Z" fill="#006672"/></symbol><symbol fill="none" id="sprite-cabin-3" viewBox="0 0 123 165"><title>cabin-3</title><path fill-rule="evenodd" clip-rule="evenodd" d="M.482 137.408V.967h122.409v163.865H35.07L.482 137.408Z" fill="#D9DADA"/><path d="M51.786 100.753h26.5V44.461h-26.5v56.292ZM41.77 31.222h23.257V4.77h-26.5v23.21a3.243 3.243 0 0 0 3.243 3.242Z" stroke="#FEFEFE" stroke-width=".35" stroke-miterlimit="10"/><path fill-rule="evenodd" clip-rule="evenodd" d="M64.505 5.425h-25.61v8.76c-.005 7.69 25.128 6.296 25.61 14.894V5.425Z" fill="#9D9E9E"/><path d="M65.025 13.588V4.77h-26.5v8.818s5.754 2.116 13.25 2.116c7.497 0 13.25-2.117 13.25-2.117Z" stroke="#FEFEFE" stroke-width=".35" stroke-miterlimit="10"/><path fill-rule="evenodd" clip-rule="evenodd" d="M91.01 4.942H65.4v8.761c-.005 7.69 25.127 6.296 25.61 14.894V4.942Z" fill="#9D9E9E"/><path d="M65.026 31.222h23.255a3.244 3.244 0 0 0 3.245-3.244V4.77h-26.5v26.452Z" stroke="#FEFEFE" stroke-width=".35" stroke-miterlimit="10"/><path fill-rule="evenodd" clip-rule="evenodd" d="M91.525 13.588V4.771H65.026v8.817s5.753 2.117 13.25 2.117c7.496 0 13.249-2.117 13.249-2.117Z" fill="url(#a)"/><path d="M92.355 57.675V34.466a3.244 3.244 0 0 1 3.244-3.244h23.71v26.453H92.355Z" stroke="#FEFEFE" stroke-width=".35" stroke-miterlimit="10"/><path d="M109.773 31.222h8.984v26.453h-8.984s-2.157-5.744-2.157-13.227c0-7.483 2.157-13.226 2.157-13.226Z" stroke="#FEFEFE" stroke-width=".35" stroke-miterlimit="10"/><path d="M92.355 57.674h26.954v26.453H92.355V57.674Z" stroke="#FEFEFE" stroke-width=".35" stroke-miterlimit="10"/><path d="M109.773 57.675h8.984v26.453h-8.984s-2.157-5.743-2.157-13.227c0-7.483 2.157-13.226 2.157-13.226Z" stroke="#FEFEFE" stroke-width=".35" stroke-miterlimit="10"/><path d="M92.355 84.127h26.954v26.452H92.355V84.127Z" stroke="#FEFEFE" stroke-width=".35" stroke-miterlimit="10"/><path d="M109.773 84.127h8.984v26.452h-8.984s-2.157-5.743-2.157-13.226c0-7.482 2.157-13.226 2.157-13.226Zm-17.418 49.634v-23.182h26.954v26.452H95.625a3.27 3.27 0 0 1-3.27-3.27Z" stroke="#FEFEFE" stroke-width=".35" stroke-miterlimit="10"/><path d="M109.773 110.579h8.984v26.453h-8.984s-2.157-5.743-2.157-13.227c0-7.483 2.157-13.226 2.157-13.226Z" stroke="#FEFEFE" stroke-width=".35" stroke-miterlimit="10"/><path d="M65.14 78.081h-4.086v-.953l1.874-2.385c.24-.329.415-.619.528-.868.113-.249.169-.486.169-.716 0-.306-.053-.55-.16-.724a.511.511 0 0 0-.46-.262c-.218 0-.392.102-.519.304-.13.204-.193.492-.193.86h-1.355c0-.426.089-.816.266-1.17a2 2 0 0 1 .743-.82 2.04 2.04 0 0 1 1.08-.29c.62 0 1.1.17 1.443.51.34.34.512.827.512 1.454 0 .39-.094.788-.282 1.189-.19.4-.534.895-1.028 1.48l-.89 1.272h2.357v1.12Zm4.874-2.865c0 .959-.174 1.69-.52 2.197-.348.508-.845.762-1.49.762-.638 0-1.13-.246-1.475-.74-.348-.492-.528-1.2-.541-2.12v-1.31c0-.953.174-1.686.52-2.191.345-.506.84-.758 1.489-.758.646 0 1.144.252 1.49.752.345.5.519 1.216.527 2.147v1.26Zm-1.351-1.404c0-.545-.053-.956-.16-1.23-.108-.274-.277-.41-.506-.41-.429 0-.653.501-.67 1.502V75.4c0 .558.056.973.167 1.246.107.274.279.412.51.412.22 0 .382-.127.49-.384.105-.257.16-.647.169-1.175v-1.688Z" fill="#006672"/><defs><linearGradient id="a" x1="91.525" y1="10.237" x2="65.025" y2="10.237" gradientUnits="userSpaceOnUse"><stop stop-color="#D2D3D5"/><stop offset="1" stop-color="#E6E7E8"/></linearGradient></defs></symbol><symbol fill="none" id="sprite-cabin-4-res" viewBox="0 0 124 165"><title>cabin-4-res</title><path fill-rule="evenodd" clip-rule="evenodd" d="M.803 163.934V.069l123.06.78-.424 136.442-41.495 27.423-81.141-.78Z" fill="#D9DADA"/><path d="M71.365 99.888h-26.5V43.596h26.5v56.292Z" stroke="#FEFEFE" stroke-width=".35" stroke-miterlimit="10"/><path d="M31.629 30.357H4.674V56.81h26.955V30.357Z" fill="#FBCB8E" stroke="#2B2A29" stroke-width=".5" stroke-miterlimit="10" stroke-linecap="round" stroke-linejoin="round"/><path fill-rule="evenodd" clip-rule="evenodd" d="M5.51 56.102v-25.27h8.512c7.471-.005 6.117 24.795 14.472 25.27H5.51Z" fill="#9D9E9E"/><path d="M13.653 30.357H4.668V56.81h8.985s2.157-5.744 2.157-13.227c0-7.483-2.157-13.226-2.157-13.226Z" stroke="#2B2A29" stroke-width=".5" stroke-miterlimit="10" stroke-linecap="round" stroke-linejoin="round"/><path d="M31.629 56.81H4.674v26.452h26.955V56.809Z" fill="#FBCB8E" stroke="#2B2A29" stroke-width=".5" stroke-miterlimit="10" stroke-linecap="round" stroke-linejoin="round"/><path fill-rule="evenodd" clip-rule="evenodd" d="M5.326 82.519v-25.27h8.513c7.471-.005 6.117 24.794 14.471 25.27H5.326Z" fill="#9D9E9E"/><path d="M13.653 56.81H4.668v26.453h8.985s2.157-5.744 2.157-13.227c0-7.483-2.157-13.226-2.157-13.226Z" stroke="#2B2A29" stroke-width=".5" stroke-miterlimit="10" stroke-linecap="round" stroke-linejoin="round"/><path d="M31.629 83.262H4.674v26.452h26.955V83.262Z" fill="#FBCB8E" stroke="#2B2A29" stroke-width=".5" stroke-miterlimit="10" stroke-linecap="round" stroke-linejoin="round"/><path fill-rule="evenodd" clip-rule="evenodd" d="M5.418 109.119v-25.27h8.512c7.472-.006 6.118 24.794 14.472 25.27H5.418Z" fill="#9D9E9E"/><path d="M13.653 83.262H4.668v26.452h8.985s2.157-5.743 2.157-13.226c0-7.483-2.157-13.226-2.157-13.226Z" stroke="#2B2A29" stroke-width=".5" stroke-miterlimit="10" stroke-linecap="round" stroke-linejoin="round"/><path d="M31.629 132.896v-23.182H4.674v26.452h23.684a3.27 3.27 0 0 0 3.27-3.27Z" fill="#FBCB8E"/><path d="M31.629 132.896v-23.182H4.674v26.452h23.684a3.27 3.27 0 0 0 3.27-3.27Z" stroke="#2B2A29" stroke-width=".5" stroke-miterlimit="10" stroke-linecap="round" stroke-linejoin="round"/><path fill-rule="evenodd" clip-rule="evenodd" d="M5.348 135.638v-25.27h8.512c7.471-.005 6.117 24.794 14.471 25.27H5.348Z" fill="#9D9E9E"/><path d="M13.653 109.714H4.668v26.453h8.985s2.157-5.744 2.157-13.227c0-7.483-2.157-13.226-2.157-13.226Z" stroke="#2B2A29" stroke-width=".5" stroke-miterlimit="10" stroke-linecap="round" stroke-linejoin="round"/><path d="M31.629 3.906H4.674v26.451h26.955V3.906Z" fill="#FBCB8E" stroke="#2B2A29" stroke-width=".5" stroke-miterlimit="10" stroke-linecap="round" stroke-linejoin="round"/><path d="M13.653 3.906H4.668v26.452h8.985s2.157-5.744 2.157-13.226c0-.813-.03-1.6-.075-2.366.781.045 1.583.074 2.41.074 7.626 0 13.479-2.117 13.479-2.117V3.906H13.653Z" stroke="#2B2A29" stroke-width=".5" stroke-miterlimit="10" stroke-linecap="round" stroke-linejoin="round"/><path d="M58.125 30.357h-26.5V3.906h26.5v26.451Z" fill="#FBCB8E" stroke="#2B2A29" stroke-width=".5" stroke-miterlimit="10" stroke-linecap="round" stroke-linejoin="round"/><path fill-rule="evenodd" clip-rule="evenodd" d="M57.532 4.56h-25.27v8.512c-.005 7.47 24.795 6.117 25.27 14.471V4.559Z" fill="#9D9E9E"/><path d="M31.625 12.723V3.906h26.5v8.817s-5.754 2.117-13.25 2.117c-7.498 0-13.25-2.117-13.25-2.117Z" stroke="#2B2A29" stroke-width=".5" stroke-miterlimit="10" stroke-linecap="round" stroke-linejoin="round"/><path d="M81.383 30.357H58.127V3.905h26.5v23.21a3.243 3.243 0 0 1-3.244 3.242Z" fill="#FBCB8E"/><path d="M81.383 30.357H58.127V3.905h26.5v23.21a3.243 3.243 0 0 1-3.244 3.242Z" stroke="#2B2A29" stroke-width=".5" stroke-miterlimit="10" stroke-linecap="round" stroke-linejoin="round"/><path fill-rule="evenodd" clip-rule="evenodd" d="M83.991 4.413h-25.27v8.512c-.005 7.472 24.795 6.118 25.27 14.472V4.413Z" fill="#9D9E9E"/><path d="M58.127 12.723V3.906h26.5v8.817s-5.754 2.117-13.25 2.117c-7.497 0-13.25-2.117-13.25-2.117Z" stroke="#2B2A29" stroke-width=".5" stroke-miterlimit="10" stroke-linecap="round" stroke-linejoin="round"/><path d="M58.23 76.045h-4.084v-.953l1.873-2.385c.24-.33.415-.62.528-.868a1.72 1.72 0 0 0 .169-.716c0-.307-.053-.55-.16-.724a.511.511 0 0 0-.46-.263c-.218 0-.392.103-.52.305-.129.204-.193.491-.193.859H54.03c0-.426.089-.815.266-1.169a2 2 0 0 1 .743-.82 2.04 2.04 0 0 1 1.08-.291c.62 0 1.1.171 1.443.511.34.34.511.827.511 1.454 0 .39-.094.787-.281 1.188-.191.401-.534.896-1.028 1.481l-.89 1.272h2.357v1.119Zm3.657-.043h-1.351V70.71l-1.321.509v-1.125l2.528-1.031h.144v6.94Z" fill="#006672"/></symbol><symbol fill="none" id="sprite-cabin-4" viewBox="0 0 124 166"><title>cabin-4</title><path fill-rule="evenodd" clip-rule="evenodd" d="M.323 164.8V.935l123.061.78-.424 136.441-41.496 27.423-81.14-.779Z" fill="#D9DADA"/><path d="M70.883 100.753h-26.5V44.461h26.5v56.292Zm-39.735-69.53H4.193v26.453h26.955V31.223Z" stroke="#FEFEFE" stroke-width=".35" stroke-miterlimit="10"/><path d="M13.178 31.222H4.193v26.453h8.985s2.157-5.744 2.157-13.227c0-7.483-2.157-13.226-2.157-13.226Z" stroke="#FEFEFE" stroke-width=".35" stroke-miterlimit="10"/><path d="M31.148 57.674H4.193v26.453h26.955V57.674Z" stroke="#FEFEFE" stroke-width=".35" stroke-miterlimit="10"/><path fill-rule="evenodd" clip-rule="evenodd" d="M4.55 83.657v-25.61h9.85c8.645-.005 7.079 25.128 16.745 25.61H4.55Z" fill="#9D9E9E"/><path d="M13.178 57.675H4.193v26.453h8.985s2.157-5.743 2.157-13.227c0-7.483-2.157-13.226-2.157-13.226Z" stroke="#FEFEFE" stroke-width=".35" stroke-miterlimit="10"/><path d="M31.148 84.127H4.193v26.452h26.955V84.127Z" stroke="#FEFEFE" stroke-width=".35" stroke-miterlimit="10"/><path fill-rule="evenodd" clip-rule="evenodd" d="M4.911 110.001v-25.61h9.185c8.061-.005 6.6 25.128 15.614 25.61H4.91Z" fill="#9D9E9E"/><path d="M13.178 84.127H4.193v26.452h8.985s2.157-5.743 2.157-13.226c0-7.482-2.157-13.226-2.157-13.226Zm17.97 49.634v-23.182H4.193v26.452h23.684a3.27 3.27 0 0 0 3.271-3.27Z" stroke="#FEFEFE" stroke-width=".35" stroke-miterlimit="10"/><path fill-rule="evenodd" clip-rule="evenodd" d="M4.657 136.692v-25.61H13.8c8.024-.005 6.57 25.128 15.542 25.61H4.657Z" fill="#9D9E9E"/><path d="M13.178 110.579H4.193v26.453h8.985s2.157-5.743 2.157-13.227c0-7.483-2.157-13.226-2.157-13.226Zm44.471-79.356h-26.5V4.77h26.5v26.452Z" stroke="#FEFEFE" stroke-width=".35" stroke-miterlimit="10"/><path fill-rule="evenodd" clip-rule="evenodd" d="M57.256 5.597h-25.61v8.76c-.005 7.69 25.128 6.296 25.61 14.895V5.596Z" fill="#9D9E9E"/><path d="M31.15 13.588V4.77h26.499v8.818s-5.754 2.116-13.25 2.116c-7.498 0-13.25-2.117-13.25-2.117Z" stroke="#FEFEFE" stroke-width=".35" stroke-miterlimit="10"/><path d="M80.902 31.222H57.645V4.77h26.5v23.21a3.243 3.243 0 0 1-3.243 3.242Z" stroke="#FEFEFE" stroke-width=".35" stroke-miterlimit="10"/><path fill-rule="evenodd" clip-rule="evenodd" d="M83.677 5.232h-25.61v8.76c-.004 7.69 25.128 6.296 25.61 14.895V5.232Z" fill="#9D9E9E"/><path d="M13.232 4.62H4.247v26.453h8.985s2.157-5.744 2.157-13.227c0-.813-.03-1.599-.075-2.365a41.82 41.82 0 0 0 2.41.073c7.626 0 13.478-2.116 13.478-2.116V4.62h-17.97Zm44.376 8.968V4.77h26.5v8.818s-5.754 2.116-13.25 2.116c-7.498 0-13.25-2.117-13.25-2.117Z" stroke="#FEFEFE" stroke-width=".35" stroke-miterlimit="10"/><path d="M58.23 78.045h-4.084v-.953l1.873-2.385c.24-.33.415-.62.528-.868a1.72 1.72 0 0 0 .169-.716c0-.307-.053-.55-.16-.724a.511.511 0 0 0-.46-.263c-.218 0-.392.103-.52.305-.129.204-.193.491-.193.859H54.03c0-.426.089-.815.266-1.169a2 2 0 0 1 .743-.82 2.04 2.04 0 0 1 1.08-.291c.62 0 1.1.171 1.443.511.34.34.511.827.511 1.454 0 .39-.094.787-.281 1.188-.191.401-.534.896-1.028 1.481l-.89 1.272h2.357v1.119Zm3.658-.043h-1.351V72.71l-1.321.508v-1.124l2.529-1.031h.143v6.94Z" fill="#006672"/></symbol><symbol fill="none" id="sprite-cabin-5-res" viewBox="0 0 133 166"><title>cabin-5-res</title><path fill-rule="evenodd" clip-rule="evenodd" d="M.08 138.511.286.715 132.438 2.07v163.865H41.853L.08 138.511Z" fill="#D9DADA"/><path d="M61.344 101.888h26.5V45.596h-26.5v56.292Z" stroke="#FEFEFE" stroke-width=".35" stroke-miterlimit="10"/><path d="M73.193 78.376h-4.085v-.954l1.874-2.385a5.17 5.17 0 0 0 .528-.868 1.72 1.72 0 0 0 .168-.715c0-.307-.052-.55-.16-.724a.51.51 0 0 0-.459-.263c-.218 0-.392.102-.52.304-.13.205-.193.492-.193.86h-1.354c0-.426.089-.816.265-1.17.177-.35.426-.624.744-.82a2.04 2.04 0 0 1 1.08-.29c.62 0 1.1.17 1.443.51.34.34.511.827.511 1.454 0 .39-.094.788-.282 1.189-.19.4-.533.895-1.028 1.481l-.89 1.271h2.358v1.12Zm5.097 0h-4.084v-.954l1.874-2.385a5.09 5.09 0 0 0 .527-.868 1.72 1.72 0 0 0 .169-.715c0-.307-.052-.55-.16-.724a.511.511 0 0 0-.46-.263c-.217 0-.391.102-.519.304-.13.205-.193.492-.193.86H74.09c0-.426.088-.816.265-1.17a2 2 0 0 1 .743-.82 2.04 2.04 0 0 1 1.081-.29c.62 0 1.1.17 1.443.51.34.34.51.827.51 1.454 0 .39-.093.788-.281 1.189-.19.4-.533.895-1.028 1.481l-.89 1.271h2.357v1.12Z" fill="#006672"/><path d="M102.242 31.502h26.955v26.453h-26.955V31.502Z" fill="#FBCB8E" stroke="#2B2A29" stroke-width=".5" stroke-miterlimit="10" stroke-linecap="round" stroke-linejoin="round"/><path d="M120.213 31.502h8.985v26.453h-8.985s-2.156-5.744-2.156-13.227c0-7.483 2.156-13.226 2.156-13.226Z" stroke="#2B2A29" stroke-width=".5" stroke-miterlimit="10" stroke-linecap="round" stroke-linejoin="round"/><path d="M102.242 57.954h26.955v26.452h-26.955V57.954Z" fill="#FBCB8E" stroke="#2B2A29" stroke-width=".5" stroke-miterlimit="10" stroke-linecap="round" stroke-linejoin="round"/><path d="M120.213 57.955h8.985v26.452h-8.985s-2.156-5.743-2.156-13.227c0-7.482 2.156-13.225 2.156-13.225Z" stroke="#2B2A29" stroke-width=".5" stroke-miterlimit="10" stroke-linecap="round" stroke-linejoin="round"/><path d="M102.242 84.407h26.955v26.452h-26.955V84.407Z" fill="#FBCB8E" stroke="#2B2A29" stroke-width=".5" stroke-miterlimit="10" stroke-linecap="round" stroke-linejoin="round"/><path d="M120.213 84.407h8.985v26.452h-8.985s-2.156-5.744-2.156-13.226c0-7.483 2.156-13.226 2.156-13.226Z" stroke="#2B2A29" stroke-width=".5" stroke-miterlimit="10" stroke-linecap="round" stroke-linejoin="round"/><path d="M102.242 134.041v-23.182h26.955v26.452h-23.684a3.27 3.27 0 0 1-3.271-3.27Z" fill="#FBCB8E"/><path d="M102.242 134.041v-23.182h26.955v26.452h-23.684a3.27 3.27 0 0 1-3.271-3.27Z" stroke="#2B2A29" stroke-width=".5" stroke-miterlimit="10" stroke-linecap="round" stroke-linejoin="round"/><path d="M120.213 110.858h8.985v26.453h-8.985s-2.156-5.743-2.156-13.227c0-7.482 2.156-13.226 2.156-13.226Z" stroke="#2B2A29" stroke-width=".5" stroke-miterlimit="10" stroke-linecap="round" stroke-linejoin="round"/><path d="M102.242 5.05h26.955v26.452h-26.955V5.05Z" fill="#FBCB8E" stroke="#2B2A29" stroke-width=".5" stroke-miterlimit="10" stroke-linecap="round" stroke-linejoin="round"/><path d="M120.213 5.05h8.985v26.452h-8.985s-2.156-5.743-2.156-13.226c0-.813.029-1.599.074-2.365-.781.045-1.583.073-2.41.073-7.626 0-13.479-2.117-13.479-2.117V5.05h17.971Z" stroke="#2B2A29" stroke-width=".5" stroke-miterlimit="10" stroke-linecap="round" stroke-linejoin="round"/><path d="M75.738 31.502h26.5V5.05h-26.5v26.452Z" fill="#FBCB8E" stroke="#2B2A29" stroke-width=".5" stroke-miterlimit="10" stroke-linecap="round" stroke-linejoin="round"/><path fill-rule="evenodd" clip-rule="evenodd" d="M101.63 5.719H76.36v8.512c-.005 7.471 24.794 6.117 25.27 14.472V5.719Z" fill="#9D9E9E"/><path d="M102.238 13.867V5.05h-26.5v8.817s5.754 2.117 13.25 2.117c7.498 0 13.25-2.117 13.25-2.117Z" stroke="#2B2A29" stroke-width=".5" stroke-miterlimit="10" stroke-linecap="round" stroke-linejoin="round"/><path d="M52.486 31.502h23.256V5.05h-26.5v23.21a3.243 3.243 0 0 0 3.244 3.242Z" fill="#FBCB8E"/><path d="M52.486 31.502h23.256V5.05h-26.5v23.21a3.243 3.243 0 0 0 3.244 3.242Z" stroke="#2B2A29" stroke-width=".5" stroke-miterlimit="10" stroke-linecap="round" stroke-linejoin="round"/><path fill-rule="evenodd" clip-rule="evenodd" d="M75.17 5.589H49.9V14.1c-.004 7.472 24.795 6.117 25.27 14.472V5.589Z" fill="#9D9E9E"/><path d="M75.743 13.867V5.05h-26.5v8.817s5.753 2.117 13.25 2.117 13.25-2.117 13.25-2.117Z" stroke="#2B2A29" stroke-width=".5" stroke-miterlimit="10" stroke-linecap="round" stroke-linejoin="round"/></symbol><symbol fill="none" id="sprite-cabin-5" viewBox="0 0 133 166"><title>cabin-5</title><path fill-rule="evenodd" clip-rule="evenodd" d="M.6 138.376.807.581l132.152 1.354V165.8H42.374L.6 138.376Z" fill="#D9DADA"/><path d="M101.601 32.223h26.953v26.453h-26.953V32.223Z" stroke="#FEFEFE" stroke-width=".35" stroke-miterlimit="10"/><path d="M119.572 32.222h8.985v26.453h-8.985s-2.156-5.744-2.156-13.227c0-7.483 2.156-13.226 2.156-13.226Z" stroke="#FEFEFE" stroke-width=".35" stroke-miterlimit="10"/><path d="M101.601 58.674h26.953v26.453h-26.953V58.674Z" stroke="#FEFEFE" stroke-width=".35" stroke-miterlimit="10"/><path d="M119.572 58.675h8.985v26.453h-8.985s-2.156-5.743-2.156-13.227c0-7.483 2.156-13.226 2.156-13.226Z" stroke="#FEFEFE" stroke-width=".35" stroke-miterlimit="10"/><path d="M101.601 85.127h26.953v26.452h-26.953V85.127Z" stroke="#FEFEFE" stroke-width=".35" stroke-miterlimit="10"/><path d="M119.572 85.127h8.985v26.452h-8.985s-2.156-5.743-2.156-13.226c0-7.482 2.156-13.226 2.156-13.226Zm-17.971 49.634v-23.182h26.954v26.452h-23.684a3.27 3.27 0 0 1-3.27-3.27Z" stroke="#FEFEFE" stroke-width=".35" stroke-miterlimit="10"/><path d="M119.572 111.579h8.985v26.453h-8.985s-2.156-5.743-2.156-13.227c0-7.483 2.156-13.226 2.156-13.226Zm-57.709-9.826h26.5V45.461h-26.5v56.292Zm13.014-69.38h26.5V5.92h-26.5v26.452Z" stroke="#FEFEFE" stroke-width=".35" stroke-miterlimit="10"/><path fill-rule="evenodd" clip-rule="evenodd" d="M100.882 6.747h-25.61v8.76c-.005 7.69 25.128 6.296 25.61 14.894V6.747Z" fill="#9D9E9E"/><path d="M101.377 14.737V5.92h-26.5v8.817s5.754 2.117 13.25 2.117c7.498 0 13.25-2.117 13.25-2.117Z" stroke="#FEFEFE" stroke-width=".35" stroke-miterlimit="10"/><path d="M51.623 32.372H74.88V5.92h-26.5v23.21a3.243 3.243 0 0 0 3.243 3.242Z" stroke="#FEFEFE" stroke-width=".35" stroke-miterlimit="10"/><path fill-rule="evenodd" clip-rule="evenodd" d="M74.46 6.382H48.85v8.76c-.005 7.69 25.128 6.296 25.61 14.894V6.382Z" fill="#9D9E9E"/><path fill-rule="evenodd" clip-rule="evenodd" d="M123.494 31.685V10.597h-21.488v3.453c0 4.636 4.969 7.481 8.011 7.481.828 0 1.63-.03 2.412-.074a39.379 39.379 0 0 0-.076 2.366c0 2.985.816 7.862 7.623 7.862h3.518Z" fill="url(#a)" fill-opacity=".502"/><path d="M119.295 5.77h8.985v26.452h-8.985s-2.156-5.743-2.156-13.226c0-.813.029-1.599.074-2.365-.781.045-1.583.073-2.41.073-7.626 0-13.478-2.117-13.478-2.117V5.77h17.97Zm-44.377 8.967V5.92h-26.5v8.817s5.754 2.117 13.25 2.117c7.498 0 13.25-2.117 13.25-2.117Z" stroke="#FEFEFE" stroke-width=".35" stroke-miterlimit="10"/><path d="M74.193 79.651h-4.085v-.953l1.874-2.385a5.17 5.17 0 0 0 .528-.868 1.72 1.72 0 0 0 .168-.715c0-.307-.052-.55-.16-.725a.51.51 0 0 0-.459-.262c-.218 0-.392.102-.52.304-.13.204-.193.492-.193.86h-1.354c0-.426.089-.816.265-1.17.177-.35.426-.624.744-.82.318-.194.68-.29 1.08-.29.62 0 1.1.17 1.443.51.34.34.511.827.511 1.454 0 .39-.094.788-.282 1.189-.19.4-.533.895-1.028 1.481l-.89 1.271h2.358v1.12Zm5.097 0h-4.084v-.953l1.874-2.385a5.09 5.09 0 0 0 .527-.868 1.72 1.72 0 0 0 .169-.715c0-.307-.052-.55-.16-.725a.511.511 0 0 0-.46-.262c-.217 0-.391.102-.519.304-.13.204-.193.492-.193.86H75.09c0-.426.088-.816.265-1.17.177-.35.426-.624.744-.82.317-.194.68-.29 1.08-.29.62 0 1.1.17 1.443.51.34.34.51.827.51 1.454 0 .39-.093.788-.281 1.189-.19.4-.533.895-1.028 1.481l-.89 1.271h2.357v1.12Z" fill="#006672"/><defs><linearGradient id="a" x1="105.784" y1="13.111" x2="119.413" y2="29.424" gradientUnits="userSpaceOnUse"><stop stop-color="#9D9E9E"/><stop offset="1" stop-color="#B2B3B3"/></linearGradient></defs></symbol><symbol fill="none" id="sprite-cabin-6-res" viewBox="0 0 130 176"><title>cabin-6-res</title><path fill-rule="evenodd" clip-rule="evenodd" d="M.895 173.831V.295H129.26l.514 175.099-128.88-1.563Z" fill="#D9DADA"/><path d="M58.201 99.79h26.5V43.498H58.2V99.79Z" stroke="#FEFEFE" stroke-width=".35" stroke-miterlimit="10"/><path d="M70.703 75.416h-4.085v-.953l1.874-2.385c.24-.33.414-.62.528-.868a1.72 1.72 0 0 0 .168-.716c0-.307-.052-.55-.16-.724a.511.511 0 0 0-.459-.262c-.218 0-.392.102-.52.304-.13.204-.193.492-.193.86h-1.354c0-.426.088-.816.265-1.17a2 2 0 0 1 .744-.82 2.04 2.04 0 0 1 1.08-.29c.62 0 1.1.17 1.443.51.34.34.511.827.511 1.454 0 .39-.094.788-.282 1.188-.19.401-.533.896-1.028 1.482l-.89 1.27h2.358v1.12Zm2.561-4.04h.653c.246 0 .428-.086.544-.26.116-.174.174-.404.174-.694 0-.276-.058-.492-.177-.646a.58.58 0 0 0-.48-.23.562.562 0 0 0-.46.218.852.852 0 0 0-.179.553h-1.346c0-.362.083-.685.252-.973.166-.287.398-.51.699-.674.298-.16.63-.24.995-.24.638 0 1.138.177 1.5.527.362.352.542.835.542 1.446 0 .315-.08.605-.243.873a1.675 1.675 0 0 1-.647.62c.33.137.572.345.733.624.16.279.24.61.24.992 0 .616-.196 1.108-.589 1.478-.392.374-.906.559-1.544.559-.595 0-1.075-.183-1.446-.55-.37-.365-.555-.846-.555-1.443h1.348a.99.99 0 0 0 .197.622c.13.169.293.254.494.254.23 0 .415-.085.55-.257.135-.171.202-.4.202-.685 0-.683-.265-1.025-.796-1.028h-.66v-1.086Z" fill="#006672"/><path d="M99.314 30.133h26.955v26.453H99.314V30.133Z" fill="#FBCB8E" stroke="#2B2A29" stroke-width=".5" stroke-miterlimit="10" stroke-linecap="round" stroke-linejoin="round"/><path d="M117.286 30.132h8.985v26.453h-8.985s-2.157-5.743-2.157-13.227c0-7.482 2.157-13.226 2.157-13.226Z" stroke="#2B2A29" stroke-width=".5" stroke-miterlimit="10" stroke-linecap="round" stroke-linejoin="round"/><path d="M99.314 56.584h26.955v26.453H99.314V56.584Z" fill="#FBCB8E" stroke="#2B2A29" stroke-width=".5" stroke-miterlimit="10" stroke-linecap="round" stroke-linejoin="round"/><path d="M117.286 56.585h8.985v26.453h-8.985s-2.157-5.743-2.157-13.227c0-7.482 2.157-13.226 2.157-13.226Z" stroke="#2B2A29" stroke-width=".5" stroke-miterlimit="10" stroke-linecap="round" stroke-linejoin="round"/><path d="M99.314 83.038h26.955v26.451H99.314V83.038Z" fill="#FBCB8E" stroke="#2B2A29" stroke-width=".5" stroke-miterlimit="10" stroke-linecap="round" stroke-linejoin="round"/><path d="M117.286 83.038h8.985v26.451h-8.985s-2.157-5.743-2.157-13.226c0-7.482 2.157-13.225 2.157-13.225Z" stroke="#2B2A29" stroke-width=".5" stroke-miterlimit="10" stroke-linecap="round" stroke-linejoin="round"/><path d="M99.309 161.43v-23.182h26.954v26.451h-23.684a3.27 3.27 0 0 1-3.27-3.269Z" fill="#FBCB8E"/><path d="M99.309 161.43v-23.182h26.954v26.451h-23.684a3.27 3.27 0 0 1-3.27-3.269Z" stroke="#2B2A29" stroke-width=".5" stroke-miterlimit="10" stroke-linecap="round" stroke-linejoin="round"/><path d="M117.276 138.248h8.985V164.7h-8.985s-2.157-5.743-2.157-13.227c0-7.482 2.157-13.225 2.157-13.225Z" stroke="#2B2A29" stroke-width=".5" stroke-miterlimit="10" stroke-linecap="round" stroke-linejoin="round"/><path d="M99.314 3.681h26.955v26.452H99.314V3.68Z" fill="#FBCB8E" stroke="#2B2A29" stroke-width=".5" stroke-miterlimit="10" stroke-linecap="round" stroke-linejoin="round"/><path d="M117.285 3.681h8.985v26.452h-8.985s-2.156-5.743-2.156-13.226c0-.813.029-1.599.074-2.365-.781.045-1.582.073-2.41.073-7.626 0-13.479-2.117-13.479-2.117V3.681h17.971Z" stroke="#2B2A29" stroke-width=".5" stroke-miterlimit="10" stroke-linecap="round" stroke-linejoin="round"/><path d="M72.816 30.133h26.5V3.68h-26.5v26.452Z" fill="#FBCB8E" stroke="#2B2A29" stroke-width=".5" stroke-miterlimit="10" stroke-linecap="round" stroke-linejoin="round"/><path fill-rule="evenodd" clip-rule="evenodd" d="M98.677 4.409h-25.27v8.512c-.005 7.471 24.794 6.117 25.27 14.472V4.409Z" fill="#9D9E9E"/><path d="M99.316 12.498V3.681h-26.5v8.817s5.754 2.117 13.25 2.117c7.498 0 13.25-2.117 13.25-2.117Z" stroke="#2B2A29" stroke-width=".5" stroke-miterlimit="10" stroke-linecap="round" stroke-linejoin="round"/><path d="M20.859 30.197h23.256V3.745h-26.5v23.21a3.243 3.243 0 0 0 3.244 3.242Z" fill="#FBCB8E"/><path d="M20.859 30.197h23.256V3.745h-26.5v23.21a3.243 3.243 0 0 0 3.244 3.242Z" stroke="#2B2A29" stroke-width=".5" stroke-miterlimit="10" stroke-linecap="round" stroke-linejoin="round"/><path fill-rule="evenodd" clip-rule="evenodd" d="M43.41 4.489H18.138V13c-.005 7.472 24.795 6.117 25.27 14.472V4.489Z" fill="#9D9E9E"/><path d="M44.116 12.563V3.746h-26.5v8.817s5.753 2.117 13.25 2.117 13.25-2.117 13.25-2.117Z" stroke="#2B2A29" stroke-width=".5" stroke-miterlimit="10" stroke-linecap="round" stroke-linejoin="round"/><path d="M45.29 30.189h26.499V3.737h-26.5V30.19Z" fill="#FBCB8E" stroke="#2B2A29" stroke-width=".5" stroke-miterlimit="10" stroke-linecap="round" stroke-linejoin="round"/><path fill-rule="evenodd" clip-rule="evenodd" d="M71.386 4.278h-25.27v8.513c-.005 7.471 24.794 6.117 25.27 14.471V4.278Z" fill="#9D9E9E"/><path d="M71.789 12.553V3.736h-26.5v8.817s5.754 2.117 13.25 2.117c7.498 0 13.25-2.117 13.25-2.117Z" stroke="#2B2A29" stroke-width=".5" stroke-miterlimit="10" stroke-linecap="round" stroke-linejoin="round"/><path d="M99.303 110.741h26.955v26.452H99.303v-26.452Z" fill="#FBCB8E" stroke="#2B2A29" stroke-width=".5" stroke-miterlimit="10" stroke-linecap="round" stroke-linejoin="round"/><path d="M117.276 110.741h8.985v26.452h-8.985s-2.157-5.744-2.157-13.226c0-7.483 2.157-13.226 2.157-13.226Z" stroke="#2B2A29" stroke-width=".5" stroke-miterlimit="10" stroke-linecap="round" stroke-linejoin="round"/></symbol><symbol fill="none" id="sprite-cabin-6" viewBox="0 0 130 176"><title>cabin-6</title><path fill-rule="evenodd" clip-rule="evenodd" d="M.419 173.696V.16h128.366l.513 175.099-128.88-1.563Z" fill="#D9DADA"/><path d="M97.457 30.124h26.954v26.453H97.457V30.124Z" stroke="#FEFEFE" stroke-width=".35" stroke-miterlimit="10"/><path d="M115.43 30.123h8.985v26.453h-8.985s-2.157-5.743-2.157-13.227c0-7.482 2.157-13.225 2.157-13.225ZM97.457 84.488h26.954v26.453H97.457V84.488Z" stroke="#FEFEFE" stroke-width=".35" stroke-miterlimit="10"/><path d="M115.43 84.489h8.985v26.453h-8.985s-2.157-5.744-2.157-13.227c0-7.483 2.157-13.226 2.157-13.226Z" stroke="#FEFEFE" stroke-width=".35" stroke-miterlimit="10"/><path d="M97.457 110.941h26.954v26.452H97.457v-26.452Z" stroke="#FEFEFE" stroke-width=".35" stroke-miterlimit="10"/><path d="M115.43 110.941h8.985v26.452h-8.985s-2.157-5.743-2.157-13.226c0-7.482 2.157-13.226 2.157-13.226Zm-17.973 49.634v-23.182h26.954v26.452h-23.684a3.27 3.27 0 0 1-3.27-3.27Z" stroke="#FEFEFE" stroke-width=".35" stroke-miterlimit="10"/><path d="M115.43 137.393h8.985v26.453h-8.985s-2.157-5.744-2.157-13.227c0-7.483 2.157-13.226 2.157-13.226ZM57.72 99.655h26.5V43.362h-26.5v56.293Zm39.802-42.378h26.953V83.73H97.522V57.277Z" stroke="#FEFEFE" stroke-width=".35" stroke-miterlimit="10"/><path d="M115.494 57.276h8.985V83.73h-8.985s-2.156-5.743-2.156-13.227c0-7.483 2.156-13.226 2.156-13.226ZM70.75 30.424h26.5V3.973h-26.5v26.451Z" stroke="#FEFEFE" stroke-width=".35" stroke-miterlimit="10"/><path fill-rule="evenodd" clip-rule="evenodd" d="M96.755 4.8h-25.61v8.76c-.005 7.69 25.128 6.296 25.61 14.894V4.799Z" fill="#9D9E9E"/><path d="M97.238 12.607V3.79h-26.5v8.817s5.754 2.117 13.25 2.117c7.498 0 13.25-2.117 13.25-2.117Z" stroke="#FEFEFE" stroke-width=".35" stroke-miterlimit="10"/><path fill-rule="evenodd" clip-rule="evenodd" d="M119.367 29.737V8.649H97.879v3.453c0 4.636 4.969 7.481 8.011 7.481.829 0 1.63-.03 2.412-.074a39.379 39.379 0 0 0-.076 2.366c0 2.985.816 7.862 7.623 7.862h3.518Z" fill="url(#a)" fill-opacity=".502"/><path d="M115.169 3.823h8.985v26.452h-8.985s-2.156-5.743-2.156-13.226c0-.813.029-1.6.075-2.365-.782.045-1.584.073-2.411.073-7.626 0-13.478-2.117-13.478-2.117V3.823h17.97ZM22.55 30.516h23.255V4.064h-26.5v23.21a3.243 3.243 0 0 0 3.244 3.242Z" stroke="#FEFEFE" stroke-width=".35" stroke-miterlimit="10"/><path fill-rule="evenodd" clip-rule="evenodd" d="M45.386 4.525h-25.61v8.761c-.005 7.69 25.128 6.296 25.61 14.894V4.525Z" fill="#9D9E9E"/><path d="M45.773 12.664V3.847h-26.5v8.817s5.755 2.117 13.25 2.117c7.498 0 13.25-2.117 13.25-2.117Z" stroke="#FEFEFE" stroke-width=".35" stroke-miterlimit="10"/><path d="M45.295 30.56h26.5V4.107h-26.5v26.451Z" stroke="#FEFEFE" stroke-width=".35" stroke-miterlimit="10"/><path fill-rule="evenodd" clip-rule="evenodd" d="M71.3 4.934H45.69v8.76c-.005 7.69 25.127 6.296 25.61 14.894V4.934Z" fill="#9D9E9E"/><path d="M71.832 12.642V3.825h-26.5v8.817s5.754 2.117 13.25 2.117c7.498 0 13.25-2.117 13.25-2.117Z" stroke="#FEFEFE" stroke-width=".35" stroke-miterlimit="10"/><path d="M70.703 76.416h-4.085v-.953l1.874-2.385c.24-.33.414-.62.528-.868a1.72 1.72 0 0 0 .168-.716c0-.307-.052-.55-.16-.724a.511.511 0 0 0-.459-.262c-.218 0-.392.102-.52.304-.13.204-.193.492-.193.86h-1.354c0-.426.088-.816.265-1.17a2 2 0 0 1 .744-.82 2.04 2.04 0 0 1 1.08-.29c.62 0 1.1.17 1.443.51.34.34.511.827.511 1.454 0 .39-.094.788-.282 1.188-.19.401-.533.896-1.028 1.482l-.89 1.27h2.358v1.12Zm2.561-4.04h.653c.246 0 .428-.086.544-.26.116-.174.174-.404.174-.694 0-.276-.058-.492-.177-.646a.58.58 0 0 0-.48-.23.561.561 0 0 0-.46.218.851.851 0 0 0-.179.553h-1.346c0-.362.083-.685.252-.973.166-.287.398-.51.699-.674.298-.16.63-.24.995-.24.638 0 1.138.177 1.5.527.363.352.542.835.542 1.446 0 .315-.08.605-.243.873a1.675 1.675 0 0 1-.647.62c.33.137.572.345.733.624.16.279.24.61.24.992 0 .616-.196 1.108-.589 1.478-.392.374-.906.559-1.544.559-.595 0-1.075-.183-1.446-.55-.37-.365-.555-.846-.555-1.443h1.348a.99.99 0 0 0 .197.622c.13.169.293.254.494.254.23 0 .415-.085.55-.257.136-.171.202-.4.202-.685 0-.683-.265-1.025-.796-1.028h-.66v-1.086Z" fill="#006672"/><defs><linearGradient id="a" x1="101.657" y1="11.163" x2="115.286" y2="27.476" gradientUnits="userSpaceOnUse"><stop stop-color="#9D9E9E"/><stop offset="1" stop-color="#B2B3B3"/></linearGradient></defs></symbol><symbol fill="none" id="sprite-cabin-7-res" viewBox="0 0 130 204"><title>cabin-7-res</title><path fill-rule="evenodd" clip-rule="evenodd" d="M.268 201.303V.067h128.365l.514 203.048-128.88-1.812Z" fill="#D9DADA"/><path d="M56.629 100.768h26.5V44.475h-26.5v56.293Z" stroke="#FEFEFE" stroke-width=".35" stroke-miterlimit="10"/><path d="M69.05 76.504h-4.084v-.953l1.873-2.385c.24-.33.415-.62.528-.868a1.72 1.72 0 0 0 .169-.716c0-.307-.053-.55-.16-.724a.511.511 0 0 0-.46-.263c-.218 0-.392.103-.519.305-.13.204-.193.491-.193.859H64.85c0-.426.088-.815.265-1.169a1.99 1.99 0 0 1 .743-.82 2.04 2.04 0 0 1 1.08-.291c.62 0 1.1.171 1.443.511.34.34.512.827.512 1.454 0 .39-.094.787-.282 1.188-.19.401-.534.896-1.028 1.481l-.89 1.272h2.357v1.119Zm4.874-2.607h.588v1.116h-.588v1.5h-1.349v-1.5h-2.294l-.06-.87 2.349-4.56h1.354v4.314Zm-1.1-.006-.027-2.266-1.02 2.266h1.048Z" fill="#006672"/><path d="M97.688 29.966h26.954V56.42H97.688V29.966Z" fill="#FBCB8E" stroke="#2B2A29" stroke-width=".5" stroke-miterlimit="10" stroke-linecap="round" stroke-linejoin="round"/><path d="M115.655 29.966h8.985V56.42h-8.985s-2.157-5.743-2.157-13.227c0-7.482 2.157-13.226 2.157-13.226Z" stroke="#2B2A29" stroke-width=".5" stroke-miterlimit="10" stroke-linecap="round" stroke-linejoin="round"/><path d="M97.688 56.418h26.954v26.453H97.688V56.418Z" fill="#FBCB8E" stroke="#2B2A29" stroke-width=".5" stroke-miterlimit="10" stroke-linecap="round" stroke-linejoin="round"/><path d="M115.655 56.419h8.985V82.87h-8.985s-2.157-5.743-2.157-13.227c0-7.482 2.157-13.226 2.157-13.226Z" stroke="#2B2A29" stroke-width=".5" stroke-miterlimit="10" stroke-linecap="round" stroke-linejoin="round"/><path d="M97.688 82.871h26.954v26.452H97.688V82.871Z" fill="#FBCB8E" stroke="#2B2A29" stroke-width=".5" stroke-miterlimit="10" stroke-linecap="round" stroke-linejoin="round"/><path d="M115.655 82.871h8.985v26.452h-8.985s-2.157-5.743-2.157-13.226c0-7.483 2.157-13.226 2.157-13.226Z" stroke="#2B2A29" stroke-width=".5" stroke-miterlimit="10" stroke-linecap="round" stroke-linejoin="round"/><path d="M97.678 161.263v-23.182h26.955v26.452h-23.685a3.27 3.27 0 0 1-3.27-3.27Z" fill="#FBCB8E"/><path d="M97.678 161.263v-23.182h26.955v26.452h-23.685a3.27 3.27 0 0 1-3.27-3.27Z" stroke="#2B2A29" stroke-width=".5" stroke-miterlimit="10" stroke-linecap="round" stroke-linejoin="round"/><path d="M115.649 138.081h8.985v26.453h-8.985s-2.157-5.744-2.157-13.227c0-7.483 2.157-13.226 2.157-13.226Z" stroke="#2B2A29" stroke-width=".5" stroke-miterlimit="10" stroke-linecap="round" stroke-linejoin="round"/><path d="M97.688 3.515h26.954v26.451H97.688V3.515Z" fill="#FBCB8E" stroke="#2B2A29" stroke-width=".5" stroke-miterlimit="10" stroke-linecap="round" stroke-linejoin="round"/><path fill-rule="evenodd" clip-rule="evenodd" d="M98.596 8.044h21.087v21.488h-3.453c-4.636 0-7.481-4.97-7.481-8.01 0-.83.03-1.63.075-2.413-.768.046-1.553.076-2.366.076-2.986 0-7.862-.816-7.862-7.623V8.044Z" fill="url(#a)" fill-opacity=".502"/><path d="M115.655 3.515h8.984v26.451h-8.984s-2.157-5.743-2.157-13.225c0-.813.029-1.6.074-2.366-.781.045-1.582.073-2.41.073-7.626 0-13.478-2.116-13.478-2.116V3.515h17.971Z" stroke="#2B2A29" stroke-width=".5" stroke-miterlimit="10" stroke-linecap="round" stroke-linejoin="round"/><path d="M71.186 29.966h26.5V3.515h-26.5v26.451Z" fill="#FBCB8E" stroke="#2B2A29" stroke-width=".5" stroke-miterlimit="10" stroke-linecap="round" stroke-linejoin="round"/><path fill-rule="evenodd" clip-rule="evenodd" d="M97.132 4.09h-25.27v8.513c-.005 7.472 24.794 6.117 25.27 14.472V4.09Z" fill="#9D9E9E"/><path d="M97.685 12.332V3.515h-26.5v8.817s5.755 2.116 13.25 2.116c7.498 0 13.25-2.116 13.25-2.116Z" stroke="#2B2A29" stroke-width=".5" stroke-miterlimit="10" stroke-linecap="round" stroke-linejoin="round"/><path d="M19.228 30.03h23.256V3.58h-26.5v23.209a3.243 3.243 0 0 0 3.244 3.242Z" fill="#FBCB8E"/><path d="M19.228 30.03h23.256V3.58h-26.5v23.209a3.243 3.243 0 0 0 3.244 3.242Z" stroke="#2B2A29" stroke-width=".5" stroke-miterlimit="10" stroke-linecap="round" stroke-linejoin="round"/><path fill-rule="evenodd" clip-rule="evenodd" d="M41.87 4.448H16.6v8.512c-.005 7.471 24.794 6.117 25.27 14.472V4.448Z" fill="#9D9E9E"/><path d="M42.485 12.396V3.58h-26.5v8.817s5.753 2.117 13.25 2.117 13.25-2.117 13.25-2.117Z" stroke="#2B2A29" stroke-width=".5" stroke-miterlimit="10" stroke-linecap="round" stroke-linejoin="round"/><path d="M43.658 30.022h26.5V3.57h-26.5v26.452Z" fill="#FBCB8E" stroke="#2B2A29" stroke-width=".5" stroke-miterlimit="10" stroke-linecap="round" stroke-linejoin="round"/><path fill-rule="evenodd" clip-rule="evenodd" d="M69.565 4.514h-25.27v8.512c-.005 7.471 24.795 6.117 25.27 14.471V4.514Z" fill="#9D9E9E"/><path d="M70.158 12.387V3.57h-26.5v8.817s5.754 2.117 13.25 2.117c7.498 0 13.25-2.117 13.25-2.117Z" stroke="#2B2A29" stroke-width=".5" stroke-miterlimit="10" stroke-linecap="round" stroke-linejoin="round"/><path d="M97.672 110.574h26.955v26.452H97.672v-26.452Z" fill="#FBCB8E" stroke="#2B2A29" stroke-width=".5" stroke-miterlimit="10" stroke-linecap="round" stroke-linejoin="round"/><path d="M115.643 110.574h8.985v26.452h-8.985s-2.157-5.743-2.157-13.226c0-7.483 2.157-13.226 2.157-13.226Z" stroke="#2B2A29" stroke-width=".5" stroke-miterlimit="10" stroke-linecap="round" stroke-linejoin="round"/><defs><linearGradient id="a" x1="117.169" y1="25.754" x2="101.11" y2="11.822" gradientUnits="userSpaceOnUse"><stop stop-color="#9D9E9E"/><stop offset="1" stop-color="#B2B3B3"/></linearGradient></defs></symbol><symbol fill="none" id="sprite-cabin-7" viewBox="0 0 130 204"><title>cabin-7</title><path fill-rule="evenodd" clip-rule="evenodd" d="M.791 202.168V.932h128.366l.514 203.048-128.88-1.812Z" fill="#D9DADA"/><path d="M96.885 32.101h26.953v26.453H96.885V32.101Z" stroke="#FEFEFE" stroke-width=".35" stroke-miterlimit="10"/><path d="M114.858 32.101h8.985v26.453h-8.985s-2.157-5.744-2.157-13.227c0-7.483 2.157-13.226 2.157-13.226ZM96.885 86.465h26.953v26.453H96.885V86.465Z" stroke="#FEFEFE" stroke-width=".35" stroke-miterlimit="10"/><path d="M114.858 86.466h8.985v26.453h-8.985s-2.157-5.744-2.157-13.227c0-7.483 2.157-13.226 2.157-13.226Z" stroke="#FEFEFE" stroke-width=".35" stroke-miterlimit="10"/><path d="M96.885 112.918h26.953v26.452H96.885v-26.452Z" stroke="#FEFEFE" stroke-width=".35" stroke-miterlimit="10"/><path d="M114.858 112.918h8.985v26.452h-8.985s-2.157-5.743-2.157-13.226c0-7.483 2.157-13.226 2.157-13.226Zm-17.973 49.634V139.37h26.954v26.452h-23.684a3.27 3.27 0 0 1-3.27-3.27Z" stroke="#FEFEFE" stroke-width=".35" stroke-miterlimit="10"/><path d="M114.858 139.37h8.985v26.453h-8.985s-2.157-5.744-2.157-13.227c0-7.483 2.157-13.226 2.157-13.226Zm-57.71-37.737h26.5V45.34h-26.5v56.293Zm39.807-42.379h26.954v26.453H96.955V59.254Z" stroke="#FEFEFE" stroke-width=".35" stroke-miterlimit="10"/><path d="M114.922 59.254h8.985v26.453h-8.985s-2.156-5.744-2.156-13.227c0-7.483 2.156-13.226 2.156-13.226ZM70.22 32.27h26.5V5.82h-26.5v26.45Z" stroke="#FEFEFE" stroke-width=".35" stroke-miterlimit="10"/><path fill-rule="evenodd" clip-rule="evenodd" d="M96.225 6.645h-25.61v8.76c-.004 7.69 25.128 6.296 25.61 14.894V6.645Z" fill="#9D9E9E"/><path d="M96.71 14.452V5.635h-26.5v8.817s5.755 2.117 13.251 2.117c7.498 0 13.25-2.117 13.25-2.117Zm.235-8.783H123.9v26.452H96.945V5.668Z" stroke="#FEFEFE" stroke-width=".35" stroke-miterlimit="10"/><path d="M114.634 5.668h8.985V32.12h-8.985s-2.156-5.743-2.156-13.226c0-.813.029-1.599.074-2.365-.781.045-1.583.073-2.411.073-7.625 0-13.477-2.116-13.477-2.116V5.668h17.97ZM22.015 32.361h23.256V5.91h-26.5v23.21a3.243 3.243 0 0 0 3.244 3.242Z" stroke="#FEFEFE" stroke-width=".35" stroke-miterlimit="10"/><path fill-rule="evenodd" clip-rule="evenodd" d="M44.85 6.37H19.24v8.762c-.005 7.69 25.128 6.295 25.61 14.893V6.371Z" fill="#9D9E9E"/><path d="M45.244 14.51V5.691h-26.5v8.817s5.754 2.117 13.25 2.117c7.498 0 13.25-2.117 13.25-2.117Z" stroke="#FEFEFE" stroke-width=".35" stroke-miterlimit="10"/><path d="M44.766 32.405h26.5V5.953h-26.5v26.452Z" stroke="#FEFEFE" stroke-width=".35" stroke-miterlimit="10"/><path fill-rule="evenodd" clip-rule="evenodd" d="M70.77 6.78H45.16v8.76c-.004 7.69 25.128 6.296 25.61 14.894V6.78Z" fill="#9D9E9E"/><path d="M71.299 14.488V5.671h-26.5v8.817s5.754 2.117 13.25 2.117c7.497 0 13.25-2.117 13.25-2.117Z" stroke="#FEFEFE" stroke-width=".35" stroke-miterlimit="10"/><path d="M70.05 78.504h-4.084v-.954l1.873-2.385c.24-.329.415-.619.528-.867a1.72 1.72 0 0 0 .169-.716c0-.307-.053-.55-.16-.724a.511.511 0 0 0-.46-.263c-.218 0-.392.103-.519.304-.13.205-.193.492-.193.86H65.85c0-.426.088-.816.265-1.17.177-.35.425-.624.743-.82.318-.194.68-.29 1.08-.29.62 0 1.1.171 1.443.511.34.34.512.826.512 1.454 0 .39-.094.787-.282 1.188-.19.4-.534.895-1.028 1.481l-.89 1.272h2.357v1.119Zm4.874-2.608h.589v1.117h-.589v1.5h-1.349v-1.5h-2.294l-.06-.871 2.349-4.56h1.354v4.314Zm-1.1-.005-.027-2.266-1.02 2.266h1.048Z" fill="#006672"/></symbol><symbol fill="none" id="sprite-place-down-2" viewBox="0 0 37 36"><title>place-down-2</title><path d="M31.954 35.626H5.3A4.324 4.324 0 0 1 .977 31.3V.324h35.3V31.3a4.324 4.324 0 0 1-4.323 4.325Z" stroke="#FEFEFE" stroke-width=".35" stroke-miterlimit="10"/><path d="M.977 12.091V.324h35.3V12.09s-7.664 2.825-17.65 2.825c-9.985 0-17.65-2.825-17.65-2.825Z" stroke="#FEFEFE" stroke-width=".35" stroke-miterlimit="10"/></symbol><symbol fill="none" id="sprite-place-down-res" viewBox="0 0 45 45"><title>place-down-res</title><path d="M38.777 43.951H5.97A5.321 5.321 0 0 1 .648 38.63V.5H44.1v38.13a5.322 5.322 0 0 1-5.323 5.322Z" fill="#FBCB8E"/><path d="M38.777 43.951H5.97A5.321 5.321 0 0 1 .648 38.63V.5H44.1v38.13a5.322 5.322 0 0 1-5.323 5.322Z" stroke="#2B2A29" stroke-width=".5" stroke-miterlimit="10" stroke-linecap="round" stroke-linejoin="round"/><path fill-rule="evenodd" clip-rule="evenodd" d="M43.2 1.04H1.04v14.483C1.03 28.238 42.405 25.934 43.2 40.148V1.04Z" fill="#9D9E9E"/><path d="M.646 14.983V.499H44.1v14.484s-9.435 3.477-21.726 3.477C10.08 18.46.646 14.983.646 14.983Z" stroke="#2B2A29" stroke-width=".5" stroke-miterlimit="10" stroke-linecap="round" stroke-linejoin="round"/></symbol><symbol fill="none" id="sprite-place-down" viewBox="0 0 45 45"><title>place-down</title><path clip-rule="evenodd" d="M1.035 1.028v37.66c0 2.997 2.452 5.448 5.449 5.448h32.554c2.997 0 5.449-2.451 5.449-5.448V1.028H1.035Z" stroke="#FEFEFE" stroke-width=".353" stroke-miterlimit="22.926"/><path fill-rule="evenodd" clip-rule="evenodd" d="M43.788 1.586H1.627V16.07c-.008 12.713 41.367 10.409 42.161 24.623V1.587Z" fill="#9D9E9E"/><path clip-rule="evenodd" d="M44.473 1.032H1.021v14.484c13.808 4.656 30.095 4.43 43.452 0V1.032Z" stroke="#FEFEFE" stroke-width=".353" stroke-miterlimit="22.926"/></symbol><symbol fill="none" id="sprite-place-left-2" viewBox="0 0 37 37"><title>place-left-2</title><path d="M.719 31.937V5.283A4.323 4.323 0 0 1 5.044.96H36.02v35.3H5.044a4.324 4.324 0 0 1-4.325-4.323Z" stroke="#FEFEFE" stroke-width=".35" stroke-miterlimit="10"/><path d="M24.256.959h11.767V36.26H24.256s-2.824-7.665-2.824-17.651S24.256.959 24.256.959Z" stroke="#FEFEFE" stroke-width=".35" stroke-miterlimit="10"/></symbol><symbol fill="none" id="sprite-place-left-res" viewBox="0 0 45 45"><title>place-left-res</title><path d="M.972 38.596V5.789A5.322 5.322 0 0 1 6.294.467h38.129V43.92H6.294a5.323 5.323 0 0 1-5.322-5.323Z" fill="#FBCB8E"/><path d="M.972 38.596V5.789A5.322 5.322 0 0 1 6.294.467h38.129V43.92H6.294a5.323 5.323 0 0 1-5.322-5.323Z" stroke="#2B2A29" stroke-width=".5" stroke-miterlimit="10" stroke-linecap="round" stroke-linejoin="round"/><path d="M29.935.466h14.484v43.452H29.935s-3.476-9.434-3.476-21.726c0-12.291 3.476-21.726 3.476-21.726v0Z" stroke="#2B2A29" stroke-width=".5" stroke-miterlimit="10" stroke-linecap="round" stroke-linejoin="round"/></symbol><symbol fill="none" id="sprite-place-left" viewBox="0 0 45 45"><title>place-left</title><path d="M.803 38.875V6.069A5.322 5.322 0 0 1 6.125.748h38.13v43.45H6.125a5.323 5.323 0 0 1-5.322-5.323Z" stroke="#FEFEFE" stroke-width=".35" stroke-miterlimit="10"/><path d="M29.774.747h14.484v43.45H29.774s-3.477-9.434-3.477-21.725c0-12.292 3.477-21.725 3.477-21.725Z" stroke="#FEFEFE" stroke-width=".35" stroke-miterlimit="10"/></symbol><symbol fill="none" id="sprite-place-right-2" viewBox="0 0 37 36"><title>place-right-2</title><path d="M36.471 31.237V4.584A4.323 4.323 0 0 0 32.146.26H1.17v35.301h30.977a4.324 4.324 0 0 0 4.325-4.324Z" stroke="#FEFEFE" stroke-width=".35" stroke-miterlimit="10"/><path fill-rule="evenodd" clip-rule="evenodd" d="M1.6 35.21V.938h11.827c10.38-.006 8.5 33.627 20.106 34.272H1.6Z" fill="#9D9E9E"/></symbol><symbol fill="none" id="sprite-place-right-res" viewBox="0 0 45 45"><title>place-right-res</title><path d="M44.023 38.958V6.152A5.321 5.321 0 0 0 38.7.83H.57v43.45H38.7a5.322 5.322 0 0 0 5.322-5.323Z" fill="#FBCB8E"/><path d="M44.023 38.958V6.152A5.321 5.321 0 0 0 38.7.83H.57v43.45H38.7a5.322 5.322 0 0 0 5.322-5.323Z" stroke="#2B2A29" stroke-width=".5" stroke-miterlimit="10" stroke-linecap="round" stroke-linejoin="round"/><path fill-rule="evenodd" clip-rule="evenodd" d="M1.11 43.723V1.562h14.484c12.714-.008 10.41 41.367 24.624 42.161H1.11Z" fill="#9D9E9E"/><path d="M15.054.83H.57v43.45h14.484s3.477-9.434 3.477-21.726c0-12.29-3.477-21.724-3.477-21.724Z" stroke="#2B2A29" stroke-width=".5" stroke-miterlimit="10" stroke-linecap="round" stroke-linejoin="round"/></symbol><symbol fill="none" id="sprite-place-right" viewBox="0 0 47 47"><title>place-right</title><path d="M46.121 40.84V6.469A5.576 5.576 0 0 0 40.545.893H.595v45.525h39.95a5.577 5.577 0 0 0 5.576-5.577Z" stroke="#FEFEFE" stroke-width=".35" stroke-miterlimit="10"/><path fill-rule="evenodd" clip-rule="evenodd" d="M.35 45.795V1.62h15.176c13.32-.009 10.906 43.342 25.8 44.174H.35Z" fill="#9D9E9E"/><path d="M15.77.892H.595v45.525H15.77s3.643-9.884 3.643-22.763C19.413 10.776 15.77.892 15.77.892Z" stroke="#FEFEFE" stroke-width=".35" stroke-miterlimit="10"/></symbol><symbol fill="none" id="sprite-place-top-2" viewBox="0 0 37 37"><title>place-top-2</title><path d="M31.954.877H5.3A4.323 4.323 0 0 0 .977 5.202v30.977h35.3V5.202A4.324 4.324 0 0 0 31.955.877Z" stroke="#FEFEFE" stroke-width=".35" stroke-miterlimit="10"/><path d="M.977 24.412v11.767h35.3V24.412s-7.664-2.825-17.65-2.825c-9.985 0-17.65 2.825-17.65 2.825Z" stroke="#FEFEFE" stroke-width=".35" stroke-miterlimit="10"/></symbol><symbol fill="none" id="sprite-place-top-res" viewBox="0 0 45 45"><title>place-top-res</title><path d="M6.068.358h32.807a5.322 5.322 0 0 1 5.322 5.323v38.128H.747V5.681A5.322 5.322 0 0 1 6.067.358Z" fill="#FBCB8E"/><path d="M6.068.358h32.807a5.322 5.322 0 0 1 5.322 5.323v38.128H.747V5.681A5.322 5.322 0 0 1 6.067.358Z" stroke="#2B2A29" stroke-width=".5" stroke-miterlimit="10" stroke-linecap="round" stroke-linejoin="round"/><path d="M44.197 29.325V43.81H.747V29.325s9.432-3.476 21.725-3.476c12.291 0 21.725 3.476 21.725 3.476Z" stroke="#2B2A29" stroke-width=".5" stroke-miterlimit="10" stroke-linecap="round" stroke-linejoin="round"/></symbol><symbol fill="none" id="sprite-place-top" viewBox="0 0 45 44"><title>place-top</title><path clip-rule="evenodd" d="M1.021 43.53V5.87C1.021 2.873 3.473.422 6.47.422h32.555c2.997 0 5.448 2.451 5.448 5.448v37.66H1.021Z" stroke="#FEFEFE" stroke-width=".353" stroke-miterlimit="22.926"/><path clip-rule="evenodd" d="M44.473 43.533H1.021V29.049c13.808-4.656 30.095-4.43 43.452 0v14.484Z" stroke="#FEFEFE" stroke-width=".353" stroke-miterlimit="22.926"/></symbol></svg>